<?xml version="1.0" encoding="UTF-8" standalone="no"?>
<!DOCTYPE svg PUBLIC "-//W3C//DTD SVG 1.1//EN"
 "http://www.w3.org/Graphics/SVG/1.1/DTD/svg11.dtd">
<!-- Generated by graphviz version 2.43.0 (0)
 -->
<!-- Title: counter Pages: 1 -->
<svg width="870pt" height="300pt"
 viewBox="0.00 0.00 870.16 300.00" xmlns="http://www.w3.org/2000/svg" xmlns:xlink="http://www.w3.org/1999/xlink">
<g id="graph0" class="graph" transform="scale(1 1) rotate(0) translate(4 296)">
<title>counter</title>
<polygon fill="white" stroke="transparent" points="-4,4 -4,-296 866.16,-296 866.16,4 -4,4"/>
<text text-anchor="middle" x="431.08" y="-7.8" font-family="Times,serif" font-size="14.00">counter</text>
<!-- n4 -->
<g id="node1" class="node">
<title>n4</title>
<polygon fill="none" stroke="black" points="856.41,-184.54 856.41,-199.46 833.39,-210 800.84,-210 777.83,-199.46 777.83,-184.54 800.84,-174 833.39,-174 856.41,-184.54"/>
<text text-anchor="middle" x="817.12" y="-188.3" font-family="Times,serif" font-size="14.00">count</text>
</g>
<!-- c11 -->
<g id="node6" class="node">
<title>c11</title>
<polygon fill="none" stroke="black" points="215.72,-189 215.72,-235 320.72,-235 320.72,-189 215.72,-189"/>
<text text-anchor="middle" x="229.22" y="-219.8" font-family="Times,serif" font-size="14.00">A</text>
<polyline fill="none" stroke="black" points="215.72,-212 242.72,-212 "/>
<text text-anchor="middle" x="229.22" y="-196.8" font-family="Times,serif" font-size="14.00">B</text>
<polyline fill="none" stroke="black" points="242.72,-189 242.72,-235 "/>
<text text-anchor="middle" x="268.72" y="-215.8" font-family="Times,serif" font-size="14.00">$3</text>
<text text-anchor="middle" x="268.72" y="-200.8" font-family="Times,serif" font-size="14.00">$add</text>
<polyline fill="none" stroke="black" points="294.72,-189 294.72,-235 "/>
<text text-anchor="middle" x="307.72" y="-208.3" font-family="Times,serif" font-size="14.00">Y</text>
</g>
<!-- n4&#45;&gt;c11 -->
<g id="edge4" class="edge">
<title>n4:e&#45;&gt;c11:w</title>
<path fill="none" stroke="black" stroke-width="3" d="M857.12,-192C865.13,-192 861.8,-204.36 856.12,-210 687,-377.78 558.88,-229.83 320.72,-235.5 273.85,-236.62 249.78,-267.19 215.22,-235.5 214.75,-235.07 214.3,-234.56 213.88,-234.01"/>
<polygon fill="black" stroke="black" stroke-width="3" points="217.38,-234.11 214.22,-224 210.38,-233.88 217.38,-234.11"/>
<text text-anchor="middle" x="567.72" y="-280.8" font-family="Times,serif" font-size="14.00">&lt;8&gt;</text>
</g>
<!-- p1 -->
<g id="node9" class="node">
<title>p1</title>
<path fill="none" stroke="black" d="M695.72,-160C695.72,-160 614.72,-160 614.72,-160 608.72,-160 602.72,-154 602.72,-148 602.72,-148 602.72,-134 602.72,-134 602.72,-128 608.72,-122 614.72,-122 614.72,-122 695.72,-122 695.72,-122 701.72,-122 707.72,-128 707.72,-134 707.72,-134 707.72,-148 707.72,-148 707.72,-154 701.72,-160 695.72,-160"/>
<text text-anchor="middle" x="655.22" y="-144.8" font-family="Times,serif" font-size="14.00">PROC $1</text>
<text text-anchor="middle" x="655.22" y="-129.8" font-family="Times,serif" font-size="14.00">counter.v:11</text>
</g>
<!-- n4&#45;&gt;p1 -->
<g id="edge5" class="edge">
<title>n4:e&#45;&gt;p1:w</title>
<path fill="none" stroke="black" stroke-width="3" d="M857.12,-192C870.49,-192 860.45,-273.91 777.72,-210 752.64,-190.62 784.8,-160.38 759.72,-141 747.76,-131.76 739.6,-135.03 725.72,-141 715.04,-145.6 718.41,-155.4 707.72,-160 664.65,-178.53 636.24,-192.27 602.22,-160 599.54,-157.45 597.39,-153.5 596.54,-149.85"/>
<polygon fill="black" stroke="black" stroke-width="3" points="599.64,-151.48 601.22,-141 593.45,-148.2 599.64,-151.48"/>
<text text-anchor="middle" x="742.72" y="-144.8" font-family="Times,serif" font-size="14.00">&lt;8&gt;</text>
</g>
<!-- n5 -->
<g id="node2" class="node">
<title>n5</title>
<polygon fill="none" stroke="black" points="59.36,-141.54 59.36,-156.46 43.54,-167 21.18,-167 5.36,-156.46 5.36,-141.54 21.18,-131 43.54,-131 59.36,-141.54"/>
<text text-anchor="middle" x="32.36" y="-145.3" font-family="Times,serif" font-size="14.00">en</text>
</g>
<!-- n5&#45;&gt;p1 -->
<g id="edge6" class="edge">
<title>n5:e&#45;&gt;p1:w</title>
<path fill="none" stroke="black" d="M60.36,-149C111.53,-149 124.05,-141 175.22,-141 175.22,-141 175.22,-141 496.22,-141 539.86,-141 553.32,-141 592.24,-141"/>
<polygon fill="black" stroke="black" points="592.72,-144.5 602.72,-141 592.72,-137.5 592.72,-144.5"/>
</g>
<!-- n6 -->
<g id="node3" class="node">
<title>n6</title>
<polygon fill="none" stroke="black" points="64.58,-33.54 64.58,-48.46 45.71,-59 19.01,-59 0.14,-48.46 0.14,-33.54 19.01,-23 45.71,-23 64.58,-33.54"/>
<text text-anchor="middle" x="32.36" y="-37.3" font-family="Times,serif" font-size="14.00">nrst</text>
</g>
<!-- c12 -->
<g id="node7" class="node">
<title>c12</title>
<polygon fill="none" stroke="black" points="338.72,-25 338.72,-63 439.72,-63 439.72,-25 338.72,-25"/>
<text text-anchor="middle" x="351.72" y="-40.3" font-family="Times,serif" font-size="14.00">A</text>
<polyline fill="none" stroke="black" points="364.72,-25 364.72,-63 "/>
<text text-anchor="middle" x="389.22" y="-47.8" font-family="Times,serif" font-size="14.00">$2</text>
<text text-anchor="middle" x="389.22" y="-32.8" font-family="Times,serif" font-size="14.00">$not</text>
<polyline fill="none" stroke="black" points="413.72,-25 413.72,-63 "/>
<text text-anchor="middle" x="426.72" y="-40.3" font-family="Times,serif" font-size="14.00">Y</text>
</g>
<!-- n6&#45;&gt;c12 -->
<g id="edge7" class="edge">
<title>n6:e&#45;&gt;c12:w</title>
<path fill="none" stroke="black" d="M64.72,-41C183.06,-41 215.14,-43.83 328.59,-43.99"/>
<polygon fill="black" stroke="black" points="328.72,-47.49 338.72,-44 328.72,-40.49 328.72,-47.49"/>
</g>
<!-- n7 -->
<g id="node4" class="node">
<title>n7</title>
<polygon fill="none" stroke="black" points="59.36,-87.54 59.36,-102.46 43.54,-113 21.18,-113 5.36,-102.46 5.36,-87.54 21.18,-77 43.54,-77 59.36,-87.54"/>
<text text-anchor="middle" x="32.36" y="-91.3" font-family="Times,serif" font-size="14.00">clk</text>
</g>
<!-- n7&#45;&gt;p1 -->
<g id="edge8" class="edge">
<title>n7:e&#45;&gt;p1:w</title>
<path fill="none" stroke="black" d="M60.36,-95C111.41,-95 124.17,-95 175.22,-95 175.22,-95 175.22,-95 496.22,-95 518.98,-95 564.47,-130.85 592.55,-139.25"/>
<polygon fill="black" stroke="black" points="592.27,-142.76 602.72,-141 593.46,-135.86 592.27,-142.76"/>
</g>
<!-- v0 -->
<g id="node5" class="node">
<title>v0</title>
<ellipse fill="none" stroke="black" cx="109.72" cy="-200" rx="27" ry="18"/>
<text text-anchor="middle" x="109.72" y="-196.3" font-family="Times,serif" font-size="14.00">1</text>
</g>
<!-- v0&#45;&gt;c11 -->
<g id="edge9" class="edge">
<title>v0:e&#45;&gt;c11:w</title>
<path fill="none" stroke="black" stroke-width="3" d="M136.72,-200C168.13,-200 178.47,-200 205.43,-200"/>
<polygon fill="black" stroke="black" stroke-width="3" points="205.72,-203.5 215.72,-200 205.72,-196.5 205.72,-203.5"/>
<text text-anchor="middle" x="176.22" y="-203.8" font-family="Times,serif" font-size="14.00">&lt;32&gt;</text>
</g>
<!-- x2 -->
<g id="node8" class="node">
<title>x2</title>
<path fill="none" stroke="black" d="M469.72,-171C469.72,-171 520.72,-171 520.72,-171 526.72,-171 532.72,-177 532.72,-183 532.72,-183 532.72,-195 532.72,-195 532.72,-201 526.72,-207 520.72,-207 520.72,-207 469.72,-207 469.72,-207 463.72,-207 457.72,-201 457.72,-195 457.72,-195 457.72,-183 457.72,-183 457.72,-177 463.72,-171 469.72,-171"/>
<text text-anchor="middle" x="495.22" y="-185.3" font-family="Times,serif" font-size="14.00">7:0 &#45; 7:0</text>
</g>
<!-- c11&#45;&gt;x2 -->
<g id="edge1" class="edge">
<title>c11:e&#45;&gt;x2:w</title>
<path fill="none" stroke="black" stroke-width="3" d="M320.72,-212C321.12,-212 416.25,-195.93 447.74,-190.65"/>
<polygon fill="black" stroke="black" stroke-width="3" points="448.43,-194.09 457.72,-189 447.28,-187.18 448.43,-194.09"/>
<text text-anchor="middle" x="389.22" y="-211.8" font-family="Times,serif" font-size="14.00">&lt;8&gt;</text>
</g>
<!-- c12&#45;&gt;p1 -->
<g id="edge2" class="edge">
<title>c12:e&#45;&gt;p1:w</title>
<path fill="none" stroke="black" d="M439.72,-44C506.23,-44 536.72,-34.96 584.72,-81 601.36,-96.96 583.69,-127.63 592.94,-137.71"/>
<polygon fill="black" stroke="black" points="592.13,-141.13 602.72,-141 594.36,-134.49 592.13,-141.13"/>
</g>
<!-- x2&#45;&gt;p1 -->
<g id="edge10" class="edge">
<title>x2:e&#45;&gt;p1:w</title>
<path fill="none" stroke="black" stroke-width="3" d="M532.72,-189C560.33,-189 562.25,-171.05 584.72,-155 589.1,-151.87 591.05,-148.12 593.43,-145.28"/>
<polygon fill="black" stroke="black" stroke-width="3" points="595.1,-148.36 602.72,-141 592.17,-142.01 595.1,-148.36"/>
<text text-anchor="middle" x="567.72" y="-189.8" font-family="Times,serif" font-size="14.00">&lt;8&gt;</text>
</g>
<!-- p1&#45;&gt;n4 -->
<g id="edge3" class="edge">
<title>p1:e&#45;&gt;n4:w</title>
<path fill="none" stroke="black" stroke-width="3" d="M707.72,-141C719.35,-141 716.69,-152.67 725.72,-160 743.82,-174.7 749.18,-187.77 767.54,-191.15"/>
<polygon fill="black" stroke="black" stroke-width="3" points="767.47,-194.66 777.72,-192 768.05,-187.68 767.47,-194.66"/>
<text text-anchor="middle" x="742.72" y="-192.8" font-family="Times,serif" font-size="14.00">&lt;8&gt;</text>
</g>
</g>
</svg>
