<?xml version="1.0" encoding="UTF-8" standalone="no"?>
<!DOCTYPE svg PUBLIC "-//W3C//DTD SVG 1.1//EN"
 "http://www.w3.org/Graphics/SVG/1.1/DTD/svg11.dtd">
<!-- Generated by graphviz version 2.43.0 (0)
 -->
<!-- Title: counter Pages: 1 -->
<svg width="1613pt" height="304pt"
 viewBox="0.00 0.00 1613.25 303.53" xmlns="http://www.w3.org/2000/svg" xmlns:xlink="http://www.w3.org/1999/xlink">
<g id="graph0" class="graph" transform="scale(1 1) rotate(0) translate(4 299.53)">
<title>counter</title>
<polygon fill="white" stroke="transparent" points="-4,4 -4,-299.53 1609.25,-299.53 1609.25,4 -4,4"/>
<text text-anchor="middle" x="802.62" y="-7.8" font-family="Times,serif" font-size="14.00">counter</text>
<!-- n8 -->
<g id="node1" class="node">
<title>n8</title>
<polygon fill="none" stroke="black" points="1599.59,-216.54 1599.59,-231.46 1576.57,-242 1544.02,-242 1521.01,-231.46 1521.01,-216.54 1544.02,-206 1576.57,-206 1599.59,-216.54"/>
<text text-anchor="middle" x="1560.3" y="-220.3" font-family="Times,serif" font-size="14.00">count</text>
</g>
<!-- c21 -->
<g id="node8" class="node">
<title>c21</title>
<polygon fill="none" stroke="black" points="633.87,-164.5 633.87,-233.5 742.87,-233.5 742.87,-164.5 633.87,-164.5"/>
<text text-anchor="middle" x="647.37" y="-218.3" font-family="Times,serif" font-size="14.00">A</text>
<polyline fill="none" stroke="black" points="633.87,-210.5 660.87,-210.5 "/>
<text text-anchor="middle" x="647.37" y="-195.3" font-family="Times,serif" font-size="14.00">B</text>
<polyline fill="none" stroke="black" points="633.87,-187.5 660.87,-187.5 "/>
<text text-anchor="middle" x="647.37" y="-172.3" font-family="Times,serif" font-size="14.00">S</text>
<polyline fill="none" stroke="black" points="660.87,-164.5 660.87,-233.5 "/>
<text text-anchor="middle" x="688.87" y="-202.8" font-family="Times,serif" font-size="14.00">$4</text>
<text text-anchor="middle" x="688.87" y="-187.8" font-family="Times,serif" font-size="14.00">$mux</text>
<polyline fill="none" stroke="black" points="716.87,-164.5 716.87,-233.5 "/>
<text text-anchor="middle" x="729.87" y="-195.3" font-family="Times,serif" font-size="14.00">Y</text>
</g>
<!-- n8&#45;&gt;c21 -->
<g id="edge14" class="edge">
<title>n8:e&#45;&gt;c21:w</title>
<path fill="none" stroke="black" stroke-width="3" d="M1600.3,-224C1608.31,-224 1605.12,-236.49 1599.3,-242 1573.99,-265.94 1555.72,-243.21 1520.9,-242 1406.07,-238 1377.91,-224 1263.01,-224 877.51,-224 877.51,-224 877.51,-224 817.5,-224 802.83,-231.78 742.87,-234 694.23,-235.8 669.18,-266.95 633.37,-234 632.75,-233.43 632.17,-232.75 631.65,-232"/>
<polygon fill="black" stroke="black" stroke-width="3" points="635.15,-232.22 632.37,-222 628.17,-231.73 635.15,-232.22"/>
<text text-anchor="middle" x="1020.01" y="-227.8" font-family="Times,serif" font-size="14.00">&lt;8&gt;</text>
</g>
<!-- c22 -->
<g id="node11" class="node">
<title>c22</title>
<polygon fill="none" stroke="black" points="273.72,-226 273.72,-272 378.72,-272 378.72,-226 273.72,-226"/>
<text text-anchor="middle" x="287.22" y="-256.8" font-family="Times,serif" font-size="14.00">A</text>
<polyline fill="none" stroke="black" points="273.72,-249 300.72,-249 "/>
<text text-anchor="middle" x="287.22" y="-233.8" font-family="Times,serif" font-size="14.00">B</text>
<polyline fill="none" stroke="black" points="300.72,-226 300.72,-272 "/>
<text text-anchor="middle" x="326.72" y="-252.8" font-family="Times,serif" font-size="14.00">$3</text>
<text text-anchor="middle" x="326.72" y="-237.8" font-family="Times,serif" font-size="14.00">$add</text>
<polyline fill="none" stroke="black" points="352.72,-226 352.72,-272 "/>
<text text-anchor="middle" x="365.72" y="-245.3" font-family="Times,serif" font-size="14.00">Y</text>
</g>
<!-- n8&#45;&gt;c22 -->
<g id="edge15" class="edge">
<title>n8:e&#45;&gt;c22:w</title>
<path fill="none" stroke="black" stroke-width="3" d="M1600.3,-224C1608.31,-224 1604.94,-236.32 1599.3,-242 1493.77,-348.25 1412.76,-263 1263.01,-263 494.22,-263 494.22,-263 494.22,-263 442.71,-263 430.18,-270.39 378.72,-272.5 331.87,-274.42 307.78,-304.19 273.22,-272.5 272.75,-272.07 272.3,-271.56 271.88,-271.01"/>
<polygon fill="black" stroke="black" stroke-width="3" points="275.38,-271.11 272.22,-261 268.38,-270.88 275.38,-271.11"/>
<text text-anchor="middle" x="878.51" y="-266.8" font-family="Times,serif" font-size="14.00">&lt;8&gt;</text>
</g>
<!-- n9 -->
<g id="node2" class="node">
<title>n9</title>
<polygon fill="none" stroke="black" points="59.36,-181.54 59.36,-196.46 43.54,-207 21.18,-207 5.36,-196.46 5.36,-181.54 21.18,-171 43.54,-171 59.36,-181.54"/>
<text text-anchor="middle" x="32.36" y="-185.3" font-family="Times,serif" font-size="14.00">en</text>
</g>
<!-- x3 -->
<g id="node13" class="node">
<title>x3</title>
<path fill="none" stroke="black" d="M341.22,-200C341.22,-200 311.22,-200 311.22,-200 305.22,-200 299.22,-194 299.22,-188 299.22,-188 299.22,-176 299.22,-176 299.22,-170 305.22,-164 311.22,-164 311.22,-164 341.22,-164 341.22,-164 347.22,-164 353.22,-170 353.22,-176 353.22,-176 353.22,-188 353.22,-188 353.22,-194 347.22,-200 341.22,-200"/>
<text text-anchor="middle" x="326.22" y="-178.3" font-family="Times,serif" font-size="14.00">BUF</text>
</g>
<!-- n9&#45;&gt;x3 -->
<g id="edge16" class="edge">
<title>n9:e&#45;&gt;x3:w</title>
<path fill="none" stroke="black" d="M60.36,-189C162.61,-189 190.62,-182.46 287.94,-182.02"/>
<polygon fill="black" stroke="black" points="288.23,-185.52 298.22,-182 288.21,-178.52 288.23,-185.52"/>
</g>
<!-- n10 -->
<g id="node3" class="node">
<title>n10</title>
<polygon fill="none" stroke="black" points="64.58,-35.54 64.58,-50.46 45.71,-61 19.01,-61 0.14,-50.46 0.14,-35.54 19.01,-25 45.71,-25 64.58,-35.54"/>
<text text-anchor="middle" x="32.36" y="-39.3" font-family="Times,serif" font-size="14.00">nrst</text>
</g>
<!-- c23 -->
<g id="node12" class="node">
<title>c23</title>
<polygon fill="none" stroke="black" points="154.72,-24 154.72,-62 255.72,-62 255.72,-24 154.72,-24"/>
<text text-anchor="middle" x="167.72" y="-39.3" font-family="Times,serif" font-size="14.00">A</text>
<polyline fill="none" stroke="black" points="180.72,-24 180.72,-62 "/>
<text text-anchor="middle" x="205.22" y="-46.8" font-family="Times,serif" font-size="14.00">$2</text>
<text text-anchor="middle" x="205.22" y="-31.8" font-family="Times,serif" font-size="14.00">$not</text>
<polyline fill="none" stroke="black" points="229.72,-24 229.72,-62 "/>
<text text-anchor="middle" x="242.72" y="-39.3" font-family="Times,serif" font-size="14.00">Y</text>
</g>
<!-- n10&#45;&gt;c23 -->
<g id="edge5" class="edge">
<title>n10:e&#45;&gt;c23:w</title>
<path fill="none" stroke="black" d="M64.72,-43C101.13,-43 112.68,-43 144.62,-43"/>
<polygon fill="black" stroke="black" points="144.72,-46.5 154.72,-43 144.72,-39.5 144.72,-46.5"/>
</g>
<!-- n11 -->
<g id="node4" class="node">
<title>n11</title>
<polygon fill="none" stroke="black" points="59.36,-127.54 59.36,-142.46 43.54,-153 21.18,-153 5.36,-142.46 5.36,-127.54 21.18,-117 43.54,-117 59.36,-127.54"/>
<text text-anchor="middle" x="32.36" y="-131.3" font-family="Times,serif" font-size="14.00">clk</text>
</g>
<!-- c15 -->
<g id="node5" class="node">
<title>c15</title>
<polygon fill="none" stroke="black" points="1107.01,-100 1107.01,-146 1227.01,-146 1227.01,-100 1107.01,-100"/>
<text text-anchor="middle" x="1130.51" y="-130.8" font-family="Times,serif" font-size="14.00">CLK</text>
<polyline fill="none" stroke="black" points="1107.01,-123 1154.01,-123 "/>
<text text-anchor="middle" x="1130.51" y="-107.8" font-family="Times,serif" font-size="14.00">D</text>
<polyline fill="none" stroke="black" points="1154.01,-100 1154.01,-146 "/>
<text text-anchor="middle" x="1176.51" y="-126.8" font-family="Times,serif" font-size="14.00">$9</text>
<text text-anchor="middle" x="1176.51" y="-111.8" font-family="Times,serif" font-size="14.00">$dff</text>
<polyline fill="none" stroke="black" points="1199.01,-100 1199.01,-146 "/>
<text text-anchor="middle" x="1213.01" y="-119.3" font-family="Times,serif" font-size="14.00">Q</text>
</g>
<!-- n11&#45;&gt;c15 -->
<g id="edge6" class="edge">
<title>n11:e&#45;&gt;c15:w</title>
<path fill="none" stroke="black" d="M60.36,-135C124.3,-135 140.28,-135 204.22,-135 204.22,-135 204.22,-135 1021.01,-135 1055.65,-135 1066.74,-135 1096.97,-135"/>
<polygon fill="black" stroke="black" points="1097.01,-138.5 1107.01,-135 1097.01,-131.5 1097.01,-138.5"/>
</g>
<!-- c15&#45;&gt;n8 -->
<g id="edge13" class="edge">
<title>c15:e&#45;&gt;n8:w</title>
<path fill="none" stroke="black" stroke-width="3" d="M1227.01,-123C1355.58,-123 1389.05,-150.26 1502.9,-210 1507.67,-212.5 1509.59,-216.3 1511.86,-219.3"/>
<polygon fill="black" stroke="black" stroke-width="3" points="1510.41,-222.5 1520.9,-224 1513.64,-216.28 1510.41,-222.5"/>
<text text-anchor="middle" x="1262.01" y="-128.8" font-family="Times,serif" font-size="14.00">&lt;8&gt;</text>
</g>
<!-- v0 -->
<g id="node6" class="node">
<title>v0</title>
<ellipse fill="none" stroke="black" cx="688.37" cy="-89" rx="65.79" ry="18"/>
<text text-anchor="middle" x="688.37" y="-85.3" font-family="Times,serif" font-size="14.00">8&#39;00000000</text>
</g>
<!-- c20 -->
<g id="node7" class="node">
<title>c20</title>
<polygon fill="none" stroke="black" points="824.01,-50.5 824.01,-119.5 933.01,-119.5 933.01,-50.5 824.01,-50.5"/>
<text text-anchor="middle" x="837.51" y="-104.3" font-family="Times,serif" font-size="14.00">A</text>
<polyline fill="none" stroke="black" points="824.01,-96.5 851.01,-96.5 "/>
<text text-anchor="middle" x="837.51" y="-81.3" font-family="Times,serif" font-size="14.00">B</text>
<polyline fill="none" stroke="black" points="824.01,-73.5 851.01,-73.5 "/>
<text text-anchor="middle" x="837.51" y="-58.3" font-family="Times,serif" font-size="14.00">S</text>
<polyline fill="none" stroke="black" points="851.01,-50.5 851.01,-119.5 "/>
<text text-anchor="middle" x="879.01" y="-88.8" font-family="Times,serif" font-size="14.00">$7</text>
<text text-anchor="middle" x="879.01" y="-73.8" font-family="Times,serif" font-size="14.00">$mux</text>
<polyline fill="none" stroke="black" points="907.01,-50.5 907.01,-119.5 "/>
<text text-anchor="middle" x="920.01" y="-81.3" font-family="Times,serif" font-size="14.00">Y</text>
</g>
<!-- v0&#45;&gt;c20 -->
<g id="edge17" class="edge">
<title>v0:e&#45;&gt;c20:w</title>
<path fill="none" stroke="black" stroke-width="3" d="M754.01,-89C781.52,-89 790.73,-85.88 813.95,-85.15"/>
<polygon fill="black" stroke="black" stroke-width="3" points="814.06,-88.65 824.01,-85 813.96,-81.65 814.06,-88.65"/>
<text text-anchor="middle" x="789.01" y="-92.8" font-family="Times,serif" font-size="14.00">&lt;8&gt;</text>
</g>
<!-- n1 -->
<g id="node16" class="node">
<title>n1</title>
<ellipse fill="black" stroke="black" cx="1020.01" cy="-85" rx="1.8" ry="1.8"/>
</g>
<!-- c20&#45;&gt;n1 -->
<g id="edge2" class="edge">
<title>c20:e&#45;&gt;n1:w</title>
<path fill="none" stroke="black" stroke-width="3" d="M933.01,-85C966.7,-85 977.59,-85 1006.82,-85"/>
<polygon fill="black" stroke="black" stroke-width="3" points="1007.01,-88.5 1017.01,-85 1007.01,-81.5 1007.01,-88.5"/>
<text text-anchor="middle" x="968.01" y="-88.8" font-family="Times,serif" font-size="14.00">&lt;8&gt;</text>
</g>
<!-- c21&#45;&gt;c20 -->
<g id="edge8" class="edge">
<title>c21:e&#45;&gt;c20:w</title>
<path fill="none" stroke="black" stroke-width="3" d="M744.37,-199C794.44,-199 773.69,-120.02 814.08,-109.22"/>
<polygon fill="black" stroke="black" stroke-width="3" points="814.51,-112.69 824.01,-108 813.66,-105.74 814.51,-112.69"/>
<text text-anchor="middle" x="789.01" y="-187.8" font-family="Times,serif" font-size="14.00">&lt;8&gt;</text>
</g>
<!-- x1 -->
<g id="node9" class="node">
<title>x1</title>
<path fill="none" stroke="black" d="M469.72,-202C469.72,-202 520.72,-202 520.72,-202 526.72,-202 532.72,-208 532.72,-214 532.72,-214 532.72,-226 532.72,-226 532.72,-232 526.72,-238 520.72,-238 520.72,-238 469.72,-238 469.72,-238 463.72,-238 457.72,-232 457.72,-226 457.72,-226 457.72,-214 457.72,-214 457.72,-208 463.72,-202 469.72,-202"/>
<text text-anchor="middle" x="495.22" y="-216.3" font-family="Times,serif" font-size="14.00">7:0 &#45; 7:0</text>
</g>
<!-- x1&#45;&gt;c21 -->
<g id="edge1" class="edge">
<title>x1:e&#45;&gt;c21:w</title>
<path fill="none" stroke="black" stroke-width="3" d="M545.01,-219.44C576.41,-216.45 588.85,-202.45 620.36,-199.53"/>
<polygon fill="none" stroke="black" stroke-width="3" points="544.71,-219.45 538.9,-223.72 532.72,-220 538.53,-215.73 544.71,-219.45"/>
<polygon fill="none" stroke="black" stroke-width="3" points="620.38,-199.53 626.19,-195.27 632.37,-199 626.55,-203.26 620.38,-199.53"/>
<text text-anchor="middle" x="577.72" y="-221.8" font-family="Times,serif" font-size="14.00">&lt;8&gt;</text>
</g>
<!-- v2 -->
<g id="node10" class="node">
<title>v2</title>
<ellipse fill="none" stroke="black" cx="109.72" cy="-237" rx="27" ry="18"/>
<text text-anchor="middle" x="109.72" y="-233.3" font-family="Times,serif" font-size="14.00">1</text>
</g>
<!-- v2&#45;&gt;c22 -->
<g id="edge18" class="edge">
<title>v2:e&#45;&gt;c22:w</title>
<path fill="none" stroke="black" stroke-width="3" d="M136.72,-237C194.04,-237 210.89,-237 263.47,-237"/>
<polygon fill="black" stroke="black" stroke-width="3" points="263.72,-240.5 273.72,-237 263.72,-233.5 263.72,-240.5"/>
<text text-anchor="middle" x="205.22" y="-240.8" font-family="Times,serif" font-size="14.00">&lt;32&gt;</text>
</g>
<!-- c22&#45;&gt;x1 -->
<g id="edge10" class="edge">
<title>c22:e&#45;&gt;x1:w</title>
<path fill="none" stroke="black" stroke-width="3" d="M378.72,-249C389.13,-249 387.39,-238.62 396.72,-234 418.33,-223.29 427.42,-220.63 447.59,-220.11"/>
<polygon fill="black" stroke="black" stroke-width="3" points="447.76,-223.61 457.72,-220 447.68,-216.61 447.76,-223.61"/>
<text text-anchor="middle" x="418.22" y="-237.8" font-family="Times,serif" font-size="14.00">&lt;32&gt;</text>
</g>
<!-- x4 -->
<g id="node14" class="node">
<title>x4</title>
<path fill="none" stroke="black" d="M592.72,-61C592.72,-61 562.72,-61 562.72,-61 556.72,-61 550.72,-55 550.72,-49 550.72,-49 550.72,-37 550.72,-37 550.72,-31 556.72,-25 562.72,-25 562.72,-25 592.72,-25 592.72,-25 598.72,-25 604.72,-31 604.72,-37 604.72,-37 604.72,-49 604.72,-49 604.72,-55 598.72,-61 592.72,-61"/>
<text text-anchor="middle" x="577.72" y="-39.3" font-family="Times,serif" font-size="14.00">BUF</text>
</g>
<!-- c23&#45;&gt;x4 -->
<g id="edge11" class="edge">
<title>c23:e&#45;&gt;x4:w</title>
<path fill="none" stroke="black" d="M255.72,-43C383.38,-43 417.81,-43 540.55,-43"/>
<polygon fill="black" stroke="black" points="540.72,-46.5 550.72,-43 540.72,-39.5 540.72,-46.5"/>
</g>
<!-- x3&#45;&gt;c21 -->
<g id="edge9" class="edge">
<title>x3:e&#45;&gt;c21:w</title>
<path fill="none" stroke="black" d="M354.22,-182C474.37,-182 506.9,-176.34 622.08,-176.01"/>
<polygon fill="black" stroke="black" points="622.37,-179.51 632.37,-176 622.36,-172.51 622.37,-179.51"/>
</g>
<!-- x4&#45;&gt;c20 -->
<g id="edge7" class="edge">
<title>x4:e&#45;&gt;c20:w</title>
<path fill="none" stroke="black" d="M604.72,-43C699.11,-43 724.43,-60.69 813.96,-61.93"/>
<polygon fill="black" stroke="black" points="813.99,-65.43 824.01,-62 814.03,-58.43 813.99,-65.43"/>
</g>
<!-- x5 -->
<g id="node15" class="node">
<title>x5</title>
<path fill="none" stroke="black" d="M1182.01,-59C1182.01,-59 1152.01,-59 1152.01,-59 1146.01,-59 1140.01,-53 1140.01,-47 1140.01,-47 1140.01,-35 1140.01,-35 1140.01,-29 1146.01,-23 1152.01,-23 1152.01,-23 1182.01,-23 1182.01,-23 1188.01,-23 1194.01,-29 1194.01,-35 1194.01,-35 1194.01,-47 1194.01,-47 1194.01,-53 1188.01,-59 1182.01,-59"/>
<text text-anchor="middle" x="1167.01" y="-37.3" font-family="Times,serif" font-size="14.00">BUF</text>
</g>
<!-- n7 -->
<g id="node17" class="node">
<title>n7</title>
<polygon fill="none" stroke="black" points="1399.96,-59 1297.06,-41 1399.96,-23 1502.85,-41 1399.96,-59"/>
<text text-anchor="middle" x="1399.96" y="-37.3" font-family="Times,serif" font-size="14.00">$0\count[7:0]</text>
</g>
<!-- x5&#45;&gt;n7 -->
<g id="edge12" class="edge">
<title>x5:e&#45;&gt;n7:w</title>
<path fill="none" stroke="black" stroke-width="3" d="M1195.01,-41C1236.8,-41 1249.7,-41 1286.97,-41"/>
<polygon fill="black" stroke="black" stroke-width="3" points="1287.01,-44.5 1297.01,-41 1287.01,-37.5 1287.01,-44.5"/>
<text text-anchor="middle" x="1262.01" y="-44.8" font-family="Times,serif" font-size="14.00">&lt;8&gt;</text>
</g>
<!-- n1&#45;&gt;c15 -->
<g id="edge3" class="edge">
<title>n1:e&#45;&gt;c15:w</title>
<path fill="none" stroke="black" stroke-width="3" d="M1023.01,-85C1026.94,-85 1075.77,-101.84 1097.24,-108.41"/>
<polygon fill="black" stroke="black" stroke-width="3" points="1096.45,-111.82 1107.01,-111 1098.24,-105.05 1096.45,-111.82"/>
<text text-anchor="middle" x="1072.01" y="-109.8" font-family="Times,serif" font-size="14.00">&lt;8&gt;</text>
</g>
<!-- n1&#45;&gt;x5 -->
<g id="edge4" class="edge">
<title>n1:e&#45;&gt;x5:w</title>
<path fill="none" stroke="black" stroke-width="3" d="M1023.01,-85C1047.56,-85 1098.52,-50.1 1128.86,-42.46"/>
<polygon fill="black" stroke="black" stroke-width="3" points="1129.61,-45.89 1139.01,-41 1128.61,-38.96 1129.61,-45.89"/>
<text text-anchor="middle" x="1072.01" y="-79.8" font-family="Times,serif" font-size="14.00">&lt;8&gt;</text>
</g>
</g>
</svg>
