<?xml version="1.0" encoding="UTF-8" standalone="no"?>
<!DOCTYPE svg PUBLIC "-//W3C//DTD SVG 1.1//EN"
 "http://www.w3.org/Graphics/SVG/1.1/DTD/svg11.dtd">
<!-- Generated by graphviz version 2.43.0 (0)
 -->
<!-- Title: counter Pages: 1 -->
<svg width="1198pt" height="296pt"
 viewBox="0.00 0.00 1198.35 296.00" xmlns="http://www.w3.org/2000/svg" xmlns:xlink="http://www.w3.org/1999/xlink">
<g id="graph0" class="graph" transform="scale(1 1) rotate(0) translate(4 292)">
<title>counter</title>
<polygon fill="white" stroke="transparent" points="-4,4 -4,-292 1194.35,-292 1194.35,4 -4,4"/>
<text text-anchor="middle" x="595.18" y="-7.8" font-family="Times,serif" font-size="14.00">counter</text>
<!-- n4 -->
<g id="node1" class="node">
<title>n4</title>
<polygon fill="none" stroke="black" points="59.36,-262.54 59.36,-277.46 43.54,-288 21.18,-288 5.36,-277.46 5.36,-262.54 21.18,-252 43.54,-252 59.36,-262.54"/>
<text text-anchor="middle" x="32.36" y="-266.3" font-family="Times,serif" font-size="14.00">clk</text>
</g>
<!-- c15 -->
<g id="node7" class="node">
<title>c15</title>
<polygon fill="none" stroke="black" points="916.01,-115 916.01,-161 1036.01,-161 1036.01,-115 916.01,-115"/>
<text text-anchor="middle" x="939.51" y="-145.8" font-family="Times,serif" font-size="14.00">CLK</text>
<polyline fill="none" stroke="black" points="916.01,-138 963.01,-138 "/>
<text text-anchor="middle" x="939.51" y="-122.8" font-family="Times,serif" font-size="14.00">D</text>
<polyline fill="none" stroke="black" points="963.01,-115 963.01,-161 "/>
<text text-anchor="middle" x="985.51" y="-141.8" font-family="Times,serif" font-size="14.00">$9</text>
<text text-anchor="middle" x="985.51" y="-126.8" font-family="Times,serif" font-size="14.00">$dff</text>
<polyline fill="none" stroke="black" points="1008.01,-115 1008.01,-161 "/>
<text text-anchor="middle" x="1022.01" y="-134.3" font-family="Times,serif" font-size="14.00">Q</text>
</g>
<!-- n4&#45;&gt;c15 -->
<g id="edge5" class="edge">
<title>n4:e&#45;&gt;c15:w</title>
<path fill="none" stroke="black" d="M60.36,-270C111.41,-270 124.17,-270 175.22,-270 175.22,-270 175.22,-270 602.37,-270 736.44,-270 798.98,-300.38 898.01,-210 915.04,-194.46 897.11,-163.51 906.26,-153.33"/>
<polygon fill="black" stroke="black" points="907.68,-156.55 916.01,-150 905.42,-149.92 907.68,-156.55"/>
</g>
<!-- n5 -->
<g id="node2" class="node">
<title>n5</title>
<polygon fill="none" stroke="black" points="1184.7,-173.54 1184.7,-188.46 1161.68,-199 1129.13,-199 1106.11,-188.46 1106.11,-173.54 1129.13,-163 1161.68,-163 1184.7,-173.54"/>
<text text-anchor="middle" x="1145.41" y="-177.3" font-family="Times,serif" font-size="14.00">count</text>
</g>
<!-- c11 -->
<g id="node6" class="node">
<title>c11</title>
<polygon fill="none" stroke="black" points="215.72,-181 215.72,-227 320.72,-227 320.72,-181 215.72,-181"/>
<text text-anchor="middle" x="229.22" y="-211.8" font-family="Times,serif" font-size="14.00">A</text>
<polyline fill="none" stroke="black" points="215.72,-204 242.72,-204 "/>
<text text-anchor="middle" x="229.22" y="-188.8" font-family="Times,serif" font-size="14.00">B</text>
<polyline fill="none" stroke="black" points="242.72,-181 242.72,-227 "/>
<text text-anchor="middle" x="268.72" y="-207.8" font-family="Times,serif" font-size="14.00">$3</text>
<text text-anchor="middle" x="268.72" y="-192.8" font-family="Times,serif" font-size="14.00">$add</text>
<polyline fill="none" stroke="black" points="294.72,-181 294.72,-227 "/>
<text text-anchor="middle" x="307.72" y="-200.3" font-family="Times,serif" font-size="14.00">Y</text>
</g>
<!-- n5&#45;&gt;c11 -->
<g id="edge7" class="edge">
<title>n5:e&#45;&gt;c11:w</title>
<path fill="none" stroke="black" stroke-width="3" d="M1185.41,-181C1193.42,-181 1189.81,-193.09 1184.41,-199 1155.18,-230.94 1131.1,-208.86 1088.01,-213 1003.86,-221.08 982.51,-219.6 898.01,-222 641.53,-229.29 577.3,-226.28 320.72,-227.5 273.83,-227.72 249.78,-259.19 215.22,-227.5 214.75,-227.07 214.3,-226.56 213.88,-226.01"/>
<polygon fill="black" stroke="black" stroke-width="3" points="217.38,-226.11 214.22,-216 210.38,-225.88 217.38,-226.11"/>
<text text-anchor="middle" x="702.01" y="-229.8" font-family="Times,serif" font-size="14.00">&lt;8&gt;</text>
</g>
<!-- c17 -->
<g id="node8" class="node">
<title>c17</title>
<polygon fill="none" stroke="black" points="546.87,-123.5 546.87,-192.5 655.87,-192.5 655.87,-123.5 546.87,-123.5"/>
<text text-anchor="middle" x="560.37" y="-177.3" font-family="Times,serif" font-size="14.00">A</text>
<polyline fill="none" stroke="black" points="546.87,-169.5 573.87,-169.5 "/>
<text text-anchor="middle" x="560.37" y="-154.3" font-family="Times,serif" font-size="14.00">B</text>
<polyline fill="none" stroke="black" points="546.87,-146.5 573.87,-146.5 "/>
<text text-anchor="middle" x="560.37" y="-131.3" font-family="Times,serif" font-size="14.00">S</text>
<polyline fill="none" stroke="black" points="573.87,-123.5 573.87,-192.5 "/>
<text text-anchor="middle" x="601.87" y="-161.8" font-family="Times,serif" font-size="14.00">$4</text>
<text text-anchor="middle" x="601.87" y="-146.8" font-family="Times,serif" font-size="14.00">$mux</text>
<polyline fill="none" stroke="black" points="629.87,-123.5 629.87,-192.5 "/>
<text text-anchor="middle" x="642.87" y="-154.3" font-family="Times,serif" font-size="14.00">Y</text>
</g>
<!-- n5&#45;&gt;c17 -->
<g id="edge8" class="edge">
<title>n5:e&#45;&gt;c17:w</title>
<path fill="none" stroke="black" stroke-width="3" d="M1185.41,-181C1193.42,-181 1190.23,-193.49 1184.41,-199 1159.09,-222.94 1140.85,-199.19 1106.01,-199 1074.92,-198.83 569.13,-214.18 546.37,-193 545.75,-192.43 545.18,-191.75 544.66,-191"/>
<polygon fill="black" stroke="black" stroke-width="3" points="548.15,-191.22 545.37,-181 541.17,-190.73 548.15,-191.22"/>
<text text-anchor="middle" x="881.01" y="-206.8" font-family="Times,serif" font-size="14.00">&lt;8&gt;</text>
</g>
<!-- n6 -->
<g id="node3" class="node">
<title>n6</title>
<polygon fill="none" stroke="black" points="59.36,-127.54 59.36,-142.46 43.54,-153 21.18,-153 5.36,-142.46 5.36,-127.54 21.18,-117 43.54,-117 59.36,-127.54"/>
<text text-anchor="middle" x="32.36" y="-131.3" font-family="Times,serif" font-size="14.00">en</text>
</g>
<!-- n6&#45;&gt;c17 -->
<g id="edge9" class="edge">
<title>n6:e&#45;&gt;c17:w</title>
<path fill="none" stroke="black" d="M60.36,-135C111.41,-135 124.17,-135 175.22,-135 175.22,-135 175.22,-135 429.22,-135 477.31,-135 491.8,-135 535.3,-135"/>
<polygon fill="black" stroke="black" points="535.37,-138.5 545.37,-135 535.37,-131.5 535.37,-138.5"/>
</g>
<!-- n7 -->
<g id="node4" class="node">
<title>n7</title>
<polygon fill="none" stroke="black" points="64.58,-33.54 64.58,-48.46 45.71,-59 19.01,-59 0.14,-48.46 0.14,-33.54 19.01,-23 45.71,-23 64.58,-33.54"/>
<text text-anchor="middle" x="32.36" y="-37.3" font-family="Times,serif" font-size="14.00">nrst</text>
</g>
<!-- c18 -->
<g id="node11" class="node">
<title>c18</title>
<polygon fill="none" stroke="black" points="737.01,-45.5 737.01,-114.5 846.01,-114.5 846.01,-45.5 737.01,-45.5"/>
<text text-anchor="middle" x="750.51" y="-99.3" font-family="Times,serif" font-size="14.00">A</text>
<polyline fill="none" stroke="black" points="737.01,-91.5 764.01,-91.5 "/>
<text text-anchor="middle" x="750.51" y="-76.3" font-family="Times,serif" font-size="14.00">B</text>
<polyline fill="none" stroke="black" points="737.01,-68.5 764.01,-68.5 "/>
<text text-anchor="middle" x="750.51" y="-53.3" font-family="Times,serif" font-size="14.00">S</text>
<polyline fill="none" stroke="black" points="764.01,-45.5 764.01,-114.5 "/>
<text text-anchor="middle" x="792.01" y="-83.8" font-family="Times,serif" font-size="14.00">$7</text>
<text text-anchor="middle" x="792.01" y="-68.8" font-family="Times,serif" font-size="14.00">$mux</text>
<polyline fill="none" stroke="black" points="820.01,-45.5 820.01,-114.5 "/>
<text text-anchor="middle" x="833.01" y="-76.3" font-family="Times,serif" font-size="14.00">Y</text>
</g>
<!-- n7&#45;&gt;c18 -->
<g id="edge10" class="edge">
<title>n7:e&#45;&gt;c18:w</title>
<path fill="none" stroke="black" d="M64.72,-41C113.83,-41 126.11,-41 175.22,-41 175.22,-41 175.22,-41 602.37,-41 659.1,-41 674.93,-55.18 726.87,-56.84"/>
<polygon fill="black" stroke="black" points="726.96,-60.34 737.01,-57 727.07,-53.34 726.96,-60.34"/>
</g>
<!-- v0 -->
<g id="node5" class="node">
<title>v0</title>
<ellipse fill="none" stroke="black" cx="109.72" cy="-192" rx="27" ry="18"/>
<text text-anchor="middle" x="109.72" y="-188.3" font-family="Times,serif" font-size="14.00">1</text>
</g>
<!-- v0&#45;&gt;c11 -->
<g id="edge11" class="edge">
<title>v0:e&#45;&gt;c11:w</title>
<path fill="none" stroke="black" stroke-width="3" d="M136.72,-192C168.13,-192 178.47,-192 205.43,-192"/>
<polygon fill="black" stroke="black" stroke-width="3" points="205.72,-195.5 215.72,-192 205.72,-188.5 205.72,-195.5"/>
<text text-anchor="middle" x="176.22" y="-195.8" font-family="Times,serif" font-size="14.00">&lt;32&gt;</text>
</g>
<!-- x1 -->
<g id="node9" class="node">
<title>x1</title>
<path fill="none" stroke="black" d="M402.72,-164C402.72,-164 453.72,-164 453.72,-164 459.72,-164 465.72,-170 465.72,-176 465.72,-176 465.72,-188 465.72,-188 465.72,-194 459.72,-200 453.72,-200 453.72,-200 402.72,-200 402.72,-200 396.72,-200 390.72,-194 390.72,-188 390.72,-188 390.72,-176 390.72,-176 390.72,-170 396.72,-164 402.72,-164"/>
<text text-anchor="middle" x="428.22" y="-178.3" font-family="Times,serif" font-size="14.00">7:0 &#45; 7:0</text>
</g>
<!-- c11&#45;&gt;x1 -->
<g id="edge3" class="edge">
<title>c11:e&#45;&gt;x1:w</title>
<path fill="none" stroke="black" stroke-width="3" d="M320.72,-204C329.15,-204 330.69,-200.57 338.72,-198 358.15,-191.77 364.6,-184.66 380.66,-182.59"/>
<polygon fill="black" stroke="black" stroke-width="3" points="380.94,-186.08 390.72,-182 380.53,-179.1 380.94,-186.08"/>
<text text-anchor="middle" x="355.72" y="-201.8" font-family="Times,serif" font-size="14.00">&lt;8&gt;</text>
</g>
<!-- c15&#45;&gt;n5 -->
<g id="edge6" class="edge">
<title>c15:e&#45;&gt;n5:w</title>
<path fill="none" stroke="black" stroke-width="3" d="M1036.01,-138C1059.94,-138 1068.8,-137.72 1088.01,-152 1096.19,-158.08 1094.66,-169.08 1097.37,-175.65"/>
<polygon fill="black" stroke="black" stroke-width="3" points="1095.67,-178.71 1106.01,-181 1099.35,-172.76 1095.67,-178.71"/>
<text text-anchor="middle" x="1071.01" y="-155.8" font-family="Times,serif" font-size="14.00">&lt;8&gt;</text>
</g>
<!-- c17&#45;&gt;c18 -->
<g id="edge4" class="edge">
<title>c17:e&#45;&gt;c18:w</title>
<path fill="none" stroke="black" stroke-width="3" d="M657.37,-158C690.52,-158 697.2,-140.96 719.01,-116 727.47,-106.32 723.83,-91.96 727.75,-84.64"/>
<polygon fill="black" stroke="black" stroke-width="3" points="729.64,-87.61 737.01,-80 726.5,-81.35 729.64,-87.61"/>
<text text-anchor="middle" x="702.01" y="-155.8" font-family="Times,serif" font-size="14.00">&lt;8&gt;</text>
</g>
<!-- x1&#45;&gt;c17 -->
<g id="edge1" class="edge">
<title>x1:e&#45;&gt;c17:w</title>
<path fill="none" stroke="black" stroke-width="3" d="M477.89,-181.03C500.89,-177.15 510.25,-162.81 533.28,-158.96"/>
<polygon fill="none" stroke="black" stroke-width="3" points="477.68,-181.05 472.02,-185.51 465.72,-182 471.38,-177.54 477.68,-181.05"/>
<polygon fill="none" stroke="black" stroke-width="3" points="533.4,-158.95 539.07,-154.49 545.37,-158 539.7,-162.46 533.4,-158.95"/>
<text text-anchor="middle" x="500.72" y="-183.8" font-family="Times,serif" font-size="14.00">&lt;8&gt;</text>
</g>
<!-- v2 -->
<g id="node10" class="node">
<title>v2</title>
<ellipse fill="none" stroke="black" cx="601.37" cy="-87" rx="65.79" ry="18"/>
<text text-anchor="middle" x="601.37" y="-83.3" font-family="Times,serif" font-size="14.00">8&#39;00000000</text>
</g>
<!-- v2&#45;&gt;c18 -->
<g id="edge12" class="edge">
<title>v2:e&#45;&gt;c18:w</title>
<path fill="none" stroke="black" stroke-width="3" d="M667.01,-87C695.18,-87 703.3,-99.47 726.77,-102.39"/>
<polygon fill="black" stroke="black" stroke-width="3" points="726.82,-105.9 737.01,-103 727.23,-98.91 726.82,-105.9"/>
<text text-anchor="middle" x="702.01" y="-104.8" font-family="Times,serif" font-size="14.00">&lt;8&gt;</text>
</g>
<!-- c18&#45;&gt;c15 -->
<g id="edge2" class="edge">
<title>c18:e&#45;&gt;c15:w</title>
<path fill="none" stroke="black" stroke-width="3" d="M846.01,-80C879.46,-80 879.26,-117.13 905.87,-124.67"/>
<polygon fill="black" stroke="black" stroke-width="3" points="905.64,-128.17 916.01,-126 906.55,-121.23 905.64,-128.17"/>
<text text-anchor="middle" x="881.01" y="-125.8" font-family="Times,serif" font-size="14.00">&lt;8&gt;</text>
</g>
</g>
</svg>
