<?xml version="1.0" encoding="UTF-8" standalone="no"?>
<!DOCTYPE svg PUBLIC "-//W3C//DTD SVG 1.1//EN"
 "http://www.w3.org/Graphics/SVG/1.1/DTD/svg11.dtd">
<!-- Generated by graphviz version 2.43.0 (0)
 -->
<!-- Title: example Pages: 1 -->
<svg width="725pt" height="223pt"
 viewBox="0.00 0.00 725.38 222.50" xmlns="http://www.w3.org/2000/svg" xmlns:xlink="http://www.w3.org/1999/xlink">
<g id="graph0" class="graph" transform="scale(1 1) rotate(0) translate(4 218.5)">
<title>example</title>
<polygon fill="white" stroke="transparent" points="-4,4 -4,-218.5 721.38,-218.5 721.38,4 -4,4"/>
<text text-anchor="middle" x="358.69" y="-7.8" font-family="Times,serif" font-size="14.00">example</text>
<!-- n2 -->
<g id="node1" class="node">
<title>n2</title>
<polygon fill="none" stroke="black" points="54,-174.54 54,-189.46 38.18,-200 15.82,-200 0,-189.46 0,-174.54 15.82,-164 38.18,-164 54,-174.54"/>
<text text-anchor="middle" x="27" y="-178.3" font-family="Times,serif" font-size="14.00">a</text>
</g>
<!-- c6 -->
<g id="node5" class="node">
<title>c6</title>
<polygon fill="none" stroke="black" points="465.29,-122 465.29,-214 576.29,-214 576.29,-122 465.29,-122"/>
<text text-anchor="middle" x="485.29" y="-198.8" font-family="Times,serif" font-size="14.00">a</text>
<polyline fill="none" stroke="black" points="465.29,-191 505.29,-191 "/>
<text text-anchor="middle" x="485.29" y="-175.8" font-family="Times,serif" font-size="14.00">b</text>
<polyline fill="none" stroke="black" points="465.29,-168 505.29,-168 "/>
<text text-anchor="middle" x="485.29" y="-152.8" font-family="Times,serif" font-size="14.00">clk</text>
<polyline fill="none" stroke="black" points="465.29,-145 505.29,-145 "/>
<text text-anchor="middle" x="485.29" y="-129.8" font-family="Times,serif" font-size="14.00">out</text>
<polyline fill="none" stroke="black" points="505.29,-122 505.29,-214 "/>
<text text-anchor="middle" x="530.29" y="-171.8" font-family="Times,serif" font-size="14.00">$12</text>
<text text-anchor="middle" x="530.29" y="-156.8" font-family="Times,serif" font-size="14.00">mult</text>
<polyline fill="none" stroke="black" points="555.29,-122 555.29,-214 "/>
<text text-anchor="middle" x="565.79" y="-164.3" font-family="Times,serif" font-size="14.00"> </text>
</g>
<!-- n2&#45;&gt;c6 -->
<g id="edge2" class="edge">
<title>n2:e&#45;&gt;c6:w</title>
<path fill="none" stroke="black" stroke-width="3" d="M54,-182C233.41,-182 280.75,-180.07 455.25,-180"/>
<polygon fill="black" stroke="black" stroke-width="3" points="455.29,-183.5 465.29,-180 455.29,-176.5 455.29,-183.5"/>
<text text-anchor="middle" x="242.79" y="-184.8" font-family="Times,serif" font-size="14.00">&lt;16&gt;</text>
</g>
<!-- n3 -->
<g id="node2" class="node">
<title>n3</title>
<polygon fill="none" stroke="black" points="54,-120.54 54,-135.46 38.18,-146 15.82,-146 0,-135.46 0,-120.54 15.82,-110 38.18,-110 54,-120.54"/>
<text text-anchor="middle" x="27" y="-124.3" font-family="Times,serif" font-size="14.00">b</text>
</g>
<!-- c10 -->
<g id="node7" class="node">
<title>c10</title>
<polygon fill="none" stroke="black" points="282.29,-95 282.29,-141 386.29,-141 386.29,-95 282.29,-95"/>
<text text-anchor="middle" x="295.79" y="-125.8" font-family="Times,serif" font-size="14.00">A</text>
<polyline fill="none" stroke="black" points="282.29,-118 309.29,-118 "/>
<text text-anchor="middle" x="295.79" y="-102.8" font-family="Times,serif" font-size="14.00">B</text>
<polyline fill="none" stroke="black" points="309.29,-95 309.29,-141 "/>
<text text-anchor="middle" x="334.79" y="-121.8" font-family="Times,serif" font-size="14.00">$2</text>
<text text-anchor="middle" x="334.79" y="-106.8" font-family="Times,serif" font-size="14.00">$sub</text>
<polyline fill="none" stroke="black" points="360.29,-95 360.29,-141 "/>
<text text-anchor="middle" x="373.29" y="-114.3" font-family="Times,serif" font-size="14.00">Y</text>
</g>
<!-- n3&#45;&gt;c10 -->
<g id="edge3" class="edge">
<title>n3:e&#45;&gt;c10:w</title>
<path fill="none" stroke="black" stroke-width="3" d="M54,-128C152,-128 179,-129.87 272.14,-129.99"/>
<polygon fill="black" stroke="black" stroke-width="3" points="272.29,-133.49 282.29,-130 272.29,-126.49 272.29,-133.49"/>
<text text-anchor="middle" x="137.64" y="-132.8" font-family="Times,serif" font-size="14.00">&lt;16&gt;</text>
</g>
<!-- n4 -->
<g id="node3" class="node">
<title>n4</title>
<polygon fill="none" stroke="black" points="54,-33.54 54,-48.46 38.18,-59 15.82,-59 0,-48.46 0,-33.54 15.82,-23 38.18,-23 54,-33.54"/>
<text text-anchor="middle" x="27" y="-37.3" font-family="Times,serif" font-size="14.00">clk</text>
</g>
<!-- n4&#45;&gt;c6 -->
<g id="edge4" class="edge">
<title>n4:e&#45;&gt;c6:w</title>
<path fill="none" stroke="black" d="M54,-41C203.03,-41 251.02,-23.45 386.29,-86 425.54,-104.15 419.69,-148.33 455.29,-155.12"/>
<polygon fill="black" stroke="black" points="455.02,-158.61 465.29,-156 455.63,-151.63 455.02,-158.61"/>
</g>
<!-- n5 -->
<g id="node4" class="node">
<title>n5</title>
<polygon fill="none" stroke="black" points="711.71,-125.54 711.71,-140.46 695.14,-151 671.71,-151 655.15,-140.46 655.15,-125.54 671.71,-115 695.14,-115 711.71,-125.54"/>
<text text-anchor="middle" x="683.43" y="-129.3" font-family="Times,serif" font-size="14.00">out</text>
</g>
<!-- n5&#45;&gt;c6 -->
<g id="edge5" class="edge">
<title>n5:e&#45;&gt;c6:w</title>
<path fill="none" stroke="black" stroke-width="3" d="M712.43,-133C720.44,-133 717.25,-145.49 711.43,-151 693.3,-168.15 679.84,-155.43 655.29,-151 618.41,-144.34 613.17,-128.16 576.29,-121.5 527.52,-112.69 501.32,-88.01 464.79,-121.5 464.32,-121.93 463.87,-122.44 463.45,-122.99"/>
<polygon fill="black" stroke="black" stroke-width="3" points="459.95,-123.12 463.79,-133 466.95,-122.89 459.95,-123.12"/>
<text text-anchor="middle" x="615.79" y="-149.8" font-family="Times,serif" font-size="14.00">&lt;16&gt;</text>
</g>
<!-- v0 -->
<g id="node6" class="node">
<title>v0</title>
<ellipse fill="none" stroke="black" cx="137.64" cy="-87" rx="65.79" ry="18"/>
<text text-anchor="middle" x="137.64" y="-83.3" font-family="Times,serif" font-size="14.00">8&#39;01111111</text>
</g>
<!-- v0&#45;&gt;c10 -->
<g id="edge6" class="edge">
<title>v0:e&#45;&gt;c10:w</title>
<path fill="none" stroke="black" stroke-width="3" d="M203.29,-87C231.1,-87 237.33,-94.16 264.29,-101 267.81,-101.89 270.11,-102.96 272.27,-103.88"/>
<polygon fill="black" stroke="black" stroke-width="3" points="271.78,-107.35 282.29,-106 273.23,-100.51 271.78,-107.35"/>
<text text-anchor="middle" x="242.79" y="-104.8" font-family="Times,serif" font-size="14.00">&lt;8&gt;</text>
</g>
<!-- c10&#45;&gt;c6 -->
<g id="edge1" class="edge">
<title>c10:e&#45;&gt;c6:w</title>
<path fill="none" stroke="black" stroke-width="3" d="M386.29,-118C434.04,-118 416.88,-190.85 454.99,-201.66"/>
<polygon fill="black" stroke="black" stroke-width="3" points="454.92,-205.18 465.29,-203 455.82,-198.24 454.92,-205.18"/>
<text text-anchor="middle" x="425.79" y="-200.8" font-family="Times,serif" font-size="14.00">&lt;16&gt;</text>
</g>
</g>
</svg>
