<?xml version="1.0" encoding="UTF-8" standalone="no"?>
<!DOCTYPE svg PUBLIC "-//W3C//DTD SVG 1.1//EN"
 "http://www.w3.org/Graphics/SVG/1.1/DTD/svg11.dtd">
<!-- Generated by graphviz version 2.43.0 (0)
 -->
<!-- Title: example Pages: 1 -->
<svg width="1578pt" height="520pt"
 viewBox="0.00 0.00 1577.60 519.50" xmlns="http://www.w3.org/2000/svg" xmlns:xlink="http://www.w3.org/1999/xlink">
<g id="graph0" class="graph" transform="scale(1 1) rotate(0) translate(4 515.5)">
<title>example</title>
<polygon fill="white" stroke="transparent" points="-4,4 -4,-515.5 1573.6,-515.5 1573.6,4 -4,4"/>
<text text-anchor="middle" x="784.8" y="-7.8" font-family="Times,serif" font-size="14.00">example</text>
<!-- n19 -->
<g id="node1" class="node">
<title>n19</title>
<polygon fill="none" stroke="black" points="54,-267.04 54,-281.96 38.18,-292.5 15.82,-292.5 0,-281.96 0,-267.04 15.82,-256.5 38.18,-256.5 54,-267.04"/>
<text text-anchor="middle" x="27" y="-270.8" font-family="Times,serif" font-size="14.00">a</text>
</g>
<!-- x0 -->
<g id="node7" class="node">
<title>x0</title>
<path fill="none" stroke="black" d="M102,-408.5C102,-408.5 153,-408.5 153,-408.5 159,-408.5 165,-414.5 165,-420.5 165,-420.5 165,-432.5 165,-432.5 165,-438.5 159,-444.5 153,-444.5 153,-444.5 102,-444.5 102,-444.5 96,-444.5 90,-438.5 90,-432.5 90,-432.5 90,-420.5 90,-420.5 90,-414.5 96,-408.5 102,-408.5"/>
<text text-anchor="middle" x="127.5" y="-422.8" font-family="Times,serif" font-size="14.00">0:0 &#45; 0:0</text>
</g>
<!-- n19&#45;&gt;x0 -->
<g id="edge25" class="edge">
<title>n19:e&#45;&gt;x0:w</title>
<path fill="none" stroke="black" d="M54,-274.5C119.49,-274.5 31.67,-409.77 79.8,-425.09"/>
<polygon fill="black" stroke="black" points="79.62,-428.6 90,-426.5 80.57,-421.67 79.62,-428.6"/>
</g>
<!-- x2 -->
<g id="node11" class="node">
<title>x2</title>
<path fill="none" stroke="black" d="M102,-353.5C102,-353.5 153,-353.5 153,-353.5 159,-353.5 165,-359.5 165,-365.5 165,-365.5 165,-377.5 165,-377.5 165,-383.5 159,-389.5 153,-389.5 153,-389.5 102,-389.5 102,-389.5 96,-389.5 90,-383.5 90,-377.5 90,-377.5 90,-365.5 90,-365.5 90,-359.5 96,-353.5 102,-353.5"/>
<text text-anchor="middle" x="127.5" y="-367.8" font-family="Times,serif" font-size="14.00">0:0 &#45; 0:0</text>
</g>
<!-- n19&#45;&gt;x2 -->
<g id="edge26" class="edge">
<title>n19:e&#45;&gt;x2:w</title>
<path fill="none" stroke="black" d="M54,-274.5C95.85,-274.5 53.25,-354.85 79.93,-369.29"/>
<polygon fill="black" stroke="black" points="79.48,-372.78 90,-371.5 80.98,-365.94 79.48,-372.78"/>
</g>
<!-- x4 -->
<g id="node17" class="node">
<title>x4</title>
<path fill="none" stroke="black" d="M102,-188.5C102,-188.5 153,-188.5 153,-188.5 159,-188.5 165,-194.5 165,-200.5 165,-200.5 165,-212.5 165,-212.5 165,-218.5 159,-224.5 153,-224.5 153,-224.5 102,-224.5 102,-224.5 96,-224.5 90,-218.5 90,-212.5 90,-212.5 90,-200.5 90,-200.5 90,-194.5 96,-188.5 102,-188.5"/>
<text text-anchor="middle" x="127.5" y="-202.8" font-family="Times,serif" font-size="14.00">1:1 &#45; 0:0</text>
</g>
<!-- n19&#45;&gt;x4 -->
<g id="edge27" class="edge">
<title>n19:e&#45;&gt;x4:w</title>
<path fill="none" stroke="black" d="M54,-274.5C83.92,-274.5 62.86,-222.44 80.04,-209.42"/>
<polygon fill="black" stroke="black" points="81.39,-212.67 90,-206.5 79.42,-205.96 81.39,-212.67"/>
</g>
<!-- x6 -->
<g id="node21" class="node">
<title>x6</title>
<path fill="none" stroke="black" d="M102,-133.5C102,-133.5 153,-133.5 153,-133.5 159,-133.5 165,-139.5 165,-145.5 165,-145.5 165,-157.5 165,-157.5 165,-163.5 159,-169.5 153,-169.5 153,-169.5 102,-169.5 102,-169.5 96,-169.5 90,-163.5 90,-157.5 90,-157.5 90,-145.5 90,-145.5 90,-139.5 96,-133.5 102,-133.5"/>
<text text-anchor="middle" x="127.5" y="-147.8" font-family="Times,serif" font-size="14.00">1:1 &#45; 0:0</text>
</g>
<!-- n19&#45;&gt;x6 -->
<g id="edge28" class="edge">
<title>n19:e&#45;&gt;x6:w</title>
<path fill="none" stroke="black" d="M54,-274.5C106.96,-274.5 43.33,-168.19 79.89,-153.24"/>
<polygon fill="black" stroke="black" points="80.74,-156.64 90,-151.5 79.55,-149.75 80.74,-156.64"/>
</g>
<!-- n20 -->
<g id="node2" class="node">
<title>n20</title>
<polygon fill="none" stroke="black" points="54,-185.04 54,-199.96 38.18,-210.5 15.82,-210.5 0,-199.96 0,-185.04 15.82,-174.5 38.18,-174.5 54,-185.04"/>
<text text-anchor="middle" x="27" y="-188.8" font-family="Times,serif" font-size="14.00">b</text>
</g>
<!-- x1 -->
<g id="node8" class="node">
<title>x1</title>
<path fill="none" stroke="black" d="M102,-298.5C102,-298.5 153,-298.5 153,-298.5 159,-298.5 165,-304.5 165,-310.5 165,-310.5 165,-322.5 165,-322.5 165,-328.5 159,-334.5 153,-334.5 153,-334.5 102,-334.5 102,-334.5 96,-334.5 90,-328.5 90,-322.5 90,-322.5 90,-310.5 90,-310.5 90,-304.5 96,-298.5 102,-298.5"/>
<text text-anchor="middle" x="127.5" y="-312.8" font-family="Times,serif" font-size="14.00">0:0 &#45; 0:0</text>
</g>
<!-- n20&#45;&gt;x1 -->
<g id="edge32" class="edge">
<title>n20:e&#45;&gt;x1:w</title>
<path fill="none" stroke="black" d="M54,-192.5C107.35,-192.5 43.02,-299.68 79.82,-314.75"/>
<polygon fill="black" stroke="black" points="79.55,-318.25 90,-316.5 80.74,-311.35 79.55,-318.25"/>
</g>
<!-- x3 -->
<g id="node12" class="node">
<title>x3</title>
<path fill="none" stroke="black" d="M102,-243.5C102,-243.5 153,-243.5 153,-243.5 159,-243.5 165,-249.5 165,-255.5 165,-255.5 165,-267.5 165,-267.5 165,-273.5 159,-279.5 153,-279.5 153,-279.5 102,-279.5 102,-279.5 96,-279.5 90,-273.5 90,-267.5 90,-267.5 90,-255.5 90,-255.5 90,-249.5 96,-243.5 102,-243.5"/>
<text text-anchor="middle" x="127.5" y="-257.8" font-family="Times,serif" font-size="14.00">0:0 &#45; 0:0</text>
</g>
<!-- n20&#45;&gt;x3 -->
<g id="edge33" class="edge">
<title>n20:e&#45;&gt;x3:w</title>
<path fill="none" stroke="black" d="M54,-192.5C84.27,-192.5 62.65,-245.33 79.94,-258.54"/>
<polygon fill="black" stroke="black" points="79.42,-262.03 90,-261.5 81.4,-255.32 79.42,-262.03"/>
</g>
<!-- x5 -->
<g id="node18" class="node">
<title>x5</title>
<path fill="none" stroke="black" d="M102,-78.5C102,-78.5 153,-78.5 153,-78.5 159,-78.5 165,-84.5 165,-90.5 165,-90.5 165,-102.5 165,-102.5 165,-108.5 159,-114.5 153,-114.5 153,-114.5 102,-114.5 102,-114.5 96,-114.5 90,-108.5 90,-102.5 90,-102.5 90,-90.5 90,-90.5 90,-84.5 96,-78.5 102,-78.5"/>
<text text-anchor="middle" x="127.5" y="-92.8" font-family="Times,serif" font-size="14.00">1:1 &#45; 0:0</text>
</g>
<!-- n20&#45;&gt;x5 -->
<g id="edge34" class="edge">
<title>n20:e&#45;&gt;x5:w</title>
<path fill="none" stroke="black" d="M54,-192.5C95.47,-192.5 53.53,-112.98 80.01,-98.69"/>
<polygon fill="black" stroke="black" points="80.98,-102.06 90,-96.5 79.48,-95.22 80.98,-102.06"/>
</g>
<!-- x7 -->
<g id="node22" class="node">
<title>x7</title>
<path fill="none" stroke="black" d="M102,-23.5C102,-23.5 153,-23.5 153,-23.5 159,-23.5 165,-29.5 165,-35.5 165,-35.5 165,-47.5 165,-47.5 165,-53.5 159,-59.5 153,-59.5 153,-59.5 102,-59.5 102,-59.5 96,-59.5 90,-53.5 90,-47.5 90,-47.5 90,-35.5 90,-35.5 90,-29.5 96,-23.5 102,-23.5"/>
<text text-anchor="middle" x="127.5" y="-37.8" font-family="Times,serif" font-size="14.00">1:1 &#45; 0:0</text>
</g>
<!-- n20&#45;&gt;x7 -->
<g id="edge35" class="edge">
<title>n20:e&#45;&gt;x7:w</title>
<path fill="none" stroke="black" d="M54,-192.5C119.08,-192.5 32.01,-58.12 79.86,-42.9"/>
<polygon fill="black" stroke="black" points="80.57,-46.33 90,-41.5 79.62,-39.4 80.57,-46.33"/>
</g>
<!-- n21 -->
<g id="node3" class="node">
<title>n21</title>
<polygon fill="none" stroke="black" points="54,-485.04 54,-499.96 38.18,-510.5 15.82,-510.5 0,-499.96 0,-485.04 15.82,-474.5 38.18,-474.5 54,-485.04"/>
<text text-anchor="middle" x="27" y="-488.8" font-family="Times,serif" font-size="14.00">c</text>
</g>
<!-- c25 -->
<g id="node5" class="node">
<title>c25</title>
<polygon fill="none" stroke="black" points="208,-444.5 208,-482.5 331,-482.5 331,-444.5 208,-444.5"/>
<text text-anchor="middle" x="221" y="-459.8" font-family="Times,serif" font-size="14.00">A</text>
<polyline fill="none" stroke="black" points="234,-444.5 234,-482.5 "/>
<text text-anchor="middle" x="269.5" y="-467.3" font-family="Times,serif" font-size="14.00">$103</text>
<text text-anchor="middle" x="269.5" y="-452.3" font-family="Times,serif" font-size="14.00">$_NOT_</text>
<polyline fill="none" stroke="black" points="305,-444.5 305,-482.5 "/>
<text text-anchor="middle" x="318" y="-459.8" font-family="Times,serif" font-size="14.00">Y</text>
</g>
<!-- n21&#45;&gt;c25 -->
<g id="edge36" class="edge">
<title>n21:e&#45;&gt;c25:w</title>
<path fill="none" stroke="black" d="M54,-492.5C119.49,-492.5 135.89,-466.37 196.4,-463.72"/>
<polygon fill="black" stroke="black" points="196.58,-467.21 206.5,-463.5 196.43,-460.22 196.58,-467.21"/>
</g>
<!-- c42 -->
<g id="node30" class="node">
<title>c42</title>
<polygon fill="none" stroke="black" points="711.5,-408.5 711.5,-454.5 837.5,-454.5 837.5,-408.5 711.5,-408.5"/>
<text text-anchor="middle" x="725" y="-439.3" font-family="Times,serif" font-size="14.00">A</text>
<polyline fill="none" stroke="black" points="711.5,-431.5 738.5,-431.5 "/>
<text text-anchor="middle" x="725" y="-416.3" font-family="Times,serif" font-size="14.00">B</text>
<polyline fill="none" stroke="black" points="738.5,-408.5 738.5,-454.5 "/>
<text text-anchor="middle" x="775" y="-435.3" font-family="Times,serif" font-size="14.00">$119</text>
<text text-anchor="middle" x="775" y="-420.3" font-family="Times,serif" font-size="14.00">$_NOR_</text>
<polyline fill="none" stroke="black" points="811.5,-408.5 811.5,-454.5 "/>
<text text-anchor="middle" x="824.5" y="-427.8" font-family="Times,serif" font-size="14.00">Y</text>
</g>
<!-- n21&#45;&gt;c42 -->
<g id="edge37" class="edge">
<title>n21:e&#45;&gt;c42:w</title>
<path fill="none" stroke="black" d="M54,-492.5C149.71,-492.5 172.79,-511.5 268.5,-511.5 268.5,-511.5 268.5,-511.5 436.5,-511.5 558.54,-511.5 583.69,-447.17 700.43,-443.65"/>
<polygon fill="black" stroke="black" points="700.55,-447.15 710.5,-443.5 700.45,-440.15 700.55,-447.15"/>
</g>
<!-- n22 -->
<g id="node4" class="node">
<title>n22</title>
<polygon fill="none" stroke="black" points="1569.6,-331.04 1569.6,-345.96 1553.78,-356.5 1531.42,-356.5 1515.6,-345.96 1515.6,-331.04 1531.42,-320.5 1553.78,-320.5 1569.6,-331.04"/>
<text text-anchor="middle" x="1542.6" y="-334.8" font-family="Times,serif" font-size="14.00">o</text>
</g>
<!-- n17 -->
<g id="node36" class="node">
<title>n17</title>
<ellipse fill="black" stroke="black" cx="435.5" cy="-379.5" rx="1.8" ry="1.8"/>
</g>
<!-- c25&#45;&gt;n17 -->
<g id="edge21" class="edge">
<title>c25:e&#45;&gt;n17:w</title>
<path fill="none" stroke="black" d="M332.5,-463.5C369.82,-463.5 343.62,-412.18 374,-390.5 392.59,-377.23 402.96,-378.67 422.47,-379.32"/>
<polygon fill="black" stroke="black" points="422.44,-382.82 432.5,-379.5 422.57,-375.82 422.44,-382.82"/>
</g>
<!-- c27 -->
<g id="node6" class="node">
<title>c27</title>
<polygon fill="none" stroke="black" points="206.5,-379.5 206.5,-425.5 332.5,-425.5 332.5,-379.5 206.5,-379.5"/>
<text text-anchor="middle" x="220" y="-410.3" font-family="Times,serif" font-size="14.00">A</text>
<polyline fill="none" stroke="black" points="206.5,-402.5 233.5,-402.5 "/>
<text text-anchor="middle" x="220" y="-387.3" font-family="Times,serif" font-size="14.00">B</text>
<polyline fill="none" stroke="black" points="233.5,-379.5 233.5,-425.5 "/>
<text text-anchor="middle" x="270" y="-406.3" font-family="Times,serif" font-size="14.00">$104</text>
<text text-anchor="middle" x="270" y="-391.3" font-family="Times,serif" font-size="14.00">$_NOR_</text>
<polyline fill="none" stroke="black" points="306.5,-379.5 306.5,-425.5 "/>
<text text-anchor="middle" x="319.5" y="-398.8" font-family="Times,serif" font-size="14.00">Y</text>
</g>
<!-- c28 -->
<g id="node9" class="node">
<title>c28</title>
<polygon fill="none" stroke="black" points="374,-399.5 374,-437.5 497,-437.5 497,-399.5 374,-399.5"/>
<text text-anchor="middle" x="387" y="-414.8" font-family="Times,serif" font-size="14.00">A</text>
<polyline fill="none" stroke="black" points="400,-399.5 400,-437.5 "/>
<text text-anchor="middle" x="435.5" y="-422.3" font-family="Times,serif" font-size="14.00">$105</text>
<text text-anchor="middle" x="435.5" y="-407.3" font-family="Times,serif" font-size="14.00">$_NOT_</text>
<polyline fill="none" stroke="black" points="471,-399.5 471,-437.5 "/>
<text text-anchor="middle" x="484" y="-414.8" font-family="Times,serif" font-size="14.00">Y</text>
</g>
<!-- c27&#45;&gt;c28 -->
<g id="edge24" class="edge">
<title>c27:e&#45;&gt;c28:w</title>
<path fill="none" stroke="black" d="M333.5,-402.5C348.92,-402.5 353.19,-412.66 364.09,-416.79"/>
<polygon fill="black" stroke="black" points="363.55,-420.25 374,-418.5 364.74,-413.35 363.55,-420.25"/>
</g>
<!-- x0&#45;&gt;c27 -->
<g id="edge1" class="edge">
<title>x0:e&#45;&gt;c27:w</title>
<path fill="none" stroke="black" d="M176.91,-424.52C182.96,-422.33 187.27,-418.84 193.25,-416.61"/>
<polygon fill="none" stroke="black" points="176.84,-424.53 171.58,-429.46 165,-426.5 170.26,-421.57 176.84,-424.53"/>
<polygon fill="none" stroke="black" points="193.67,-416.53 198.91,-411.57 205.5,-414.5 200.26,-419.46 193.67,-416.53"/>
</g>
<!-- x1&#45;&gt;c27 -->
<g id="edge2" class="edge">
<title>x1:e&#45;&gt;c27:w</title>
<path fill="none" stroke="black" d="M176.47,-320.07C191.77,-332.54 178.77,-374.11 193.87,-386.79"/>
<polygon fill="none" stroke="black" points="176.46,-320.07 169.54,-322.1 165,-316.5 171.92,-314.46 176.46,-320.07"/>
<polygon fill="none" stroke="black" points="194.07,-386.86 201,-384.87 205.5,-390.5 198.57,-392.49 194.07,-386.86"/>
</g>
<!-- n1 -->
<g id="node35" class="node">
<title>n1</title>
<ellipse fill="black" stroke="black" cx="601.5" cy="-418.5" rx="1.8" ry="1.8"/>
</g>
<!-- c28&#45;&gt;n1 -->
<g id="edge11" class="edge">
<title>c28:e&#45;&gt;n1:w</title>
<path fill="none" stroke="black" d="M497,-418.5C538.41,-418.5 551.31,-418.5 588.04,-418.5"/>
<polygon fill="black" stroke="black" points="588.5,-422 598.5,-418.5 588.5,-415 588.5,-422"/>
</g>
<!-- c29 -->
<g id="node10" class="node">
<title>c29</title>
<polygon fill="none" stroke="black" points="201,-293.5 201,-339.5 338,-339.5 338,-293.5 201,-293.5"/>
<text text-anchor="middle" x="214.5" y="-324.3" font-family="Times,serif" font-size="14.00">A</text>
<polyline fill="none" stroke="black" points="201,-316.5 228,-316.5 "/>
<text text-anchor="middle" x="214.5" y="-301.3" font-family="Times,serif" font-size="14.00">B</text>
<polyline fill="none" stroke="black" points="228,-293.5 228,-339.5 "/>
<text text-anchor="middle" x="270" y="-320.3" font-family="Times,serif" font-size="14.00">$106</text>
<text text-anchor="middle" x="270" y="-305.3" font-family="Times,serif" font-size="14.00">$_NAND_</text>
<polyline fill="none" stroke="black" points="312,-293.5 312,-339.5 "/>
<text text-anchor="middle" x="325" y="-312.8" font-family="Times,serif" font-size="14.00">Y</text>
</g>
<!-- n2 -->
<g id="node37" class="node">
<title>n2</title>
<ellipse fill="black" stroke="black" cx="435.5" cy="-316.5" rx="1.8" ry="1.8"/>
</g>
<!-- c29&#45;&gt;n2 -->
<g id="edge29" class="edge">
<title>c29:e&#45;&gt;n2:w</title>
<path fill="none" stroke="black" d="M338,-316.5C376.39,-316.5 388.46,-316.5 422.33,-316.5"/>
<polygon fill="black" stroke="black" points="422.5,-320 432.5,-316.5 422.5,-313 422.5,-320"/>
</g>
<!-- x2&#45;&gt;c29 -->
<g id="edge3" class="edge">
<title>x2:e&#45;&gt;c29:w</title>
<path fill="none" stroke="black" d="M176.32,-366.57C183.29,-358.27 182.73,-341.63 189.72,-333.38"/>
<polygon fill="none" stroke="black" points="176,-366.71 172.1,-372.77 165,-371.5 168.9,-365.44 176,-366.71"/>
<polygon fill="none" stroke="black" points="189.99,-333.26 193.91,-327.21 201,-328.5 197.08,-334.55 189.99,-333.26"/>
</g>
<!-- x3&#45;&gt;c29 -->
<g id="edge4" class="edge">
<title>x3:e&#45;&gt;c29:w</title>
<path fill="none" stroke="black" d="M176.32,-266.43C183.29,-274.73 182.73,-291.37 189.72,-299.62"/>
<polygon fill="none" stroke="black" points="176,-266.29 168.9,-267.56 165,-261.5 172.1,-260.23 176,-266.29"/>
<polygon fill="none" stroke="black" points="189.99,-299.74 197.08,-298.45 201,-304.5 193.91,-305.79 189.99,-299.74"/>
</g>
<!-- c30 -->
<g id="node13" class="node">
<title>c30</title>
<polygon fill="none" stroke="black" points="533,-285.5 533,-331.5 670,-331.5 670,-285.5 533,-285.5"/>
<text text-anchor="middle" x="546.5" y="-316.3" font-family="Times,serif" font-size="14.00">A</text>
<polyline fill="none" stroke="black" points="533,-308.5 560,-308.5 "/>
<text text-anchor="middle" x="546.5" y="-293.3" font-family="Times,serif" font-size="14.00">B</text>
<polyline fill="none" stroke="black" points="560,-285.5 560,-331.5 "/>
<text text-anchor="middle" x="602" y="-312.3" font-family="Times,serif" font-size="14.00">$107</text>
<text text-anchor="middle" x="602" y="-297.3" font-family="Times,serif" font-size="14.00">$_NAND_</text>
<polyline fill="none" stroke="black" points="644,-285.5 644,-331.5 "/>
<text text-anchor="middle" x="657" y="-304.8" font-family="Times,serif" font-size="14.00">Y</text>
</g>
<!-- c31 -->
<g id="node14" class="node">
<title>c31</title>
<polygon fill="none" stroke="black" points="706,-297.5 706,-343.5 843,-343.5 843,-297.5 706,-297.5"/>
<text text-anchor="middle" x="719.5" y="-328.3" font-family="Times,serif" font-size="14.00">A</text>
<polyline fill="none" stroke="black" points="706,-320.5 733,-320.5 "/>
<text text-anchor="middle" x="719.5" y="-305.3" font-family="Times,serif" font-size="14.00">B</text>
<polyline fill="none" stroke="black" points="733,-297.5 733,-343.5 "/>
<text text-anchor="middle" x="775" y="-324.3" font-family="Times,serif" font-size="14.00">$108</text>
<text text-anchor="middle" x="775" y="-309.3" font-family="Times,serif" font-size="14.00">$_NAND_</text>
<polyline fill="none" stroke="black" points="817,-297.5 817,-343.5 "/>
<text text-anchor="middle" x="830" y="-316.8" font-family="Times,serif" font-size="14.00">Y</text>
</g>
<!-- c30&#45;&gt;c31 -->
<g id="edge40" class="edge">
<title>c30:e&#45;&gt;c31:w</title>
<path fill="none" stroke="black" d="M670,-308.5C682,-308.5 687.25,-308.5 695.88,-308.5"/>
<polygon fill="black" stroke="black" points="696,-312 706,-308.5 696,-305 696,-312"/>
</g>
<!-- n4 -->
<g id="node38" class="node">
<title>n4</title>
<ellipse fill="black" stroke="black" cx="880.8" cy="-319.5" rx="1.8" ry="1.8"/>
</g>
<!-- c31&#45;&gt;n4 -->
<g id="edge41" class="edge">
<title>c31:e&#45;&gt;n4:w</title>
<path fill="none" stroke="black" d="M843,-320.5C855,-320.5 860.25,-319.94 868.87,-319.66"/>
<polygon fill="black" stroke="black" points="869.06,-323.15 879,-319.5 868.95,-316.15 869.06,-323.15"/>
</g>
<!-- c32 -->
<g id="node15" class="node">
<title>c32</title>
<polygon fill="none" stroke="black" points="920.1,-299.5 920.1,-337.5 1043.1,-337.5 1043.1,-299.5 920.1,-299.5"/>
<text text-anchor="middle" x="933.1" y="-314.8" font-family="Times,serif" font-size="14.00">A</text>
<polyline fill="none" stroke="black" points="946.1,-299.5 946.1,-337.5 "/>
<text text-anchor="middle" x="981.6" y="-322.3" font-family="Times,serif" font-size="14.00">$109</text>
<text text-anchor="middle" x="981.6" y="-307.3" font-family="Times,serif" font-size="14.00">$_NOT_</text>
<polyline fill="none" stroke="black" points="1017.1,-299.5 1017.1,-337.5 "/>
<text text-anchor="middle" x="1030.1" y="-314.8" font-family="Times,serif" font-size="14.00">Y</text>
</g>
<!-- c40 -->
<g id="node27" class="node">
<title>c40</title>
<polygon fill="none" stroke="black" points="1080.6,-223.5 1080.6,-269.5 1206.6,-269.5 1206.6,-223.5 1080.6,-223.5"/>
<text text-anchor="middle" x="1094.1" y="-254.3" font-family="Times,serif" font-size="14.00">A</text>
<polyline fill="none" stroke="black" points="1080.6,-246.5 1107.6,-246.5 "/>
<text text-anchor="middle" x="1094.1" y="-231.3" font-family="Times,serif" font-size="14.00">B</text>
<polyline fill="none" stroke="black" points="1107.6,-223.5 1107.6,-269.5 "/>
<text text-anchor="middle" x="1144.1" y="-250.3" font-family="Times,serif" font-size="14.00">$117</text>
<text text-anchor="middle" x="1144.1" y="-235.3" font-family="Times,serif" font-size="14.00">$_NOR_</text>
<polyline fill="none" stroke="black" points="1180.6,-223.5 1180.6,-269.5 "/>
<text text-anchor="middle" x="1193.6" y="-242.8" font-family="Times,serif" font-size="14.00">Y</text>
</g>
<!-- c32&#45;&gt;c40 -->
<g id="edge45" class="edge">
<title>c32:e&#45;&gt;c40:w</title>
<path fill="none" stroke="black" d="M1044.6,-318.5C1071.57,-318.5 1055.45,-273.38 1070.97,-261.39"/>
<polygon fill="black" stroke="black" points="1072.03,-264.73 1080.6,-258.5 1070.02,-258.03 1072.03,-264.73"/>
</g>
<!-- c33 -->
<g id="node16" class="node">
<title>c33</title>
<polygon fill="none" stroke="black" points="206.5,-171.5 206.5,-217.5 332.5,-217.5 332.5,-171.5 206.5,-171.5"/>
<text text-anchor="middle" x="220" y="-202.3" font-family="Times,serif" font-size="14.00">A</text>
<polyline fill="none" stroke="black" points="206.5,-194.5 233.5,-194.5 "/>
<text text-anchor="middle" x="220" y="-179.3" font-family="Times,serif" font-size="14.00">B</text>
<polyline fill="none" stroke="black" points="233.5,-171.5 233.5,-217.5 "/>
<text text-anchor="middle" x="270" y="-198.3" font-family="Times,serif" font-size="14.00">$110</text>
<text text-anchor="middle" x="270" y="-183.3" font-family="Times,serif" font-size="14.00">$_NOR_</text>
<polyline fill="none" stroke="black" points="306.5,-171.5 306.5,-217.5 "/>
<text text-anchor="middle" x="319.5" y="-190.8" font-family="Times,serif" font-size="14.00">Y</text>
</g>
<!-- n6 -->
<g id="node39" class="node">
<title>n6</title>
<ellipse fill="black" stroke="black" cx="435.5" cy="-199.5" rx="1.8" ry="1.8"/>
</g>
<!-- c33&#45;&gt;n6 -->
<g id="edge46" class="edge">
<title>c33:e&#45;&gt;n6:w</title>
<path fill="none" stroke="black" d="M333.5,-194.5C373.94,-194.5 386.43,-198.71 422.29,-199.4"/>
<polygon fill="black" stroke="black" points="422.47,-202.91 432.5,-199.5 422.53,-195.91 422.47,-202.91"/>
</g>
<!-- x4&#45;&gt;c33 -->
<g id="edge5" class="edge">
<title>x4:e&#45;&gt;c33:w</title>
<path fill="none" stroke="black" d="M177.29,-206.5C183.03,-206.5 187.5,-206.5 193.25,-206.5"/>
<polygon fill="none" stroke="black" points="177,-206.5 171,-210.5 165,-206.5 171,-202.5 177,-206.5"/>
<polygon fill="none" stroke="black" points="193.5,-206.5 199.5,-202.5 205.5,-206.5 199.5,-210.5 193.5,-206.5"/>
</g>
<!-- x5&#45;&gt;c33 -->
<g id="edge6" class="edge">
<title>x5:e&#45;&gt;c33:w</title>
<path fill="none" stroke="black" d="M176.58,-99.77C195.26,-113.39 175.24,-165.6 193.92,-179.23"/>
<polygon fill="none" stroke="black" points="176.55,-99.76 169.69,-101.98 165,-96.5 171.86,-94.28 176.55,-99.76"/>
<polygon fill="none" stroke="black" points="193.95,-179.24 200.81,-177.02 205.5,-182.5 198.64,-184.72 193.95,-179.24"/>
</g>
<!-- c34 -->
<g id="node19" class="node">
<title>c34</title>
<polygon fill="none" stroke="black" points="540,-228.5 540,-266.5 663,-266.5 663,-228.5 540,-228.5"/>
<text text-anchor="middle" x="553" y="-243.8" font-family="Times,serif" font-size="14.00">A</text>
<polyline fill="none" stroke="black" points="566,-228.5 566,-266.5 "/>
<text text-anchor="middle" x="601.5" y="-251.3" font-family="Times,serif" font-size="14.00">$111</text>
<text text-anchor="middle" x="601.5" y="-236.3" font-family="Times,serif" font-size="14.00">$_NOT_</text>
<polyline fill="none" stroke="black" points="637,-228.5 637,-266.5 "/>
<text text-anchor="middle" x="650" y="-243.8" font-family="Times,serif" font-size="14.00">Y</text>
</g>
<!-- c37 -->
<g id="node24" class="node">
<title>c37</title>
<polygon fill="none" stroke="black" points="706,-217.5 706,-263.5 843,-263.5 843,-217.5 706,-217.5"/>
<text text-anchor="middle" x="719.5" y="-248.3" font-family="Times,serif" font-size="14.00">A</text>
<polyline fill="none" stroke="black" points="706,-240.5 733,-240.5 "/>
<text text-anchor="middle" x="719.5" y="-225.3" font-family="Times,serif" font-size="14.00">B</text>
<polyline fill="none" stroke="black" points="733,-217.5 733,-263.5 "/>
<text text-anchor="middle" x="775" y="-244.3" font-family="Times,serif" font-size="14.00">$114</text>
<text text-anchor="middle" x="775" y="-229.3" font-family="Times,serif" font-size="14.00">$_NAND_</text>
<polyline fill="none" stroke="black" points="817,-217.5 817,-263.5 "/>
<text text-anchor="middle" x="830" y="-236.8" font-family="Times,serif" font-size="14.00">Y</text>
</g>
<!-- c34&#45;&gt;c37 -->
<g id="edge49" class="edge">
<title>c34:e&#45;&gt;c37:w</title>
<path fill="none" stroke="black" d="M664.5,-247.5C679.16,-247.5 684.96,-250.61 695.88,-251.93"/>
<polygon fill="black" stroke="black" points="695.82,-255.43 706,-252.5 696.21,-248.44 695.82,-255.43"/>
</g>
<!-- c35 -->
<g id="node20" class="node">
<title>c35</title>
<polygon fill="none" stroke="black" points="201,-100.5 201,-146.5 338,-146.5 338,-100.5 201,-100.5"/>
<text text-anchor="middle" x="214.5" y="-131.3" font-family="Times,serif" font-size="14.00">A</text>
<polyline fill="none" stroke="black" points="201,-123.5 228,-123.5 "/>
<text text-anchor="middle" x="214.5" y="-108.3" font-family="Times,serif" font-size="14.00">B</text>
<polyline fill="none" stroke="black" points="228,-100.5 228,-146.5 "/>
<text text-anchor="middle" x="270" y="-127.3" font-family="Times,serif" font-size="14.00">$112</text>
<text text-anchor="middle" x="270" y="-112.3" font-family="Times,serif" font-size="14.00">$_NAND_</text>
<polyline fill="none" stroke="black" points="312,-100.5 312,-146.5 "/>
<text text-anchor="middle" x="325" y="-119.8" font-family="Times,serif" font-size="14.00">Y</text>
</g>
<!-- n8 -->
<g id="node40" class="node">
<title>n8</title>
<ellipse fill="black" stroke="black" cx="435.5" cy="-123.5" rx="1.8" ry="1.8"/>
</g>
<!-- c35&#45;&gt;n8 -->
<g id="edge50" class="edge">
<title>c35:e&#45;&gt;n8:w</title>
<path fill="none" stroke="black" d="M338,-123.5C376.39,-123.5 388.46,-123.5 422.33,-123.5"/>
<polygon fill="black" stroke="black" points="422.5,-127 432.5,-123.5 422.5,-120 422.5,-127"/>
</g>
<!-- x6&#45;&gt;c35 -->
<g id="edge7" class="edge">
<title>x6:e&#45;&gt;c35:w</title>
<path fill="none" stroke="black" d="M176.84,-148.26C181.36,-145.49 184.64,-141.51 189.17,-138.73"/>
<polygon fill="none" stroke="black" points="176.57,-148.33 171.84,-153.78 165,-151.5 169.73,-146.06 176.57,-148.33"/>
<polygon fill="none" stroke="black" points="189.42,-138.66 194.16,-133.22 201,-135.5 196.27,-140.94 189.42,-138.66"/>
</g>
<!-- x7&#45;&gt;c35 -->
<g id="edge8" class="edge">
<title>x7:e&#45;&gt;c35:w</title>
<path fill="none" stroke="black" d="M176.47,-45.67C188.85,-58.15 177.12,-95.11 189.64,-107.44"/>
<polygon fill="none" stroke="black" points="176.28,-45.6 169.27,-47.31 165,-41.5 172.01,-39.79 176.28,-45.6"/>
<polygon fill="none" stroke="black" points="189.7,-107.46 196.7,-105.71 201,-111.5 194,-113.25 189.7,-107.46"/>
</g>
<!-- c36 -->
<g id="node23" class="node">
<title>c36</title>
<polygon fill="none" stroke="black" points="540,-94.5 540,-132.5 663,-132.5 663,-94.5 540,-94.5"/>
<text text-anchor="middle" x="553" y="-109.8" font-family="Times,serif" font-size="14.00">A</text>
<polyline fill="none" stroke="black" points="566,-94.5 566,-132.5 "/>
<text text-anchor="middle" x="601.5" y="-117.3" font-family="Times,serif" font-size="14.00">$113</text>
<text text-anchor="middle" x="601.5" y="-102.3" font-family="Times,serif" font-size="14.00">$_NOT_</text>
<polyline fill="none" stroke="black" points="637,-94.5 637,-132.5 "/>
<text text-anchor="middle" x="650" y="-109.8" font-family="Times,serif" font-size="14.00">Y</text>
</g>
<!-- c38 -->
<g id="node25" class="node">
<title>c38</title>
<polygon fill="none" stroke="black" points="711.5,-152.5 711.5,-198.5 837.5,-198.5 837.5,-152.5 711.5,-152.5"/>
<text text-anchor="middle" x="725" y="-183.3" font-family="Times,serif" font-size="14.00">A</text>
<polyline fill="none" stroke="black" points="711.5,-175.5 738.5,-175.5 "/>
<text text-anchor="middle" x="725" y="-160.3" font-family="Times,serif" font-size="14.00">B</text>
<polyline fill="none" stroke="black" points="738.5,-152.5 738.5,-198.5 "/>
<text text-anchor="middle" x="775" y="-179.3" font-family="Times,serif" font-size="14.00">$115</text>
<text text-anchor="middle" x="775" y="-164.3" font-family="Times,serif" font-size="14.00">$_NOR_</text>
<polyline fill="none" stroke="black" points="811.5,-152.5 811.5,-198.5 "/>
<text text-anchor="middle" x="824.5" y="-171.8" font-family="Times,serif" font-size="14.00">Y</text>
</g>
<!-- c36&#45;&gt;c38 -->
<g id="edge53" class="edge">
<title>c36:e&#45;&gt;c38:w</title>
<path fill="none" stroke="black" d="M664.5,-113.5C690.69,-113.5 683.34,-151.1 700.62,-161.09"/>
<polygon fill="black" stroke="black" points="699.96,-164.53 710.5,-163.5 701.62,-157.73 699.96,-164.53"/>
</g>
<!-- c39 -->
<g id="node26" class="node">
<title>c39</title>
<polygon fill="none" stroke="black" points="918.6,-234.5 918.6,-280.5 1044.6,-280.5 1044.6,-234.5 918.6,-234.5"/>
<text text-anchor="middle" x="932.1" y="-265.3" font-family="Times,serif" font-size="14.00">A</text>
<polyline fill="none" stroke="black" points="918.6,-257.5 945.6,-257.5 "/>
<text text-anchor="middle" x="932.1" y="-242.3" font-family="Times,serif" font-size="14.00">B</text>
<polyline fill="none" stroke="black" points="945.6,-234.5 945.6,-280.5 "/>
<text text-anchor="middle" x="982.1" y="-261.3" font-family="Times,serif" font-size="14.00">$116</text>
<text text-anchor="middle" x="982.1" y="-246.3" font-family="Times,serif" font-size="14.00">$_NOR_</text>
<polyline fill="none" stroke="black" points="1018.6,-234.5 1018.6,-280.5 "/>
<text text-anchor="middle" x="1031.6" y="-253.8" font-family="Times,serif" font-size="14.00">Y</text>
</g>
<!-- c37&#45;&gt;c39 -->
<g id="edge14" class="edge">
<title>c37:e&#45;&gt;c39:w</title>
<path fill="none" stroke="black" d="M843,-240.5C872.99,-240.5 882.82,-244.47 908.4,-245.33"/>
<polygon fill="black" stroke="black" points="908.54,-248.84 918.6,-245.5 908.66,-241.84 908.54,-248.84"/>
</g>
<!-- c38&#45;&gt;c40 -->
<g id="edge15" class="edge">
<title>c38:e&#45;&gt;c40:w</title>
<path fill="none" stroke="black" d="M838.5,-175.5C932.76,-175.5 953.08,-202.96 1044.6,-225.5 1056.74,-228.49 1061.68,-232.12 1070.54,-233.7"/>
<polygon fill="black" stroke="black" points="1070.35,-237.19 1080.6,-234.5 1070.91,-230.22 1070.35,-237.19"/>
</g>
<!-- c41 -->
<g id="node28" class="node">
<title>c41</title>
<polygon fill="none" stroke="black" points="1242.6,-263.5 1242.6,-309.5 1368.6,-309.5 1368.6,-263.5 1242.6,-263.5"/>
<text text-anchor="middle" x="1256.1" y="-294.3" font-family="Times,serif" font-size="14.00">A</text>
<polyline fill="none" stroke="black" points="1242.6,-286.5 1269.6,-286.5 "/>
<text text-anchor="middle" x="1256.1" y="-271.3" font-family="Times,serif" font-size="14.00">B</text>
<polyline fill="none" stroke="black" points="1269.6,-263.5 1269.6,-309.5 "/>
<text text-anchor="middle" x="1306.1" y="-290.3" font-family="Times,serif" font-size="14.00">$118</text>
<text text-anchor="middle" x="1306.1" y="-275.3" font-family="Times,serif" font-size="14.00">$_NOR_</text>
<polyline fill="none" stroke="black" points="1342.6,-263.5 1342.6,-309.5 "/>
<text text-anchor="middle" x="1355.6" y="-282.8" font-family="Times,serif" font-size="14.00">Y</text>
</g>
<!-- c39&#45;&gt;c41 -->
<g id="edge16" class="edge">
<title>c39:e&#45;&gt;c41:w</title>
<path fill="none" stroke="black" d="M1044.6,-257.5C1063.35,-257.5 1062.88,-273.38 1080.6,-279.5 1145.77,-302.02 1167.94,-298.89 1232.34,-298.53"/>
<polygon fill="black" stroke="black" points="1232.61,-302.03 1242.6,-298.5 1232.59,-295.03 1232.61,-302.03"/>
</g>
<!-- c40&#45;&gt;c41 -->
<g id="edge17" class="edge">
<title>c40:e&#45;&gt;c41:w</title>
<path fill="none" stroke="black" d="M1206.6,-246.5C1222.75,-246.5 1223.15,-264.28 1232.9,-271.5"/>
<polygon fill="black" stroke="black" points="1232.01,-274.89 1242.6,-274.5 1234.08,-268.2 1232.01,-274.89"/>
</g>
<!-- x8 -->
<g id="node29" class="node">
<title>x8</title>
<path fill="none" stroke="black" d="M1416.6,-293.5C1416.6,-293.5 1467.6,-293.5 1467.6,-293.5 1473.6,-293.5 1479.6,-299.5 1479.6,-305.5 1479.6,-305.5 1479.6,-317.5 1479.6,-317.5 1479.6,-323.5 1473.6,-329.5 1467.6,-329.5 1467.6,-329.5 1416.6,-329.5 1416.6,-329.5 1410.6,-329.5 1404.6,-323.5 1404.6,-317.5 1404.6,-317.5 1404.6,-305.5 1404.6,-305.5 1404.6,-299.5 1410.6,-293.5 1416.6,-293.5"/>
<text text-anchor="middle" x="1442.1" y="-307.8" font-family="Times,serif" font-size="14.00">0:0 &#45; 1:1</text>
</g>
<!-- c41&#45;&gt;x8 -->
<g id="edge9" class="edge">
<title>c41:e&#45;&gt;x8:w</title>
<path fill="none" stroke="black" d="M1380.21,-290.85C1385.26,-295.44 1387.98,-302.63 1393.04,-307.2"/>
<polygon fill="none" stroke="black" points="1379.84,-290.71 1372.81,-292.35 1368.6,-286.5 1375.62,-284.86 1379.84,-290.71"/>
<polygon fill="none" stroke="black" points="1393.35,-307.31 1400.37,-305.66 1404.6,-311.5 1397.58,-313.15 1393.35,-307.31"/>
</g>
<!-- x8&#45;&gt;n22 -->
<g id="edge38" class="edge">
<title>x8:e&#45;&gt;n22:w</title>
<path fill="none" stroke="black" d="M1479.6,-311.5C1495.54,-311.5 1496.23,-328.65 1505.98,-335.61"/>
<polygon fill="black" stroke="black" points="1505.02,-338.98 1515.6,-338.5 1507.03,-332.27 1505.02,-338.98"/>
</g>
<!-- c45 -->
<g id="node33" class="node">
<title>c45</title>
<polygon fill="none" stroke="black" points="1080.6,-368.5 1080.6,-414.5 1206.6,-414.5 1206.6,-368.5 1080.6,-368.5"/>
<text text-anchor="middle" x="1094.1" y="-399.3" font-family="Times,serif" font-size="14.00">A</text>
<polyline fill="none" stroke="black" points="1080.6,-391.5 1107.6,-391.5 "/>
<text text-anchor="middle" x="1094.1" y="-376.3" font-family="Times,serif" font-size="14.00">B</text>
<polyline fill="none" stroke="black" points="1107.6,-368.5 1107.6,-414.5 "/>
<text text-anchor="middle" x="1144.1" y="-395.3" font-family="Times,serif" font-size="14.00">$122</text>
<text text-anchor="middle" x="1144.1" y="-380.3" font-family="Times,serif" font-size="14.00">$_NOR_</text>
<polyline fill="none" stroke="black" points="1180.6,-368.5 1180.6,-414.5 "/>
<text text-anchor="middle" x="1193.6" y="-387.8" font-family="Times,serif" font-size="14.00">Y</text>
</g>
<!-- c42&#45;&gt;c45 -->
<g id="edge18" class="edge">
<title>c42:e&#45;&gt;c45:w</title>
<path fill="none" stroke="black" d="M838.5,-431.5C930.49,-431.5 953.91,-427.92 1044.6,-412.5 1056.92,-410.4 1061.77,-406.32 1070.57,-404.46"/>
<polygon fill="black" stroke="black" points="1070.98,-407.94 1080.6,-403.5 1070.31,-400.97 1070.98,-407.94"/>
</g>
<!-- c43 -->
<g id="node31" class="node">
<title>c43</title>
<polygon fill="none" stroke="black" points="538.5,-350.5 538.5,-396.5 664.5,-396.5 664.5,-350.5 538.5,-350.5"/>
<text text-anchor="middle" x="552" y="-381.3" font-family="Times,serif" font-size="14.00">A</text>
<polyline fill="none" stroke="black" points="538.5,-373.5 565.5,-373.5 "/>
<text text-anchor="middle" x="552" y="-358.3" font-family="Times,serif" font-size="14.00">B</text>
<polyline fill="none" stroke="black" points="565.5,-350.5 565.5,-396.5 "/>
<text text-anchor="middle" x="602" y="-377.3" font-family="Times,serif" font-size="14.00">$120</text>
<text text-anchor="middle" x="602" y="-362.3" font-family="Times,serif" font-size="14.00">$_NOR_</text>
<polyline fill="none" stroke="black" points="638.5,-350.5 638.5,-396.5 "/>
<text text-anchor="middle" x="651.5" y="-369.8" font-family="Times,serif" font-size="14.00">Y</text>
</g>
<!-- c44 -->
<g id="node32" class="node">
<title>c44</title>
<polygon fill="none" stroke="black" points="918.6,-356.5 918.6,-402.5 1044.6,-402.5 1044.6,-356.5 918.6,-356.5"/>
<text text-anchor="middle" x="932.1" y="-387.3" font-family="Times,serif" font-size="14.00">A</text>
<polyline fill="none" stroke="black" points="918.6,-379.5 945.6,-379.5 "/>
<text text-anchor="middle" x="932.1" y="-364.3" font-family="Times,serif" font-size="14.00">B</text>
<polyline fill="none" stroke="black" points="945.6,-356.5 945.6,-402.5 "/>
<text text-anchor="middle" x="982.1" y="-383.3" font-family="Times,serif" font-size="14.00">$121</text>
<text text-anchor="middle" x="982.1" y="-368.3" font-family="Times,serif" font-size="14.00">$_NOR_</text>
<polyline fill="none" stroke="black" points="1018.6,-356.5 1018.6,-402.5 "/>
<text text-anchor="middle" x="1031.6" y="-375.8" font-family="Times,serif" font-size="14.00">Y</text>
</g>
<!-- c43&#45;&gt;c44 -->
<g id="edge19" class="edge">
<title>c43:e&#45;&gt;c44:w</title>
<path fill="none" stroke="black" d="M665.5,-373.5C774.5,-373.5 804.24,-367.87 908.29,-367.52"/>
<polygon fill="black" stroke="black" points="908.61,-371.02 918.6,-367.5 908.59,-364.02 908.61,-371.02"/>
</g>
<!-- c44&#45;&gt;c45 -->
<g id="edge20" class="edge">
<title>c44:e&#45;&gt;c45:w</title>
<path fill="none" stroke="black" d="M1044.6,-379.5C1056.6,-379.5 1061.85,-379.5 1070.47,-379.5"/>
<polygon fill="black" stroke="black" points="1070.6,-383 1080.6,-379.5 1070.6,-376 1070.6,-383"/>
</g>
<!-- x9 -->
<g id="node34" class="node">
<title>x9</title>
<path fill="none" stroke="black" d="M1416.6,-360.5C1416.6,-360.5 1467.6,-360.5 1467.6,-360.5 1473.6,-360.5 1479.6,-366.5 1479.6,-372.5 1479.6,-372.5 1479.6,-384.5 1479.6,-384.5 1479.6,-390.5 1473.6,-396.5 1467.6,-396.5 1467.6,-396.5 1416.6,-396.5 1416.6,-396.5 1410.6,-396.5 1404.6,-390.5 1404.6,-384.5 1404.6,-384.5 1404.6,-372.5 1404.6,-372.5 1404.6,-366.5 1410.6,-360.5 1416.6,-360.5"/>
<text text-anchor="middle" x="1442.1" y="-374.8" font-family="Times,serif" font-size="14.00">0:0 &#45; 0:0</text>
</g>
<!-- c45&#45;&gt;x9 -->
<g id="edge10" class="edge">
<title>c45:e&#45;&gt;x9:w</title>
<path fill="none" stroke="black" d="M1219.06,-391.41C1293.1,-390.32 1318.17,-379.67 1392.27,-378.59"/>
<polygon fill="none" stroke="black" points="1218.6,-391.41 1212.63,-395.46 1206.6,-391.5 1212.57,-387.46 1218.6,-391.41"/>
<polygon fill="none" stroke="black" points="1392.6,-378.59 1398.57,-374.54 1404.6,-378.5 1398.63,-382.54 1392.6,-378.59"/>
</g>
<!-- x9&#45;&gt;n22 -->
<g id="edge39" class="edge">
<title>x9:e&#45;&gt;n22:w</title>
<path fill="none" stroke="black" d="M1479.6,-378.5C1499.41,-378.5 1494.69,-351.07 1506.07,-341.64"/>
<polygon fill="black" stroke="black" points="1507.2,-344.95 1515.6,-338.5 1505.01,-338.3 1507.2,-344.95"/>
</g>
<!-- n1&#45;&gt;c31 -->
<g id="edge12" class="edge">
<title>n1:e&#45;&gt;c31:w</title>
<path fill="none" stroke="black" d="M604.5,-418.5C634.1,-418.5 646.43,-424.4 670,-406.5 695.83,-386.88 675.4,-343.87 695.94,-334.38"/>
<polygon fill="black" stroke="black" points="696.81,-337.78 706,-332.5 695.53,-330.9 696.81,-337.78"/>
</g>
<!-- n1&#45;&gt;c42 -->
<g id="edge13" class="edge">
<title>n1:e&#45;&gt;c42:w</title>
<path fill="none" stroke="black" d="M604.5,-418.5C647.93,-418.5 661.33,-419.35 700.07,-419.48"/>
<polygon fill="black" stroke="black" points="700.49,-422.98 710.5,-419.5 700.51,-415.98 700.49,-422.98"/>
</g>
<!-- n17&#45;&gt;c30 -->
<g id="edge22" class="edge">
<title>n17:e&#45;&gt;c30:w</title>
<path fill="none" stroke="black" d="M438.5,-379.5C484.34,-379.5 483.86,-328.93 522.82,-321.43"/>
<polygon fill="black" stroke="black" points="523.36,-324.89 533,-320.5 522.72,-317.92 523.36,-324.89"/>
</g>
<!-- n17&#45;&gt;c43 -->
<g id="edge23" class="edge">
<title>n17:e&#45;&gt;c43:w</title>
<path fill="none" stroke="black" d="M438.5,-379.5C478.96,-379.5 491.42,-384.56 527.29,-385.39"/>
<polygon fill="black" stroke="black" points="527.46,-388.89 537.5,-385.5 527.54,-381.89 527.46,-388.89"/>
</g>
<!-- n2&#45;&gt;c30 -->
<g id="edge30" class="edge">
<title>n2:e&#45;&gt;c30:w</title>
<path fill="none" stroke="black" d="M438.5,-316.5C477.74,-316.5 488.33,-299.79 522.65,-296.92"/>
<polygon fill="black" stroke="black" points="523.15,-300.4 533,-296.5 522.87,-293.41 523.15,-300.4"/>
</g>
<!-- n2&#45;&gt;c43 -->
<g id="edge31" class="edge">
<title>n2:e&#45;&gt;c43:w</title>
<path fill="none" stroke="black" d="M438.5,-316.5C483.25,-316.5 488.57,-355.07 527.46,-360.79"/>
<polygon fill="black" stroke="black" points="527.28,-364.29 537.5,-361.5 527.77,-357.31 527.28,-364.29"/>
</g>
<!-- n4&#45;&gt;c32 -->
<g id="edge42" class="edge">
<title>n4:e&#45;&gt;c32:w</title>
<path fill="none" stroke="black" d="M882.6,-319.5C894.6,-319.5 899.85,-318.94 908.47,-318.66"/>
<polygon fill="black" stroke="black" points="908.66,-322.15 918.6,-318.5 908.55,-315.15 908.66,-322.15"/>
</g>
<!-- n4&#45;&gt;c39 -->
<g id="edge43" class="edge">
<title>n4:e&#45;&gt;c39:w</title>
<path fill="none" stroke="black" d="M882.6,-319.5C905.7,-319.5 895.95,-283.9 908.79,-272.78"/>
<polygon fill="black" stroke="black" points="910.23,-275.99 918.6,-269.5 908.01,-269.35 910.23,-275.99"/>
</g>
<!-- n4&#45;&gt;c44 -->
<g id="edge44" class="edge">
<title>n4:e&#45;&gt;c44:w</title>
<path fill="none" stroke="black" d="M882.6,-319.5C914.18,-319.5 890.18,-375.61 908.73,-388.77"/>
<polygon fill="black" stroke="black" points="908.03,-392.2 918.6,-391.5 909.9,-385.46 908.03,-392.2"/>
</g>
<!-- n6&#45;&gt;c34 -->
<g id="edge47" class="edge">
<title>n6:e&#45;&gt;c34:w</title>
<path fill="none" stroke="black" d="M438.5,-199.5C484.14,-199.5 488.73,-240.64 528.28,-246.75"/>
<polygon fill="black" stroke="black" points="528.27,-250.26 538.5,-247.5 528.78,-243.27 528.27,-250.26"/>
</g>
<!-- n6&#45;&gt;c38 -->
<g id="edge48" class="edge">
<title>n6:e&#45;&gt;c38:w</title>
<path fill="none" stroke="black" d="M438.5,-199.5C556.08,-199.5 587.72,-188.17 700.43,-187.53"/>
<polygon fill="black" stroke="black" points="700.51,-191.03 710.5,-187.5 700.49,-184.03 700.51,-191.03"/>
</g>
<!-- n8&#45;&gt;c36 -->
<g id="edge51" class="edge">
<title>n8:e&#45;&gt;c36:w</title>
<path fill="none" stroke="black" d="M438.5,-123.5C479.5,-123.5 491.85,-115.07 528.16,-113.69"/>
<polygon fill="black" stroke="black" points="528.57,-117.18 538.5,-113.5 528.44,-110.19 528.57,-117.18"/>
</g>
<!-- n8&#45;&gt;c37 -->
<g id="edge52" class="edge">
<title>n8:e&#45;&gt;c37:w</title>
<path fill="none" stroke="black" d="M438.5,-123.5C468,-123.5 644.04,-213.11 695.87,-226.77"/>
<polygon fill="black" stroke="black" points="695.55,-230.26 706,-228.5 696.73,-223.36 695.55,-230.26"/>
</g>
</g>
</svg>
