<?xml version="1.0" encoding="UTF-8" standalone="no"?>
<!DOCTYPE svg PUBLIC "-//W3C//DTD SVG 1.1//EN"
 "http://www.w3.org/Graphics/SVG/1.1/DTD/svg11.dtd">
<!-- Generated by graphviz version 2.43.0 (0)
 -->
<!-- Title: mult Pages: 1 -->
<svg width="960pt" height="183pt"
 viewBox="0.00 0.00 960.39 183.00" xmlns="http://www.w3.org/2000/svg" xmlns:xlink="http://www.w3.org/1999/xlink">
<g id="graph0" class="graph" transform="scale(1 1) rotate(0) translate(4 179)">
<title>mult</title>
<polygon fill="white" stroke="transparent" points="-4,4 -4,-179 956.39,-179 956.39,4 -4,4"/>
<text text-anchor="middle" x="476.19" y="-7.8" font-family="Times,serif" font-size="14.00">mult</text>
<!-- n2 -->
<g id="node1" class="node">
<title>n2</title>
<polygon fill="none" stroke="black" points="54,-87.54 54,-102.46 38.18,-113 15.82,-113 0,-102.46 0,-87.54 15.82,-77 38.18,-77 54,-87.54"/>
<text text-anchor="middle" x="27" y="-91.3" font-family="Times,serif" font-size="14.00">a</text>
</g>
<!-- c15 -->
<g id="node8" class="node">
<title>c15</title>
<polygon fill="none" stroke="black" points="133,-100 133,-146 253,-146 253,-100 133,-100"/>
<text text-anchor="middle" x="156.5" y="-130.8" font-family="Times,serif" font-size="14.00">CLK</text>
<polyline fill="none" stroke="black" points="133,-123 180,-123 "/>
<text text-anchor="middle" x="156.5" y="-107.8" font-family="Times,serif" font-size="14.00">D</text>
<polyline fill="none" stroke="black" points="180,-100 180,-146 "/>
<text text-anchor="middle" x="202.5" y="-126.8" font-family="Times,serif" font-size="14.00">$3</text>
<text text-anchor="middle" x="202.5" y="-111.8" font-family="Times,serif" font-size="14.00">$dff</text>
<polyline fill="none" stroke="black" points="225,-100 225,-146 "/>
<text text-anchor="middle" x="239" y="-119.3" font-family="Times,serif" font-size="14.00">Q</text>
</g>
<!-- n2&#45;&gt;c15 -->
<g id="edge2" class="edge">
<title>n2:e&#45;&gt;c15:w</title>
<path fill="none" stroke="black" stroke-width="3" d="M54,-95C86.19,-95 95.39,-107.92 122.91,-110.54"/>
<polygon fill="black" stroke="black" stroke-width="3" points="122.85,-114.04 133,-111 123.17,-107.05 122.85,-114.04"/>
<text text-anchor="middle" x="93.5" y="-112.8" font-family="Times,serif" font-size="14.00">&lt;16&gt;</text>
</g>
<!-- n3 -->
<g id="node2" class="node">
<title>n3</title>
<polygon fill="none" stroke="black" points="54,-33.54 54,-48.46 38.18,-59 15.82,-59 0,-48.46 0,-33.54 15.82,-23 38.18,-23 54,-33.54"/>
<text text-anchor="middle" x="27" y="-37.3" font-family="Times,serif" font-size="14.00">b</text>
</g>
<!-- c16 -->
<g id="node9" class="node">
<title>c16</title>
<polygon fill="none" stroke="black" points="133,-35 133,-81 253,-81 253,-35 133,-35"/>
<text text-anchor="middle" x="156.5" y="-65.8" font-family="Times,serif" font-size="14.00">CLK</text>
<polyline fill="none" stroke="black" points="133,-58 180,-58 "/>
<text text-anchor="middle" x="156.5" y="-42.8" font-family="Times,serif" font-size="14.00">D</text>
<polyline fill="none" stroke="black" points="180,-35 180,-81 "/>
<text text-anchor="middle" x="202.5" y="-61.8" font-family="Times,serif" font-size="14.00">$4</text>
<text text-anchor="middle" x="202.5" y="-46.8" font-family="Times,serif" font-size="14.00">$dff</text>
<polyline fill="none" stroke="black" points="225,-35 225,-81 "/>
<text text-anchor="middle" x="239" y="-54.3" font-family="Times,serif" font-size="14.00">Q</text>
</g>
<!-- n3&#45;&gt;c16 -->
<g id="edge3" class="edge">
<title>n3:e&#45;&gt;c16:w</title>
<path fill="none" stroke="black" stroke-width="3" d="M54,-41C85.47,-41 95.7,-45 122.69,-45.84"/>
<polygon fill="black" stroke="black" stroke-width="3" points="122.95,-49.35 133,-46 123.05,-42.35 122.95,-49.35"/>
<text text-anchor="middle" x="93.5" y="-49.8" font-family="Times,serif" font-size="14.00">&lt;16&gt;</text>
</g>
<!-- n4 -->
<g id="node3" class="node">
<title>n4</title>
<polygon fill="none" stroke="black" points="54,-142.54 54,-157.46 38.18,-168 15.82,-168 0,-157.46 0,-142.54 15.82,-132 38.18,-132 54,-142.54"/>
<text text-anchor="middle" x="27" y="-146.3" font-family="Times,serif" font-size="14.00">clk</text>
</g>
<!-- n4&#45;&gt;c15 -->
<g id="edge4" class="edge">
<title>n4:e&#45;&gt;c15:w</title>
<path fill="none" stroke="black" d="M54,-150C86.11,-150 95.44,-137.89 122.92,-135.43"/>
<polygon fill="black" stroke="black" points="123.16,-138.93 133,-135 122.86,-131.93 123.16,-138.93"/>
</g>
<!-- n4&#45;&gt;c16 -->
<g id="edge5" class="edge">
<title>n4:e&#45;&gt;c16:w</title>
<path fill="none" stroke="black" d="M54,-150C55.01,-150 114.35,-111.76 115,-111 124.7,-99.66 118.78,-82.27 123.61,-74.28"/>
<polygon fill="black" stroke="black" points="125.35,-77.33 133,-70 122.45,-70.96 125.35,-77.33"/>
</g>
<!-- c17 -->
<g id="node10" class="node">
<title>c17</title>
<polygon fill="none" stroke="black" points="697.11,-128 697.11,-174 817.11,-174 817.11,-128 697.11,-128"/>
<text text-anchor="middle" x="720.61" y="-158.8" font-family="Times,serif" font-size="14.00">CLK</text>
<polyline fill="none" stroke="black" points="697.11,-151 744.11,-151 "/>
<text text-anchor="middle" x="720.61" y="-135.8" font-family="Times,serif" font-size="14.00">D</text>
<polyline fill="none" stroke="black" points="744.11,-128 744.11,-174 "/>
<text text-anchor="middle" x="766.61" y="-154.8" font-family="Times,serif" font-size="14.00">$5</text>
<text text-anchor="middle" x="766.61" y="-139.8" font-family="Times,serif" font-size="14.00">$dff</text>
<polyline fill="none" stroke="black" points="789.11,-128 789.11,-174 "/>
<text text-anchor="middle" x="803.11" y="-147.3" font-family="Times,serif" font-size="14.00">Q</text>
</g>
<!-- n4&#45;&gt;c17 -->
<g id="edge6" class="edge">
<title>n4:e&#45;&gt;c17:w</title>
<path fill="none" stroke="black" d="M54,-150C62.43,-150 63.81,-154 72,-156 124.46,-168.8 138,-175 192,-175 192,-175 192,-175 566.11,-175 621.03,-175 636.78,-164.41 686.96,-163.13"/>
<polygon fill="black" stroke="black" points="687.15,-166.62 697.11,-163 687.06,-159.63 687.15,-166.62"/>
</g>
<!-- n5 -->
<g id="node4" class="node">
<title>n5</title>
<polygon fill="none" stroke="black" points="382.55,-141 332.78,-123 382.55,-105 432.32,-123 382.55,-141"/>
<text text-anchor="middle" x="382.55" y="-119.3" font-family="Times,serif" font-size="14.00">inp_a</text>
</g>
<!-- c11 -->
<g id="node7" class="node">
<title>c11</title>
<polygon fill="none" stroke="black" points="512.11,-88 512.11,-134 618.11,-134 618.11,-88 512.11,-88"/>
<text text-anchor="middle" x="525.61" y="-118.8" font-family="Times,serif" font-size="14.00">A</text>
<polyline fill="none" stroke="black" points="512.11,-111 539.11,-111 "/>
<text text-anchor="middle" x="525.61" y="-95.8" font-family="Times,serif" font-size="14.00">B</text>
<polyline fill="none" stroke="black" points="539.11,-88 539.11,-134 "/>
<text text-anchor="middle" x="565.61" y="-114.8" font-family="Times,serif" font-size="14.00">$2</text>
<text text-anchor="middle" x="565.61" y="-99.8" font-family="Times,serif" font-size="14.00">$mul</text>
<polyline fill="none" stroke="black" points="592.11,-88 592.11,-134 "/>
<text text-anchor="middle" x="605.11" y="-107.3" font-family="Times,serif" font-size="14.00">Y</text>
</g>
<!-- n5&#45;&gt;c11 -->
<g id="edge8" class="edge">
<title>n5:e&#45;&gt;c11:w</title>
<path fill="none" stroke="black" stroke-width="3" d="M433.11,-123C464.52,-123 474.85,-123 501.81,-123"/>
<polygon fill="black" stroke="black" stroke-width="3" points="502.11,-126.5 512.11,-123 502.11,-119.5 502.11,-126.5"/>
<text text-anchor="middle" x="472.61" y="-126.8" font-family="Times,serif" font-size="14.00">&lt;16&gt;</text>
</g>
<!-- n6 -->
<g id="node5" class="node">
<title>n6</title>
<polygon fill="none" stroke="black" points="382.55,-84 331.95,-66 382.55,-48 433.16,-66 382.55,-84"/>
<text text-anchor="middle" x="382.55" y="-62.3" font-family="Times,serif" font-size="14.00">inp_b</text>
</g>
<!-- n6&#45;&gt;c11 -->
<g id="edge10" class="edge">
<title>n6:e&#45;&gt;c11:w</title>
<path fill="none" stroke="black" stroke-width="3" d="M433.11,-66C467.44,-66 473.15,-92.87 501.9,-98.12"/>
<polygon fill="black" stroke="black" stroke-width="3" points="501.84,-101.63 512.11,-99 502.45,-94.65 501.84,-101.63"/>
<text text-anchor="middle" x="472.61" y="-98.8" font-family="Times,serif" font-size="14.00">&lt;16&gt;</text>
</g>
<!-- n7 -->
<g id="node6" class="node">
<title>n7</title>
<polygon fill="none" stroke="black" points="952.53,-143.54 952.53,-158.46 935.96,-169 912.53,-169 895.97,-158.46 895.97,-143.54 912.53,-133 935.96,-133 952.53,-143.54"/>
<text text-anchor="middle" x="924.25" y="-147.3" font-family="Times,serif" font-size="14.00">out</text>
</g>
<!-- c11&#45;&gt;c17 -->
<g id="edge1" class="edge">
<title>c11:e&#45;&gt;c17:w</title>
<path fill="none" stroke="black" stroke-width="3" d="M618.11,-111C651.72,-111 658.67,-133.8 687.07,-138.25"/>
<polygon fill="black" stroke="black" stroke-width="3" points="686.87,-141.75 697.11,-139 687.4,-134.77 686.87,-141.75"/>
<text text-anchor="middle" x="657.61" y="-139.8" font-family="Times,serif" font-size="14.00">&lt;16&gt;</text>
</g>
<!-- c15&#45;&gt;n5 -->
<g id="edge7" class="edge">
<title>c15:e&#45;&gt;n5:w</title>
<path fill="none" stroke="black" stroke-width="3" d="M253,-123C284.41,-123 294.74,-123 321.71,-123"/>
<polygon fill="black" stroke="black" stroke-width="3" points="322,-126.5 332,-123 322,-119.5 322,-126.5"/>
<text text-anchor="middle" x="292.5" y="-126.8" font-family="Times,serif" font-size="14.00">&lt;16&gt;</text>
</g>
<!-- c16&#45;&gt;n6 -->
<g id="edge9" class="edge">
<title>c16:e&#45;&gt;n6:w</title>
<path fill="none" stroke="black" stroke-width="3" d="M253,-58C284.57,-58 294.63,-64.4 321.67,-65.75"/>
<polygon fill="black" stroke="black" stroke-width="3" points="321.92,-69.26 332,-66 322.09,-62.26 321.92,-69.26"/>
<text text-anchor="middle" x="292.5" y="-68.8" font-family="Times,serif" font-size="14.00">&lt;16&gt;</text>
</g>
<!-- c17&#45;&gt;n7 -->
<g id="edge11" class="edge">
<title>c17:e&#45;&gt;n7:w</title>
<path fill="none" stroke="black" stroke-width="3" d="M817.11,-151C848.52,-151 858.85,-151 885.81,-151"/>
<polygon fill="black" stroke="black" stroke-width="3" points="886.11,-154.5 896.11,-151 886.11,-147.5 886.11,-154.5"/>
<text text-anchor="middle" x="856.61" y="-154.8" font-family="Times,serif" font-size="14.00">&lt;16&gt;</text>
</g>
</g>
</svg>
