<?xml version="1.0" encoding="UTF-8" standalone="no"?>
<!DOCTYPE svg PUBLIC "-//W3C//DTD SVG 1.1//EN"
 "http://www.w3.org/Graphics/SVG/1.1/DTD/svg11.dtd">
<!-- Generated by graphviz version 2.43.0 (0)
 -->
<!-- Title: example Pages: 1 -->
<svg width="1426pt" height="281pt"
 viewBox="0.00 0.00 1425.94 281.40" xmlns="http://www.w3.org/2000/svg" xmlns:xlink="http://www.w3.org/1999/xlink">
<g id="graph0" class="graph" transform="scale(1 1) rotate(0) translate(4 277.4)">
<title>example</title>
<polygon fill="white" stroke="transparent" points="-4,4 -4,-277.4 1421.94,-277.4 1421.94,4 -4,4"/>
<text text-anchor="middle" x="708.97" y="-7.8" font-family="Times,serif" font-size="14.00">example</text>
<!-- n3 -->
<g id="node1" class="node">
<title>n3</title>
<polygon fill="none" stroke="black" points="54,-130.54 54,-145.46 38.18,-156 15.82,-156 0,-145.46 0,-130.54 15.82,-120 38.18,-120 54,-130.54"/>
<text text-anchor="middle" x="27" y="-134.3" font-family="Times,serif" font-size="14.00">a</text>
</g>
<!-- c16 -->
<g id="node8" class="node">
<title>c16</title>
<polygon fill="none" stroke="black" points="221.29,-197 221.29,-243 341.29,-243 341.29,-197 221.29,-197"/>
<text text-anchor="middle" x="244.79" y="-227.8" font-family="Times,serif" font-size="14.00">CLK</text>
<polyline fill="none" stroke="black" points="221.29,-220 268.29,-220 "/>
<text text-anchor="middle" x="244.79" y="-204.8" font-family="Times,serif" font-size="14.00">D</text>
<polyline fill="none" stroke="black" points="268.29,-197 268.29,-243 "/>
<text text-anchor="middle" x="290.79" y="-223.8" font-family="Times,serif" font-size="14.00">$4</text>
<text text-anchor="middle" x="290.79" y="-208.8" font-family="Times,serif" font-size="14.00">$dff</text>
<polyline fill="none" stroke="black" points="313.29,-197 313.29,-243 "/>
<text text-anchor="middle" x="327.29" y="-216.3" font-family="Times,serif" font-size="14.00">Q</text>
</g>
<!-- n3&#45;&gt;c16 -->
<g id="edge3" class="edge">
<title>n3:e&#45;&gt;c16:w</title>
<path fill="none" stroke="black" stroke-width="3" d="M54,-138C130.98,-138 139.99,-201.85 210.86,-207.59"/>
<polygon fill="black" stroke="black" stroke-width="3" points="211.16,-211.1 221.29,-208 211.43,-204.11 211.16,-211.1"/>
<text text-anchor="middle" x="137.64" y="-209.8" font-family="Times,serif" font-size="14.00">&lt;16&gt;</text>
</g>
<!-- n4 -->
<g id="node2" class="node">
<title>n4</title>
<polygon fill="none" stroke="black" points="54,-76.54 54,-91.46 38.18,-102 15.82,-102 0,-91.46 0,-76.54 15.82,-66 38.18,-66 54,-76.54"/>
<text text-anchor="middle" x="27" y="-80.3" font-family="Times,serif" font-size="14.00">b</text>
</g>
<!-- c19 -->
<g id="node12" class="node">
<title>c19</title>
<polygon fill="none" stroke="black" points="359.29,-49 359.29,-95 463.29,-95 463.29,-49 359.29,-49"/>
<text text-anchor="middle" x="372.79" y="-79.8" font-family="Times,serif" font-size="14.00">A</text>
<polyline fill="none" stroke="black" points="359.29,-72 386.29,-72 "/>
<text text-anchor="middle" x="372.79" y="-56.8" font-family="Times,serif" font-size="14.00">B</text>
<polyline fill="none" stroke="black" points="386.29,-49 386.29,-95 "/>
<text text-anchor="middle" x="411.79" y="-75.8" font-family="Times,serif" font-size="14.00">$2</text>
<text text-anchor="middle" x="411.79" y="-60.8" font-family="Times,serif" font-size="14.00">$sub</text>
<polyline fill="none" stroke="black" points="437.29,-49 437.29,-95 "/>
<text text-anchor="middle" x="450.29" y="-68.3" font-family="Times,serif" font-size="14.00">Y</text>
</g>
<!-- n4&#45;&gt;c19 -->
<g id="edge4" class="edge">
<title>n4:e&#45;&gt;c19:w</title>
<path fill="none" stroke="black" stroke-width="3" d="M54,-84C186.24,-84 221.82,-84 349.15,-84"/>
<polygon fill="black" stroke="black" stroke-width="3" points="349.29,-87.5 359.29,-84 349.29,-80.5 349.29,-87.5"/>
<text text-anchor="middle" x="137.64" y="-87.8" font-family="Times,serif" font-size="14.00">&lt;16&gt;</text>
</g>
<!-- n5 -->
<g id="node3" class="node">
<title>n5</title>
<polygon fill="none" stroke="black" points="54,-224.54 54,-239.46 38.18,-250 15.82,-250 0,-239.46 0,-224.54 15.82,-214 38.18,-214 54,-224.54"/>
<text text-anchor="middle" x="27" y="-228.3" font-family="Times,serif" font-size="14.00">clk</text>
</g>
<!-- n5&#45;&gt;c16 -->
<g id="edge5" class="edge">
<title>n5:e&#45;&gt;c16:w</title>
<path fill="none" stroke="black" d="M54,-232C124.87,-232 145.07,-232 211.19,-232"/>
<polygon fill="black" stroke="black" points="211.29,-235.5 221.29,-232 211.29,-228.5 211.29,-235.5"/>
</g>
<!-- c17 -->
<g id="node9" class="node">
<title>c17</title>
<polygon fill="none" stroke="black" points="542.29,-133 542.29,-179 662.29,-179 662.29,-133 542.29,-133"/>
<text text-anchor="middle" x="565.79" y="-163.8" font-family="Times,serif" font-size="14.00">CLK</text>
<polyline fill="none" stroke="black" points="542.29,-156 589.29,-156 "/>
<text text-anchor="middle" x="565.79" y="-140.8" font-family="Times,serif" font-size="14.00">D</text>
<polyline fill="none" stroke="black" points="589.29,-133 589.29,-179 "/>
<text text-anchor="middle" x="611.79" y="-159.8" font-family="Times,serif" font-size="14.00">$5</text>
<text text-anchor="middle" x="611.79" y="-144.8" font-family="Times,serif" font-size="14.00">$dff</text>
<polyline fill="none" stroke="black" points="634.29,-133 634.29,-179 "/>
<text text-anchor="middle" x="648.29" y="-152.3" font-family="Times,serif" font-size="14.00">Q</text>
</g>
<!-- n5&#45;&gt;c17 -->
<g id="edge6" class="edge">
<title>n5:e&#45;&gt;c17:w</title>
<path fill="none" stroke="black" d="M54,-232C58.8,-232 216.54,-188.76 221.29,-188 358.97,-165.82 397.48,-167.88 532.01,-168"/>
<polygon fill="black" stroke="black" points="532.29,-171.5 542.29,-168 532.29,-164.5 532.29,-171.5"/>
</g>
<!-- c18 -->
<g id="node10" class="node">
<title>c18</title>
<polygon fill="none" stroke="black" points="1162.66,-222 1162.66,-268 1282.66,-268 1282.66,-222 1162.66,-222"/>
<text text-anchor="middle" x="1186.16" y="-252.8" font-family="Times,serif" font-size="14.00">CLK</text>
<polyline fill="none" stroke="black" points="1162.66,-245 1209.66,-245 "/>
<text text-anchor="middle" x="1186.16" y="-229.8" font-family="Times,serif" font-size="14.00">D</text>
<polyline fill="none" stroke="black" points="1209.66,-222 1209.66,-268 "/>
<text text-anchor="middle" x="1232.16" y="-248.8" font-family="Times,serif" font-size="14.00">$6</text>
<text text-anchor="middle" x="1232.16" y="-233.8" font-family="Times,serif" font-size="14.00">$dff</text>
<polyline fill="none" stroke="black" points="1254.66,-222 1254.66,-268 "/>
<text text-anchor="middle" x="1268.66" y="-241.3" font-family="Times,serif" font-size="14.00">Q</text>
</g>
<!-- n5&#45;&gt;c18 -->
<g id="edge7" class="edge">
<title>n5:e&#45;&gt;c18:w</title>
<path fill="none" stroke="black" d="M54,-232C64.13,-232 62.64,-242.12 72,-246 158.19,-281.69 187,-272 280.29,-272 280.29,-272 280.29,-272 1031.66,-272 1086.72,-272 1102.23,-258.76 1152.49,-257.16"/>
<polygon fill="black" stroke="black" points="1152.72,-260.66 1162.66,-257 1152.61,-253.66 1152.72,-260.66"/>
</g>
<!-- n6 -->
<g id="node4" class="node">
<title>n6</title>
<polygon fill="none" stroke="black" points="729.92,-238 680.15,-220 729.92,-202 779.69,-220 729.92,-238"/>
<text text-anchor="middle" x="729.92" y="-216.3" font-family="Times,serif" font-size="14.00">inp_a</text>
</g>
<!-- c12 -->
<g id="node7" class="node">
<title>c12</title>
<polygon fill="none" stroke="black" points="977.66,-185 977.66,-231 1083.66,-231 1083.66,-185 977.66,-185"/>
<text text-anchor="middle" x="991.16" y="-215.8" font-family="Times,serif" font-size="14.00">A</text>
<polyline fill="none" stroke="black" points="977.66,-208 1004.66,-208 "/>
<text text-anchor="middle" x="991.16" y="-192.8" font-family="Times,serif" font-size="14.00">B</text>
<polyline fill="none" stroke="black" points="1004.66,-185 1004.66,-231 "/>
<text text-anchor="middle" x="1031.16" y="-211.8" font-family="Times,serif" font-size="14.00">$3</text>
<text text-anchor="middle" x="1031.16" y="-196.8" font-family="Times,serif" font-size="14.00">$mul</text>
<polyline fill="none" stroke="black" points="1057.66,-185 1057.66,-231 "/>
<text text-anchor="middle" x="1070.66" y="-204.3" font-family="Times,serif" font-size="14.00">Y</text>
</g>
<!-- n6&#45;&gt;c12 -->
<g id="edge9" class="edge">
<title>n6:e&#45;&gt;c12:w</title>
<path fill="none" stroke="black" stroke-width="3" d="M779.56,-220C864.17,-220 887.8,-220 967.64,-220"/>
<polygon fill="black" stroke="black" stroke-width="3" points="967.66,-223.5 977.66,-220 967.66,-216.5 967.66,-223.5"/>
<text text-anchor="middle" x="848.11" y="-223.8" font-family="Times,serif" font-size="14.00">&lt;16&gt;</text>
</g>
<!-- n7 -->
<g id="node5" class="node">
<title>n7</title>
<polygon fill="none" stroke="black" points="848.11,-185 797.5,-167 848.11,-149 898.72,-167 848.11,-185"/>
<text text-anchor="middle" x="848.11" y="-163.3" font-family="Times,serif" font-size="14.00">inp_b</text>
</g>
<!-- n7&#45;&gt;c12 -->
<g id="edge11" class="edge">
<title>n7:e&#45;&gt;c12:w</title>
<path fill="none" stroke="black" stroke-width="3" d="M898.66,-167C906.3,-167 947.89,-186.33 967.99,-193.43"/>
<polygon fill="black" stroke="black" stroke-width="3" points="967.1,-196.81 977.66,-196 968.9,-190.05 967.1,-196.81"/>
<text text-anchor="middle" x="938.16" y="-192.8" font-family="Times,serif" font-size="14.00">&lt;16&gt;</text>
</g>
<!-- n8 -->
<g id="node6" class="node">
<title>n8</title>
<polygon fill="none" stroke="black" points="1418.08,-237.54 1418.08,-252.46 1401.52,-263 1378.09,-263 1361.52,-252.46 1361.52,-237.54 1378.09,-227 1401.52,-227 1418.08,-237.54"/>
<text text-anchor="middle" x="1389.8" y="-241.3" font-family="Times,serif" font-size="14.00">out</text>
</g>
<!-- c12&#45;&gt;c18 -->
<g id="edge2" class="edge">
<title>c12:e&#45;&gt;c18:w</title>
<path fill="none" stroke="black" stroke-width="3" d="M1083.66,-208C1116.75,-208 1124.43,-228.18 1152.35,-232.28"/>
<polygon fill="black" stroke="black" stroke-width="3" points="1152.44,-235.79 1162.66,-233 1152.93,-228.81 1152.44,-235.79"/>
<text text-anchor="middle" x="1123.16" y="-233.8" font-family="Times,serif" font-size="14.00">&lt;16&gt;</text>
</g>
<!-- c16&#45;&gt;n6 -->
<g id="edge8" class="edge">
<title>c16:e&#45;&gt;n6:w</title>
<path fill="none" stroke="black" stroke-width="3" d="M341.29,-220C488.42,-220 527.79,-220 669.88,-220"/>
<polygon fill="black" stroke="black" stroke-width="3" points="670.29,-223.5 680.29,-220 670.29,-216.5 670.29,-223.5"/>
<text text-anchor="middle" x="502.79" y="-223.8" font-family="Times,serif" font-size="14.00">&lt;16&gt;</text>
</g>
<!-- c17&#45;&gt;n7 -->
<g id="edge10" class="edge">
<title>c17:e&#45;&gt;n7:w</title>
<path fill="none" stroke="black" stroke-width="3" d="M662.29,-156C719.07,-156 735.37,-165.75 787.41,-166.89"/>
<polygon fill="black" stroke="black" stroke-width="3" points="787.52,-170.39 797.56,-167 787.6,-163.39 787.52,-170.39"/>
<text text-anchor="middle" x="729.92" y="-169.8" font-family="Times,serif" font-size="14.00">&lt;16&gt;</text>
</g>
<!-- c18&#45;&gt;n8 -->
<g id="edge12" class="edge">
<title>c18:e&#45;&gt;n8:w</title>
<path fill="none" stroke="black" stroke-width="3" d="M1282.66,-245C1314.07,-245 1324.41,-245 1351.37,-245"/>
<polygon fill="black" stroke="black" stroke-width="3" points="1351.66,-248.5 1361.66,-245 1351.66,-241.5 1351.66,-248.5"/>
<text text-anchor="middle" x="1322.16" y="-248.8" font-family="Times,serif" font-size="14.00">&lt;16&gt;</text>
</g>
<!-- v0 -->
<g id="node11" class="node">
<title>v0</title>
<ellipse fill="none" stroke="black" cx="137.64" cy="-41" rx="65.79" ry="18"/>
<text text-anchor="middle" x="137.64" y="-37.3" font-family="Times,serif" font-size="14.00">8&#39;01111111</text>
</g>
<!-- v0&#45;&gt;c19 -->
<g id="edge13" class="edge">
<title>v0:e&#45;&gt;c19:w</title>
<path fill="none" stroke="black" stroke-width="3" d="M203.29,-41C264.94,-41 280.7,-43.6 341.29,-55 344.86,-55.67 347.16,-56.71 349.32,-57.67"/>
<polygon fill="black" stroke="black" stroke-width="3" points="348.75,-61.13 359.29,-60 350.35,-54.32 348.75,-61.13"/>
<text text-anchor="middle" x="281.29" y="-58.8" font-family="Times,serif" font-size="14.00">&lt;8&gt;</text>
</g>
<!-- c19&#45;&gt;c17 -->
<g id="edge1" class="edge">
<title>c19:e&#45;&gt;c17:w</title>
<path fill="none" stroke="black" stroke-width="3" d="M463.29,-72C483.98,-72 510.54,-126.63 532.75,-140.72"/>
<polygon fill="black" stroke="black" stroke-width="3" points="531.69,-144.06 542.29,-144 533.97,-137.44 531.69,-144.06"/>
<text text-anchor="middle" x="502.79" y="-136.8" font-family="Times,serif" font-size="14.00">&lt;16&gt;</text>
</g>
</g>
</svg>
