<?xml version="1.0" encoding="UTF-8" standalone="no"?>
<!DOCTYPE svg PUBLIC "-//W3C//DTD SVG 1.1//EN"
 "http://www.w3.org/Graphics/SVG/1.1/DTD/svg11.dtd">
<!-- Generated by graphviz version 2.43.0 (0)
 -->
<!-- Title: example Pages: 1 -->
<svg width="1502pt" height="652pt"
 viewBox="0.00 0.00 1502.39 651.88" xmlns="http://www.w3.org/2000/svg" xmlns:xlink="http://www.w3.org/1999/xlink">
<g id="graph0" class="graph" transform="scale(1 1) rotate(0) translate(4 647.88)">
<title>example</title>
<polygon fill="white" stroke="transparent" points="-4,4 -4,-647.88 1498.39,-647.88 1498.39,4 -4,4"/>
<text text-anchor="middle" x="747.2" y="-7.8" font-family="Times,serif" font-size="14.00">example</text>
<!-- n8 -->
<g id="node1" class="node">
<title>n8</title>
<polygon fill="none" stroke="black" points="105.77,-546.94 105.77,-561.85 76.78,-572.39 35.78,-572.39 6.79,-561.85 6.79,-546.94 35.78,-536.39 76.78,-536.39 105.77,-546.94"/>
<text text-anchor="middle" x="56.28" y="-550.69" font-family="Times,serif" font-size="14.00">addr_in</text>
</g>
<!-- c31 -->
<g id="node20" class="node">
<title>c31</title>
<polygon fill="none" stroke="black" points="365.55,-519.89 365.55,-588.89 474.55,-588.89 474.55,-519.89 365.55,-519.89"/>
<text text-anchor="middle" x="379.05" y="-573.69" font-family="Times,serif" font-size="14.00">A</text>
<polyline fill="none" stroke="black" points="365.55,-565.89 392.55,-565.89 "/>
<text text-anchor="middle" x="379.05" y="-550.69" font-family="Times,serif" font-size="14.00">B</text>
<polyline fill="none" stroke="black" points="365.55,-542.89 392.55,-542.89 "/>
<text text-anchor="middle" x="379.05" y="-527.69" font-family="Times,serif" font-size="14.00">S</text>
<polyline fill="none" stroke="black" points="392.55,-519.89 392.55,-588.89 "/>
<text text-anchor="middle" x="420.55" y="-558.19" font-family="Times,serif" font-size="14.00">$13</text>
<text text-anchor="middle" x="420.55" y="-543.19" font-family="Times,serif" font-size="14.00">$mux</text>
<polyline fill="none" stroke="black" points="448.55,-519.89 448.55,-588.89 "/>
<text text-anchor="middle" x="461.55" y="-550.69" font-family="Times,serif" font-size="14.00">Y</text>
</g>
<!-- n8&#45;&gt;c31 -->
<g id="edge23" class="edge">
<title>n8:e&#45;&gt;c31:w</title>
<path fill="none" stroke="black" stroke-width="3" d="M106.28,-554.39C217.37,-554.39 247.67,-554.39 353.87,-554.39"/>
<polygon fill="black" stroke="black" stroke-width="3" points="354.05,-557.89 364.05,-554.39 354.05,-550.89 354.05,-557.89"/>
<text text-anchor="middle" x="192.3" y="-558.19" font-family="Times,serif" font-size="14.00">&lt;2&gt;</text>
</g>
<!-- n9 -->
<g id="node2" class="node">
<title>n9</title>
<polygon fill="none" stroke="black" points="112.34,-213.94 112.34,-228.85 79.5,-239.39 33.06,-239.39 0.22,-228.85 0.22,-213.94 33.06,-203.39 79.5,-203.39 112.34,-213.94"/>
<text text-anchor="middle" x="56.28" y="-217.69" font-family="Times,serif" font-size="14.00">addr_out</text>
</g>
<!-- c18 -->
<g id="node9" class="node">
<title>c18</title>
<polygon fill="none" stroke="black" points="324.05,-170.89 324.05,-239.89 516.05,-239.89 516.05,-170.89 324.05,-170.89"/>
<text text-anchor="middle" x="353.55" y="-224.69" font-family="Times,serif" font-size="14.00">ADDR</text>
<polyline fill="none" stroke="black" points="324.05,-216.89 383.05,-216.89 "/>
<text text-anchor="middle" x="353.55" y="-201.69" font-family="Times,serif" font-size="14.00">CLK</text>
<polyline fill="none" stroke="black" points="324.05,-193.89 383.05,-193.89 "/>
<text text-anchor="middle" x="353.55" y="-178.69" font-family="Times,serif" font-size="14.00">EN</text>
<polyline fill="none" stroke="black" points="383.05,-170.89 383.05,-239.89 "/>
<text text-anchor="middle" x="421.55" y="-209.19" font-family="Times,serif" font-size="14.00">$6</text>
<text text-anchor="middle" x="421.55" y="-194.19" font-family="Times,serif" font-size="14.00">$memrd</text>
<polyline fill="none" stroke="black" points="460.05,-170.89 460.05,-239.89 "/>
<text text-anchor="middle" x="488.05" y="-201.69" font-family="Times,serif" font-size="14.00">DATA</text>
</g>
<!-- n9&#45;&gt;c18 -->
<g id="edge24" class="edge">
<title>n9:e&#45;&gt;c18:w</title>
<path fill="none" stroke="black" stroke-width="3" d="M112.56,-221.39C203.12,-221.39 228.17,-227.88 313.86,-228.36"/>
<polygon fill="black" stroke="black" stroke-width="3" points="314.04,-231.86 324.05,-228.39 314.06,-224.86 314.04,-231.86"/>
<text text-anchor="middle" x="192.3" y="-231.19" font-family="Times,serif" font-size="14.00">&lt;2&gt;</text>
</g>
<!-- n10 -->
<g id="node3" class="node">
<title>n10</title>
<polygon fill="none" stroke="black" points="83.28,-451.94 83.28,-466.85 67.46,-477.39 45.1,-477.39 29.28,-466.85 29.28,-451.94 45.1,-441.39 67.46,-441.39 83.28,-451.94"/>
<text text-anchor="middle" x="56.28" y="-455.69" font-family="Times,serif" font-size="14.00">clk</text>
</g>
<!-- c22 -->
<g id="node12" class="node">
<title>c22</title>
<polygon fill="none" stroke="black" points="586.05,-210.39 586.05,-256.39 706.05,-256.39 706.05,-210.39 586.05,-210.39"/>
<text text-anchor="middle" x="609.55" y="-241.19" font-family="Times,serif" font-size="14.00">CLK</text>
<polyline fill="none" stroke="black" points="586.05,-233.39 633.05,-233.39 "/>
<text text-anchor="middle" x="609.55" y="-218.19" font-family="Times,serif" font-size="14.00">D</text>
<polyline fill="none" stroke="black" points="633.05,-210.39 633.05,-256.39 "/>
<text text-anchor="middle" x="655.55" y="-237.19" font-family="Times,serif" font-size="14.00">$15</text>
<text text-anchor="middle" x="655.55" y="-222.19" font-family="Times,serif" font-size="14.00">$dff</text>
<polyline fill="none" stroke="black" points="678.05,-210.39 678.05,-256.39 "/>
<text text-anchor="middle" x="692.05" y="-229.69" font-family="Times,serif" font-size="14.00">Q</text>
</g>
<!-- n10&#45;&gt;c22 -->
<g id="edge5" class="edge">
<title>n10:e&#45;&gt;c22:w</title>
<path fill="none" stroke="black" d="M84.28,-459.39C105.23,-459.39 109.89,-453.86 130.56,-450.39 178.98,-442.26 533.6,-423.38 568.05,-388.39 587.8,-368.33 561.99,-273.07 577.2,-250.29"/>
<polygon fill="black" stroke="black" points="579,-253.3 586.05,-245.39 575.6,-247.17 579,-253.3"/>
</g>
<!-- c23 -->
<g id="node13" class="node">
<title>c23</title>
<polygon fill="none" stroke="black" points="586.05,-543.39 586.05,-589.39 706.05,-589.39 706.05,-543.39 586.05,-543.39"/>
<text text-anchor="middle" x="609.55" y="-574.19" font-family="Times,serif" font-size="14.00">CLK</text>
<polyline fill="none" stroke="black" points="586.05,-566.39 633.05,-566.39 "/>
<text text-anchor="middle" x="609.55" y="-551.19" font-family="Times,serif" font-size="14.00">D</text>
<polyline fill="none" stroke="black" points="633.05,-543.39 633.05,-589.39 "/>
<text text-anchor="middle" x="655.55" y="-570.19" font-family="Times,serif" font-size="14.00">$16</text>
<text text-anchor="middle" x="655.55" y="-555.19" font-family="Times,serif" font-size="14.00">$dff</text>
<polyline fill="none" stroke="black" points="678.05,-543.39 678.05,-589.39 "/>
<text text-anchor="middle" x="692.05" y="-562.69" font-family="Times,serif" font-size="14.00">Q</text>
</g>
<!-- n10&#45;&gt;c23 -->
<g id="edge6" class="edge">
<title>n10:e&#45;&gt;c23:w</title>
<path fill="none" stroke="black" d="M84.28,-459.39C117.01,-459.39 103.32,-495.99 112.56,-527.39 125.3,-570.71 95.91,-598.43 130.56,-627.39 172.67,-662.6 199.25,-630.41 254.05,-627.39 371.03,-620.94 401.1,-621.01 516.05,-598.39 544.2,-592.85 552.02,-581.41 575.99,-578.89"/>
<polygon fill="black" stroke="black" points="576.23,-582.38 586.05,-578.39 575.89,-575.39 576.23,-582.38"/>
</g>
<!-- c24 -->
<g id="node14" class="node">
<title>c24</title>
<polygon fill="none" stroke="black" points="586.05,-405.39 586.05,-451.39 706.05,-451.39 706.05,-405.39 586.05,-405.39"/>
<text text-anchor="middle" x="609.55" y="-436.19" font-family="Times,serif" font-size="14.00">CLK</text>
<polyline fill="none" stroke="black" points="586.05,-428.39 633.05,-428.39 "/>
<text text-anchor="middle" x="609.55" y="-413.19" font-family="Times,serif" font-size="14.00">D</text>
<polyline fill="none" stroke="black" points="633.05,-405.39 633.05,-451.39 "/>
<text text-anchor="middle" x="655.55" y="-432.19" font-family="Times,serif" font-size="14.00">$17</text>
<text text-anchor="middle" x="655.55" y="-417.19" font-family="Times,serif" font-size="14.00">$dff</text>
<polyline fill="none" stroke="black" points="678.05,-405.39 678.05,-451.39 "/>
<text text-anchor="middle" x="692.05" y="-424.69" font-family="Times,serif" font-size="14.00">Q</text>
</g>
<!-- n10&#45;&gt;c24 -->
<g id="edge7" class="edge">
<title>n10:e&#45;&gt;c24:w</title>
<path fill="none" stroke="black" d="M84.28,-459.39C304.07,-459.39 361.16,-440.96 576.03,-440.4"/>
<polygon fill="black" stroke="black" points="576.05,-443.9 586.05,-440.39 576.04,-436.9 576.05,-443.9"/>
</g>
<!-- c25 -->
<g id="node15" class="node">
<title>c25</title>
<polygon fill="none" stroke="black" points="1016.65,-373.39 1016.65,-419.39 1136.65,-419.39 1136.65,-373.39 1016.65,-373.39"/>
<text text-anchor="middle" x="1040.15" y="-404.19" font-family="Times,serif" font-size="14.00">CLK</text>
<polyline fill="none" stroke="black" points="1016.65,-396.39 1063.65,-396.39 "/>
<text text-anchor="middle" x="1040.15" y="-381.19" font-family="Times,serif" font-size="14.00">D</text>
<polyline fill="none" stroke="black" points="1063.65,-373.39 1063.65,-419.39 "/>
<text text-anchor="middle" x="1086.15" y="-400.19" font-family="Times,serif" font-size="14.00">$18</text>
<text text-anchor="middle" x="1086.15" y="-385.19" font-family="Times,serif" font-size="14.00">$dff</text>
<polyline fill="none" stroke="black" points="1108.65,-373.39 1108.65,-419.39 "/>
<text text-anchor="middle" x="1122.65" y="-392.69" font-family="Times,serif" font-size="14.00">Q</text>
</g>
<!-- n10&#45;&gt;c25 -->
<g id="edge8" class="edge">
<title>n10:e&#45;&gt;c25:w</title>
<path fill="none" stroke="black" d="M84.28,-459.39C104.97,-459.39 109.97,-462.36 130.56,-464.39 200.49,-471.28 217.78,-478.39 288.05,-478.39 288.05,-478.39 288.05,-478.39 647.05,-478.39 739.69,-478.39 758.52,-446.09 849.65,-429.39 919.78,-416.54 939.98,-409.11 1006.49,-408.44"/>
<polygon fill="black" stroke="black" points="1006.67,-411.94 1016.65,-408.39 1006.63,-404.94 1006.67,-411.94"/>
</g>
<!-- n11 -->
<g id="node4" class="node">
<title>n11</title>
<polygon fill="none" stroke="black" points="103.95,-321.94 103.95,-336.85 76.03,-347.39 36.53,-347.39 8.6,-336.85 8.6,-321.94 36.53,-311.39 76.03,-311.39 103.95,-321.94"/>
<text text-anchor="middle" x="56.28" y="-325.69" font-family="Times,serif" font-size="14.00">data_in</text>
</g>
<!-- c30 -->
<g id="node18" class="node">
<title>c30</title>
<polygon fill="none" stroke="black" points="365.55,-289.89 365.55,-358.89 474.55,-358.89 474.55,-289.89 365.55,-289.89"/>
<text text-anchor="middle" x="379.05" y="-343.69" font-family="Times,serif" font-size="14.00">A</text>
<polyline fill="none" stroke="black" points="365.55,-335.89 392.55,-335.89 "/>
<text text-anchor="middle" x="379.05" y="-320.69" font-family="Times,serif" font-size="14.00">B</text>
<polyline fill="none" stroke="black" points="365.55,-312.89 392.55,-312.89 "/>
<text text-anchor="middle" x="379.05" y="-297.69" font-family="Times,serif" font-size="14.00">S</text>
<polyline fill="none" stroke="black" points="392.55,-289.89 392.55,-358.89 "/>
<text text-anchor="middle" x="420.55" y="-328.19" font-family="Times,serif" font-size="14.00">$11</text>
<text text-anchor="middle" x="420.55" y="-313.19" font-family="Times,serif" font-size="14.00">$mux</text>
<polyline fill="none" stroke="black" points="448.55,-289.89 448.55,-358.89 "/>
<text text-anchor="middle" x="461.55" y="-320.69" font-family="Times,serif" font-size="14.00">Y</text>
</g>
<!-- n11&#45;&gt;c30 -->
<g id="edge9" class="edge">
<title>n11:e&#45;&gt;c30:w</title>
<path fill="none" stroke="black" stroke-width="3" d="M105.28,-329.39C118.12,-329.39 118.12,-318.6 130.56,-315.39 227.77,-290.27 258.19,-322.14 353.95,-324.28"/>
<polygon fill="black" stroke="black" stroke-width="3" points="354.01,-327.78 364.05,-324.39 354.09,-320.78 354.01,-327.78"/>
<text text-anchor="middle" x="192.3" y="-319.19" font-family="Times,serif" font-size="14.00">&lt;8&gt;</text>
</g>
<!-- n12 -->
<g id="node5" class="node">
<title>n12</title>
<polygon fill="none" stroke="black" points="1494.27,-225.94 1494.27,-240.85 1462.2,-251.39 1416.84,-251.39 1384.78,-240.85 1384.78,-225.94 1416.84,-215.39 1462.2,-215.39 1494.27,-225.94"/>
<text text-anchor="middle" x="1439.52" y="-229.69" font-family="Times,serif" font-size="14.00">data_out</text>
</g>
<!-- n13 -->
<g id="node6" class="node">
<title>n13</title>
<polygon fill="none" stroke="black" points="111.02,-267.94 111.02,-282.85 78.96,-293.39 33.6,-293.39 1.53,-282.85 1.53,-267.94 33.6,-257.39 78.96,-257.39 111.02,-267.94"/>
<text text-anchor="middle" x="56.28" y="-271.69" font-family="Times,serif" font-size="14.00">write_en</text>
</g>
<!-- n13&#45;&gt;c30 -->
<g id="edge11" class="edge">
<title>n13:e&#45;&gt;c30:w</title>
<path fill="none" stroke="black" d="M112.28,-275.39C221.26,-275.39 249.8,-299.79 353.75,-301.32"/>
<polygon fill="black" stroke="black" points="354.02,-304.82 364.05,-301.39 354.07,-297.82 354.02,-304.82"/>
</g>
<!-- n13&#45;&gt;c31 -->
<g id="edge12" class="edge">
<title>n13:e&#45;&gt;c31:w</title>
<path fill="none" stroke="black" d="M112.28,-275.39C135.09,-275.39 118.02,-357.34 130.56,-376.39 197.14,-477.6 237.26,-528.57 354.02,-531.28"/>
<polygon fill="black" stroke="black" points="354.01,-534.78 364.05,-531.39 354.09,-527.78 354.01,-534.78"/>
</g>
<!-- c32 -->
<g id="node23" class="node">
<title>c32</title>
<polygon fill="none" stroke="black" points="365.55,-49.89 365.55,-118.89 474.55,-118.89 474.55,-49.89 365.55,-49.89"/>
<text text-anchor="middle" x="379.05" y="-103.69" font-family="Times,serif" font-size="14.00">A</text>
<polyline fill="none" stroke="black" points="365.55,-95.89 392.55,-95.89 "/>
<text text-anchor="middle" x="379.05" y="-80.69" font-family="Times,serif" font-size="14.00">B</text>
<polyline fill="none" stroke="black" points="365.55,-72.89 392.55,-72.89 "/>
<text text-anchor="middle" x="379.05" y="-57.69" font-family="Times,serif" font-size="14.00">S</text>
<polyline fill="none" stroke="black" points="392.55,-49.89 392.55,-118.89 "/>
<text text-anchor="middle" x="420.55" y="-88.19" font-family="Times,serif" font-size="14.00">$9</text>
<text text-anchor="middle" x="420.55" y="-73.19" font-family="Times,serif" font-size="14.00">$mux</text>
<polyline fill="none" stroke="black" points="448.55,-49.89 448.55,-118.89 "/>
<text text-anchor="middle" x="461.55" y="-80.69" font-family="Times,serif" font-size="14.00">Y</text>
</g>
<!-- n13&#45;&gt;c32 -->
<g id="edge13" class="edge">
<title>n13:e&#45;&gt;c32:w</title>
<path fill="none" stroke="black" d="M112.28,-275.39C137.14,-275.39 112.28,-69.24 130.56,-52.39 204.4,15.64 256.64,-56.29 353.87,-61.14"/>
<polygon fill="black" stroke="black" points="353.96,-64.64 364.05,-61.39 354.14,-57.64 353.96,-64.64"/>
</g>
<!-- v0 -->
<g id="node7" class="node">
<title>v0</title>
<ellipse fill="none" stroke="black" cx="192.3" cy="-196.39" rx="27" ry="18"/>
<text text-anchor="middle" x="192.3" y="-192.69" font-family="Times,serif" font-size="14.00">1&#39;x</text>
</g>
<!-- v0&#45;&gt;c18 -->
<g id="edge25" class="edge">
<title>v0:e&#45;&gt;c18:w</title>
<path fill="none" stroke="black" d="M220.3,-196.39C262.97,-196.39 275.8,-204.04 313.81,-205.23"/>
<polygon fill="black" stroke="black" points="314,-208.74 324.05,-205.39 314.1,-201.74 314,-208.74"/>
</g>
<!-- v1 -->
<g id="node8" class="node">
<title>v1</title>
<ellipse fill="none" stroke="black" cx="192.3" cy="-155.39" rx="27" ry="18"/>
<text text-anchor="middle" x="192.3" y="-151.69" font-family="Times,serif" font-size="14.00">1&#39;x</text>
</g>
<!-- v1&#45;&gt;c18 -->
<g id="edge26" class="edge">
<title>v1:e&#45;&gt;c18:w</title>
<path fill="none" stroke="black" d="M220.3,-155.39C264.41,-155.39 274.93,-178.53 314.06,-181.97"/>
<polygon fill="black" stroke="black" points="313.91,-185.46 324.05,-182.39 314.21,-178.47 313.91,-185.46"/>
</g>
<!-- c18&#45;&gt;c22 -->
<g id="edge19" class="edge">
<title>c18:e&#45;&gt;c22:w</title>
<path fill="none" stroke="black" stroke-width="3" d="M516.05,-205.39C544.22,-205.39 552.33,-217.86 575.81,-220.78"/>
<polygon fill="black" stroke="black" stroke-width="3" points="575.86,-224.29 586.05,-221.39 576.27,-217.3 575.86,-224.29"/>
<text text-anchor="middle" x="551.05" y="-223.19" font-family="Times,serif" font-size="14.00">&lt;8&gt;</text>
</g>
<!-- v2 -->
<g id="node10" class="node">
<title>v2</title>
<ellipse fill="none" stroke="black" cx="1076.65" cy="-484.39" rx="27" ry="18"/>
<text text-anchor="middle" x="1076.65" y="-480.69" font-family="Times,serif" font-size="14.00">1&#39;x</text>
</g>
<!-- c19 -->
<g id="node11" class="node">
<title>c19</title>
<polygon fill="none" stroke="black" points="1206.65,-419.39 1206.65,-511.39 1366.65,-511.39 1366.65,-419.39 1206.65,-419.39"/>
<text text-anchor="middle" x="1236.15" y="-496.19" font-family="Times,serif" font-size="14.00">ADDR</text>
<polyline fill="none" stroke="black" points="1206.65,-488.39 1265.65,-488.39 "/>
<text text-anchor="middle" x="1236.15" y="-473.19" font-family="Times,serif" font-size="14.00">CLK</text>
<polyline fill="none" stroke="black" points="1206.65,-465.39 1265.65,-465.39 "/>
<text text-anchor="middle" x="1236.15" y="-450.19" font-family="Times,serif" font-size="14.00">DATA</text>
<polyline fill="none" stroke="black" points="1206.65,-442.39 1265.65,-442.39 "/>
<text text-anchor="middle" x="1236.15" y="-427.19" font-family="Times,serif" font-size="14.00">EN</text>
<polyline fill="none" stroke="black" points="1265.65,-419.39 1265.65,-511.39 "/>
<text text-anchor="middle" x="1305.65" y="-469.19" font-family="Times,serif" font-size="14.00">$7</text>
<text text-anchor="middle" x="1305.65" y="-454.19" font-family="Times,serif" font-size="14.00">$memwr</text>
<polyline fill="none" stroke="black" points="1345.65,-419.39 1345.65,-511.39 "/>
<text text-anchor="middle" x="1356.15" y="-461.69" font-family="Times,serif" font-size="14.00"> </text>
</g>
<!-- v2&#45;&gt;c19 -->
<g id="edge27" class="edge">
<title>v2:e&#45;&gt;c19:w</title>
<path fill="none" stroke="black" d="M1104.65,-484.39C1146.54,-484.39 1159.26,-478.44 1196.59,-477.51"/>
<polygon fill="black" stroke="black" points="1196.69,-481.01 1206.65,-477.39 1196.61,-474.01 1196.69,-481.01"/>
</g>
<!-- c22&#45;&gt;n12 -->
<g id="edge10" class="edge">
<title>c22:e&#45;&gt;n12:w</title>
<path fill="none" stroke="black" stroke-width="3" d="M706.05,-233.39C737.51,-233.39 745.38,-233.39 776.85,-233.39 776.85,-233.39 776.85,-233.39 1172.65,-233.39 1263.37,-233.39 1288.58,-233.39 1374.44,-233.39"/>
<polygon fill="black" stroke="black" stroke-width="3" points="1374.65,-236.89 1384.65,-233.39 1374.65,-229.89 1374.65,-236.89"/>
<text text-anchor="middle" x="898.15" y="-237.19" font-family="Times,serif" font-size="14.00">&lt;8&gt;</text>
</g>
<!-- c23&#45;&gt;c19 -->
<g id="edge20" class="edge">
<title>c23:e&#45;&gt;c19:w</title>
<path fill="none" stroke="black" stroke-width="3" d="M706.05,-566.39C738.87,-566.39 744.03,-545.39 776.85,-545.39 776.85,-545.39 776.85,-545.39 1077.65,-545.39 1134.81,-545.39 1144.86,-505.51 1196.5,-500.84"/>
<polygon fill="black" stroke="black" stroke-width="3" points="1196.81,-504.33 1206.65,-500.39 1196.5,-497.33 1196.81,-504.33"/>
<text text-anchor="middle" x="898.15" y="-549.19" font-family="Times,serif" font-size="14.00">&lt;2&gt;</text>
</g>
<!-- c24&#45;&gt;c19 -->
<g id="edge21" class="edge">
<title>c24:e&#45;&gt;c19:w</title>
<path fill="none" stroke="black" stroke-width="3" d="M706.05,-428.39C925.44,-428.39 982.18,-452.64 1196.65,-453.37"/>
<polygon fill="black" stroke="black" stroke-width="3" points="1196.64,-456.87 1206.65,-453.39 1196.65,-449.87 1196.64,-456.87"/>
<text text-anchor="middle" x="898.15" y="-444.19" font-family="Times,serif" font-size="14.00">&lt;8&gt;</text>
</g>
<!-- c25&#45;&gt;c19 -->
<g id="edge22" class="edge">
<title>c25:e&#45;&gt;c19:w</title>
<path fill="none" stroke="black" stroke-width="3" d="M1136.65,-396.39C1161.57,-396.39 1166.83,-405.34 1188.65,-417.39 1192.97,-419.78 1195,-423.03 1197.19,-425.68"/>
<polygon fill="black" stroke="black" stroke-width="3" points="1196.14,-429.07 1206.65,-430.39 1199.26,-422.8 1196.14,-429.07"/>
<text text-anchor="middle" x="1171.65" y="-421.19" font-family="Times,serif" font-size="14.00">&lt;8&gt;</text>
</g>
<!-- x3 -->
<g id="node16" class="node">
<title>x3</title>
<path fill="none" stroke="black" d="M861.65,-280.39C861.65,-280.39 934.65,-280.39 934.65,-280.39 940.65,-280.39 946.65,-286.39 946.65,-292.39 946.65,-292.39 946.65,-304.39 946.65,-304.39 946.65,-310.39 940.65,-316.39 934.65,-316.39 934.65,-316.39 861.65,-316.39 861.65,-316.39 855.65,-316.39 849.65,-310.39 849.65,-304.39 849.65,-304.39 849.65,-292.39 849.65,-292.39 849.65,-286.39 855.65,-280.39 861.65,-280.39"/>
<text text-anchor="middle" x="898.15" y="-294.69" font-family="Times,serif" font-size="14.00">8x 7:7 &#45; 7:0</text>
</g>
<!-- x3&#45;&gt;c25 -->
<g id="edge1" class="edge">
<title>x3:e&#45;&gt;c25:w</title>
<path fill="none" stroke="black" stroke-width="3" d="M958.58,-300.52C987.81,-312.36 975.47,-370.13 1004.51,-382.18"/>
<polygon fill="none" stroke="black" stroke-width="3" points="958.46,-300.5 951.85,-303.38 946.65,-298.39 953.26,-295.51 958.46,-300.5"/>
<polygon fill="none" stroke="black" stroke-width="3" points="1004.84,-382.24 1011.46,-379.38 1016.65,-384.39 1010.03,-387.25 1004.84,-382.24"/>
<text text-anchor="middle" x="981.65" y="-383.19" font-family="Times,serif" font-size="14.00">&lt;8&gt;</text>
</g>
<!-- v4 -->
<g id="node17" class="node">
<title>v4</title>
<ellipse fill="none" stroke="black" cx="192.3" cy="-357.39" rx="61.99" ry="18"/>
<text text-anchor="middle" x="192.3" y="-353.69" font-family="Times,serif" font-size="14.00">8&#39;xxxxxxxx</text>
</g>
<!-- v4&#45;&gt;c30 -->
<g id="edge28" class="edge">
<title>v4:e&#45;&gt;c30:w</title>
<path fill="none" stroke="black" stroke-width="3" d="M254.05,-357.39C299.59,-357.39 313.05,-348.78 353.96,-347.54"/>
<polygon fill="black" stroke="black" stroke-width="3" points="354.1,-351.04 364.05,-347.39 354,-344.04 354.1,-351.04"/>
<text text-anchor="middle" x="289.05" y="-361.19" font-family="Times,serif" font-size="14.00">&lt;8&gt;</text>
</g>
<!-- c30&#45;&gt;c24 -->
<g id="edge14" class="edge">
<title>c30:e&#45;&gt;c24:w</title>
<path fill="none" stroke="black" stroke-width="3" d="M476.05,-324.39C504.8,-324.39 545.28,-399.3 576.33,-413.93"/>
<polygon fill="black" stroke="black" stroke-width="3" points="575.49,-417.33 586.05,-416.39 577.21,-410.54 575.49,-417.33"/>
<text text-anchor="middle" x="551.05" y="-413.19" font-family="Times,serif" font-size="14.00">&lt;8&gt;</text>
</g>
<!-- v5 -->
<g id="node19" class="node">
<title>v5</title>
<ellipse fill="none" stroke="black" cx="192.3" cy="-600.39" rx="29.8" ry="18"/>
<text text-anchor="middle" x="192.3" y="-596.69" font-family="Times,serif" font-size="14.00">2&#39;xx</text>
</g>
<!-- v5&#45;&gt;c31 -->
<g id="edge29" class="edge">
<title>v5:e&#45;&gt;c31:w</title>
<path fill="none" stroke="black" stroke-width="3" d="M223.3,-600.39C283.1,-600.39 298.92,-579.92 353.74,-577.6"/>
<polygon fill="black" stroke="black" stroke-width="3" points="354.12,-581.1 364.05,-577.39 353.98,-574.1 354.12,-581.1"/>
<text text-anchor="middle" x="289.05" y="-598.19" font-family="Times,serif" font-size="14.00">&lt;2&gt;</text>
</g>
<!-- c31&#45;&gt;c23 -->
<g id="edge4" class="edge">
<title>c31:e&#45;&gt;c23:w</title>
<path fill="none" stroke="black" stroke-width="3" d="M476.05,-554.39C521.4,-554.39 535.2,-554.39 576,-554.39"/>
<polygon fill="black" stroke="black" stroke-width="3" points="576.05,-557.89 586.05,-554.39 576.05,-550.89 576.05,-557.89"/>
<text text-anchor="middle" x="551.05" y="-558.19" font-family="Times,serif" font-size="14.00">&lt;2&gt;</text>
</g>
<!-- v6 -->
<g id="node21" class="node">
<title>v6</title>
<ellipse fill="none" stroke="black" cx="192.3" cy="-114.39" rx="27" ry="18"/>
<text text-anchor="middle" x="192.3" y="-110.69" font-family="Times,serif" font-size="14.00">1&#39;0</text>
</g>
<!-- v6&#45;&gt;c32 -->
<g id="edge30" class="edge">
<title>v6:e&#45;&gt;c32:w</title>
<path fill="none" stroke="black" d="M220.3,-114.39C280.77,-114.39 298.21,-108.14 353.97,-107.45"/>
<polygon fill="black" stroke="black" points="354.07,-110.95 364.05,-107.39 354.03,-103.95 354.07,-110.95"/>
</g>
<!-- v7 -->
<g id="node22" class="node">
<title>v7</title>
<ellipse fill="none" stroke="black" cx="192.3" cy="-73.39" rx="27" ry="18"/>
<text text-anchor="middle" x="192.3" y="-69.69" font-family="Times,serif" font-size="14.00">1&#39;1</text>
</g>
<!-- v7&#45;&gt;c32 -->
<g id="edge31" class="edge">
<title>v7:e&#45;&gt;c32:w</title>
<path fill="none" stroke="black" d="M220.3,-73.39C280.87,-73.39 298.12,-83.22 353.95,-84.3"/>
<polygon fill="black" stroke="black" points="354.02,-87.8 364.05,-84.39 354.08,-80.8 354.02,-87.8"/>
</g>
<!-- x8 -->
<g id="node24" class="node">
<title>x8</title>
<path fill="none" stroke="black" d="M620.55,-135.39C620.55,-135.39 671.55,-135.39 671.55,-135.39 677.55,-135.39 683.55,-141.39 683.55,-147.39 683.55,-147.39 683.55,-159.39 683.55,-159.39 683.55,-165.39 677.55,-171.39 671.55,-171.39 671.55,-171.39 620.55,-171.39 620.55,-171.39 614.55,-171.39 608.55,-165.39 608.55,-159.39 608.55,-159.39 608.55,-147.39 608.55,-147.39 608.55,-141.39 614.55,-135.39 620.55,-135.39"/>
<text text-anchor="middle" x="646.05" y="-149.69" font-family="Times,serif" font-size="14.00">0:0 &#45; 7:7</text>
</g>
<!-- c32&#45;&gt;x8 -->
<g id="edge2" class="edge">
<title>c32:e&#45;&gt;x8:w</title>
<path fill="none" stroke="black" d="M488.32,-85.26C538.29,-92.69 544.87,-145.19 594.91,-152.54"/>
<polygon fill="none" stroke="black" points="488.02,-85.24 481.75,-88.81 476.05,-84.39 482.32,-80.83 488.02,-85.24"/>
<polygon fill="none" stroke="black" points="595.08,-152.55 601.34,-148.98 607.05,-153.39 600.78,-156.96 595.08,-152.55"/>
</g>
<!-- n3 -->
<g id="node27" class="node">
<title>n3</title>
<ellipse fill="black" stroke="black" cx="777.85" cy="-163.39" rx="1.8" ry="1.8"/>
</g>
<!-- x8&#45;&gt;n3 -->
<g id="edge16" class="edge">
<title>x8:e&#45;&gt;n3:w</title>
<path fill="none" stroke="black" stroke-width="3" d="M685.05,-153.39C722.08,-153.39 733.38,-161.68 765.79,-163.16"/>
<polygon fill="black" stroke="black" stroke-width="3" points="765.97,-166.67 776.05,-163.39 766.13,-159.67 765.97,-166.67"/>
<text text-anchor="middle" x="741.05" y="-167.19" font-family="Times,serif" font-size="14.00">&lt;7&gt;</text>
</g>
<!-- x9 -->
<g id="node25" class="node">
<title>x9</title>
<path fill="none" stroke="black" d="M861.65,-132.39C861.65,-132.39 934.65,-132.39 934.65,-132.39 940.65,-132.39 946.65,-138.39 946.65,-144.39 946.65,-144.39 946.65,-156.39 946.65,-156.39 946.65,-162.39 940.65,-168.39 934.65,-168.39 934.65,-168.39 861.65,-168.39 861.65,-168.39 855.65,-168.39 849.65,-162.39 849.65,-156.39 849.65,-156.39 849.65,-144.39 849.65,-144.39 849.65,-138.39 855.65,-132.39 861.65,-132.39"/>
<text text-anchor="middle" x="898.15" y="-146.69" font-family="Times,serif" font-size="14.00">7x 7:7 &#45; 6:0</text>
</g>
<!-- x10 -->
<g id="node26" class="node">
<title>x10</title>
<path fill="none" stroke="black" d="M1051.15,-154.39C1051.15,-154.39 1102.15,-154.39 1102.15,-154.39 1108.15,-154.39 1114.15,-160.39 1114.15,-166.39 1114.15,-166.39 1114.15,-178.39 1114.15,-178.39 1114.15,-184.39 1108.15,-190.39 1102.15,-190.39 1102.15,-190.39 1051.15,-190.39 1051.15,-190.39 1045.15,-190.39 1039.15,-184.39 1039.15,-178.39 1039.15,-178.39 1039.15,-166.39 1039.15,-166.39 1039.15,-160.39 1045.15,-154.39 1051.15,-154.39"/>
<text text-anchor="middle" x="1076.65" y="-168.69" font-family="Times,serif" font-size="14.00">6:0 &#45; 6:0</text>
</g>
<!-- x9&#45;&gt;x10 -->
<g id="edge3" class="edge">
<title>x9:e&#45;&gt;x10:w</title>
<path fill="none" stroke="black" stroke-width="3" d="M958.76,-151.07C986.58,-154.35 997.75,-168.46 1025.6,-171.72"/>
<polygon fill="none" stroke="black" stroke-width="3" points="958.63,-151.07 952.41,-154.72 946.65,-150.39 952.86,-146.74 958.63,-151.07"/>
<polygon fill="none" stroke="black" stroke-width="3" points="1025.67,-171.72 1031.88,-168.06 1037.65,-172.39 1031.43,-176.05 1025.67,-171.72"/>
<text text-anchor="middle" x="981.65" y="-168.19" font-family="Times,serif" font-size="14.00">&lt;7&gt;</text>
</g>
<!-- x10&#45;&gt;n3 -->
<g id="edge15" class="edge">
<title>x10:e&#45;&gt;n3:w</title>
<path fill="none" stroke="black" stroke-width="3" d="M1115.65,-172.39C1123.88,-172.39 1120.63,-185.23 1114.65,-190.89 1090.29,-213.97 1072.69,-191.69 1039.15,-190.89 985.44,-189.61 848.77,-195.91 797.65,-179.39 792.77,-177.82 785.9,-174.8 780.4,-171.81"/>
<polygon fill="black" stroke="black" stroke-width="3" points="783.28,-169.81 774.85,-163.39 777.43,-173.67 783.28,-169.81"/>
<text text-anchor="middle" x="898.15" y="-195.19" font-family="Times,serif" font-size="14.00">&lt;7&gt;</text>
</g>
<!-- n3&#45;&gt;x3 -->
<g id="edge17" class="edge">
<title>n3:e&#45;&gt;x3:w</title>
<path fill="none" stroke="black" stroke-width="3" d="M779.65,-163.39C800.78,-163.39 788.39,-188.4 797.65,-207.39 816.39,-245.83 805.29,-290.38 839.37,-297.43"/>
<polygon fill="black" stroke="black" stroke-width="3" points="839.37,-300.94 849.65,-298.39 840.02,-293.98 839.37,-300.94"/>
<text text-anchor="middle" x="814.65" y="-299.19" font-family="Times,serif" font-size="14.00">&lt;7&gt;</text>
</g>
<!-- n3&#45;&gt;x9 -->
<g id="edge18" class="edge">
<title>n3:e&#45;&gt;x9:w</title>
<path fill="none" stroke="black" stroke-width="3" d="M779.65,-163.39C807.58,-163.39 816.09,-153.26 839.47,-150.88"/>
<polygon fill="black" stroke="black" stroke-width="3" points="839.83,-154.37 849.65,-150.39 839.49,-147.38 839.83,-154.37"/>
<text text-anchor="middle" x="814.65" y="-166.19" font-family="Times,serif" font-size="14.00">&lt;7&gt;</text>
</g>
</g>
</svg>
