<?xml version="1.0" encoding="UTF-8" standalone="no"?>
<!DOCTYPE svg PUBLIC "-//W3C//DTD SVG 1.1//EN"
 "http://www.w3.org/Graphics/SVG/1.1/DTD/svg11.dtd">
<!-- Generated by graphviz version 2.43.0 (0)
 -->
<!-- Title: example Pages: 1 -->
<svg width="1500pt" height="551pt"
 viewBox="0.00 0.00 1499.79 551.14" xmlns="http://www.w3.org/2000/svg" xmlns:xlink="http://www.w3.org/1999/xlink">
<g id="graph0" class="graph" transform="scale(1 1) rotate(0) translate(4 547.14)">
<title>example</title>
<polygon fill="white" stroke="transparent" points="-4,4 -4,-547.14 1495.79,-547.14 1495.79,4 -4,4"/>
<text text-anchor="middle" x="745.9" y="-7.8" font-family="Times,serif" font-size="14.00">example</text>
<!-- n5 -->
<g id="node1" class="node">
<title>n5</title>
<polygon fill="none" stroke="black" points="105.77,-175.68 105.77,-190.6 76.78,-201.14 35.78,-201.14 6.79,-190.6 6.79,-175.68 35.78,-165.14 76.78,-165.14 105.77,-175.68"/>
<text text-anchor="middle" x="56.28" y="-179.44" font-family="Times,serif" font-size="14.00">addr_in</text>
</g>
<!-- c20 -->
<g id="node11" class="node">
<title>c20</title>
<polygon fill="none" stroke="black" points="324.05,-160.64 324.05,-229.64 433.05,-229.64 433.05,-160.64 324.05,-160.64"/>
<text text-anchor="middle" x="337.55" y="-214.44" font-family="Times,serif" font-size="14.00">A</text>
<polyline fill="none" stroke="black" points="324.05,-206.64 351.05,-206.64 "/>
<text text-anchor="middle" x="337.55" y="-191.44" font-family="Times,serif" font-size="14.00">B</text>
<polyline fill="none" stroke="black" points="324.05,-183.64 351.05,-183.64 "/>
<text text-anchor="middle" x="337.55" y="-168.44" font-family="Times,serif" font-size="14.00">S</text>
<polyline fill="none" stroke="black" points="351.05,-160.64 351.05,-229.64 "/>
<text text-anchor="middle" x="379.05" y="-198.94" font-family="Times,serif" font-size="14.00">$13</text>
<text text-anchor="middle" x="379.05" y="-183.94" font-family="Times,serif" font-size="14.00">$mux</text>
<polyline fill="none" stroke="black" points="407.05,-160.64 407.05,-229.64 "/>
<text text-anchor="middle" x="420.05" y="-191.44" font-family="Times,serif" font-size="14.00">Y</text>
</g>
<!-- n5&#45;&gt;c20 -->
<g id="edge14" class="edge">
<title>n5:e&#45;&gt;c20:w</title>
<path fill="none" stroke="black" stroke-width="3" d="M106.28,-183.14C171.98,-183.14 188.51,-182.52 254.05,-187.14 281.62,-189.08 290.66,-193.83 313.95,-194.92"/>
<polygon fill="black" stroke="black" stroke-width="3" points="313.97,-198.42 324.05,-195.14 314.13,-191.42 313.97,-198.42"/>
<text text-anchor="middle" x="192.3" y="-190.94" font-family="Times,serif" font-size="14.00">&lt;2&gt;</text>
</g>
<!-- n6 -->
<g id="node2" class="node">
<title>n6</title>
<polygon fill="none" stroke="black" points="112.34,-497.68 112.34,-512.6 79.5,-523.14 33.06,-523.14 0.22,-512.6 0.22,-497.68 33.06,-487.14 79.5,-487.14 112.34,-497.68"/>
<text text-anchor="middle" x="56.28" y="-501.44" font-family="Times,serif" font-size="14.00">addr_out</text>
</g>
<!-- c30 -->
<g id="node18" class="node">
<title>c30</title>
<polygon fill="none" stroke="black" points="886.05,-318.64 886.05,-479.64 1122.05,-479.64 1122.05,-318.64 886.05,-318.64"/>
<text text-anchor="middle" x="931.55" y="-464.44" font-family="Times,serif" font-size="14.00">RD_ADDR</text>
<polyline fill="none" stroke="black" points="886.05,-456.64 977.05,-456.64 "/>
<text text-anchor="middle" x="931.55" y="-441.44" font-family="Times,serif" font-size="14.00">RD_CLK</text>
<polyline fill="none" stroke="black" points="886.05,-433.64 977.05,-433.64 "/>
<text text-anchor="middle" x="931.55" y="-418.44" font-family="Times,serif" font-size="14.00">RD_EN</text>
<polyline fill="none" stroke="black" points="886.05,-410.64 977.05,-410.64 "/>
<text text-anchor="middle" x="931.55" y="-395.44" font-family="Times,serif" font-size="14.00">WR_ADDR</text>
<polyline fill="none" stroke="black" points="886.05,-387.64 977.05,-387.64 "/>
<text text-anchor="middle" x="931.55" y="-372.44" font-family="Times,serif" font-size="14.00">WR_CLK</text>
<polyline fill="none" stroke="black" points="886.05,-364.64 977.05,-364.64 "/>
<text text-anchor="middle" x="931.55" y="-349.44" font-family="Times,serif" font-size="14.00">WR_DATA</text>
<polyline fill="none" stroke="black" points="886.05,-341.64 977.05,-341.64 "/>
<text text-anchor="middle" x="931.55" y="-326.44" font-family="Times,serif" font-size="14.00">WR_EN</text>
<polyline fill="none" stroke="black" points="977.05,-318.64 977.05,-479.64 "/>
<text text-anchor="middle" x="1007.55" y="-402.94" font-family="Times,serif" font-size="14.00">mem</text>
<text text-anchor="middle" x="1007.55" y="-387.94" font-family="Times,serif" font-size="14.00">$mem</text>
<polyline fill="none" stroke="black" points="1038.05,-318.64 1038.05,-479.64 "/>
<text text-anchor="middle" x="1080.05" y="-395.44" font-family="Times,serif" font-size="14.00">RD_DATA</text>
</g>
<!-- n6&#45;&gt;c30 -->
<g id="edge15" class="edge">
<title>n6:e&#45;&gt;c30:w</title>
<path fill="none" stroke="black" stroke-width="3" d="M112.56,-505.14C190.55,-505.14 210.05,-505.14 288.05,-505.14 288.05,-505.14 288.05,-505.14 768.55,-505.14 819.77,-505.14 830.07,-472.76 876.02,-468.58"/>
<polygon fill="black" stroke="black" stroke-width="3" points="876.21,-472.08 886.05,-468.14 875.9,-465.08 876.21,-472.08"/>
<text text-anchor="middle" x="507.55" y="-508.94" font-family="Times,serif" font-size="14.00">&lt;2&gt;</text>
</g>
<!-- n7 -->
<g id="node3" class="node">
<title>n7</title>
<polygon fill="none" stroke="black" points="83.28,-420.68 83.28,-435.6 67.46,-446.14 45.1,-446.14 29.28,-435.6 29.28,-420.68 45.1,-410.14 67.46,-410.14 83.28,-420.68"/>
<text text-anchor="middle" x="56.28" y="-424.44" font-family="Times,serif" font-size="14.00">clk</text>
</g>
<!-- c14 -->
<g id="node7" class="node">
<title>c14</title>
<polygon fill="none" stroke="black" points="1192.05,-475.14 1192.05,-521.14 1312.05,-521.14 1312.05,-475.14 1192.05,-475.14"/>
<text text-anchor="middle" x="1215.55" y="-505.94" font-family="Times,serif" font-size="14.00">CLK</text>
<polyline fill="none" stroke="black" points="1192.05,-498.14 1239.05,-498.14 "/>
<text text-anchor="middle" x="1215.55" y="-482.94" font-family="Times,serif" font-size="14.00">D</text>
<polyline fill="none" stroke="black" points="1239.05,-475.14 1239.05,-521.14 "/>
<text text-anchor="middle" x="1261.55" y="-501.94" font-family="Times,serif" font-size="14.00">$15</text>
<text text-anchor="middle" x="1261.55" y="-486.94" font-family="Times,serif" font-size="14.00">$dff</text>
<polyline fill="none" stroke="black" points="1284.05,-475.14 1284.05,-521.14 "/>
<text text-anchor="middle" x="1298.05" y="-494.44" font-family="Times,serif" font-size="14.00">Q</text>
</g>
<!-- n7&#45;&gt;c14 -->
<g id="edge16" class="edge">
<title>n7:e&#45;&gt;c14:w</title>
<path fill="none" stroke="black" d="M84.28,-428.14C106.36,-428.14 448.32,-520.17 470.05,-524.14 540.93,-537.09 559,-543.14 631.05,-543.14 631.05,-543.14 631.05,-543.14 1005.05,-543.14 1085.98,-543.14 1106.05,-512.79 1181.99,-510.3"/>
<polygon fill="black" stroke="black" points="1182.11,-513.8 1192.05,-510.14 1181.99,-506.8 1182.11,-513.8"/>
</g>
<!-- n7&#45;&gt;c30 -->
<g id="edge17" class="edge">
<title>n7:e&#45;&gt;c30:w</title>
<path fill="none" stroke="black" d="M84.28,-428.14C321.73,-428.14 377.99,-380.72 615.05,-367.14 653.21,-364.95 662.84,-366.21 701.05,-367.14 779.81,-369.05 801.86,-375.55 875.77,-376.1"/>
<polygon fill="black" stroke="black" points="876.04,-379.6 886.05,-376.14 876.06,-372.6 876.04,-379.6"/>
</g>
<!-- n8 -->
<g id="node4" class="node">
<title>n8</title>
<polygon fill="none" stroke="black" points="103.95,-302.68 103.95,-317.6 76.03,-328.14 36.53,-328.14 8.6,-317.6 8.6,-302.68 36.53,-292.14 76.03,-292.14 103.95,-302.68"/>
<text text-anchor="middle" x="56.28" y="-306.44" font-family="Times,serif" font-size="14.00">data_in</text>
</g>
<!-- c19 -->
<g id="node9" class="node">
<title>c19</title>
<polygon fill="none" stroke="black" points="324.05,-277.64 324.05,-346.64 433.05,-346.64 433.05,-277.64 324.05,-277.64"/>
<text text-anchor="middle" x="337.55" y="-331.44" font-family="Times,serif" font-size="14.00">A</text>
<polyline fill="none" stroke="black" points="324.05,-323.64 351.05,-323.64 "/>
<text text-anchor="middle" x="337.55" y="-308.44" font-family="Times,serif" font-size="14.00">B</text>
<polyline fill="none" stroke="black" points="324.05,-300.64 351.05,-300.64 "/>
<text text-anchor="middle" x="337.55" y="-285.44" font-family="Times,serif" font-size="14.00">S</text>
<polyline fill="none" stroke="black" points="351.05,-277.64 351.05,-346.64 "/>
<text text-anchor="middle" x="379.05" y="-315.94" font-family="Times,serif" font-size="14.00">$11</text>
<text text-anchor="middle" x="379.05" y="-300.94" font-family="Times,serif" font-size="14.00">$mux</text>
<polyline fill="none" stroke="black" points="407.05,-277.64 407.05,-346.64 "/>
<text text-anchor="middle" x="420.05" y="-308.44" font-family="Times,serif" font-size="14.00">Y</text>
</g>
<!-- n8&#45;&gt;c19 -->
<g id="edge18" class="edge">
<title>n8:e&#45;&gt;c19:w</title>
<path fill="none" stroke="black" stroke-width="3" d="M105.28,-310.14C199,-310.14 224.96,-312 313.79,-312.13"/>
<polygon fill="black" stroke="black" stroke-width="3" points="314.05,-315.63 324.05,-312.14 314.05,-308.63 314.05,-315.63"/>
<text text-anchor="middle" x="192.3" y="-314.94" font-family="Times,serif" font-size="14.00">&lt;8&gt;</text>
</g>
<!-- n9 -->
<g id="node5" class="node">
<title>n9</title>
<polygon fill="none" stroke="black" points="1491.67,-490.68 1491.67,-505.6 1459.6,-516.14 1414.24,-516.14 1382.18,-505.6 1382.18,-490.68 1414.24,-480.14 1459.6,-480.14 1491.67,-490.68"/>
<text text-anchor="middle" x="1436.92" y="-494.44" font-family="Times,serif" font-size="14.00">data_out</text>
</g>
<!-- n10 -->
<g id="node6" class="node">
<title>n10</title>
<polygon fill="none" stroke="black" points="111.02,-121.68 111.02,-136.6 78.96,-147.14 33.6,-147.14 1.53,-136.6 1.53,-121.68 33.6,-111.14 78.96,-111.14 111.02,-121.68"/>
<text text-anchor="middle" x="56.28" y="-125.44" font-family="Times,serif" font-size="14.00">write_en</text>
</g>
<!-- n10&#45;&gt;c19 -->
<g id="edge5" class="edge">
<title>n10:e&#45;&gt;c19:w</title>
<path fill="none" stroke="black" d="M112.28,-129.14C140.79,-129.14 110.66,-235.72 130.56,-256.14 189.06,-316.18 233.24,-291.3 314.01,-289.27"/>
<polygon fill="black" stroke="black" points="314.09,-292.77 324.05,-289.14 314,-285.77 314.09,-292.77"/>
</g>
<!-- n10&#45;&gt;c20 -->
<g id="edge6" class="edge">
<title>n10:e&#45;&gt;c20:w</title>
<path fill="none" stroke="black" d="M112.28,-129.14C134.04,-129.14 270.56,-164.46 313.84,-171.08"/>
<polygon fill="black" stroke="black" points="313.74,-174.58 324.05,-172.14 314.46,-167.62 313.74,-174.58"/>
</g>
<!-- c21 -->
<g id="node14" class="node">
<title>c21</title>
<polygon fill="none" stroke="black" points="324.05,-42.64 324.05,-111.64 433.05,-111.64 433.05,-42.64 324.05,-42.64"/>
<text text-anchor="middle" x="337.55" y="-96.44" font-family="Times,serif" font-size="14.00">A</text>
<polyline fill="none" stroke="black" points="324.05,-88.64 351.05,-88.64 "/>
<text text-anchor="middle" x="337.55" y="-73.44" font-family="Times,serif" font-size="14.00">B</text>
<polyline fill="none" stroke="black" points="324.05,-65.64 351.05,-65.64 "/>
<text text-anchor="middle" x="337.55" y="-50.44" font-family="Times,serif" font-size="14.00">S</text>
<polyline fill="none" stroke="black" points="351.05,-42.64 351.05,-111.64 "/>
<text text-anchor="middle" x="379.05" y="-80.94" font-family="Times,serif" font-size="14.00">$9</text>
<text text-anchor="middle" x="379.05" y="-65.94" font-family="Times,serif" font-size="14.00">$mux</text>
<polyline fill="none" stroke="black" points="407.05,-42.64 407.05,-111.64 "/>
<text text-anchor="middle" x="420.05" y="-73.44" font-family="Times,serif" font-size="14.00">Y</text>
</g>
<!-- n10&#45;&gt;c21 -->
<g id="edge7" class="edge">
<title>n10:e&#45;&gt;c21:w</title>
<path fill="none" stroke="black" d="M112.28,-129.14C150.49,-129.14 100.81,-69.11 130.56,-45.14 194.84,6.66 234.6,-49.17 313.68,-53.83"/>
<polygon fill="black" stroke="black" points="313.95,-57.34 324.05,-54.14 314.16,-50.35 313.95,-57.34"/>
</g>
<!-- c14&#45;&gt;n9 -->
<g id="edge19" class="edge">
<title>c14:e&#45;&gt;n9:w</title>
<path fill="none" stroke="black" stroke-width="3" d="M1312.05,-498.14C1339.51,-498.14 1348.79,-498.14 1372,-498.14"/>
<polygon fill="black" stroke="black" stroke-width="3" points="1372.05,-501.64 1382.05,-498.14 1372.05,-494.64 1372.05,-501.64"/>
<text text-anchor="middle" x="1347.05" y="-501.94" font-family="Times,serif" font-size="14.00">&lt;8&gt;</text>
</g>
<!-- v0 -->
<g id="node8" class="node">
<title>v0</title>
<ellipse fill="none" stroke="black" cx="192.3" cy="-356.14" rx="61.99" ry="18"/>
<text text-anchor="middle" x="192.3" y="-352.44" font-family="Times,serif" font-size="14.00">8&#39;xxxxxxxx</text>
</g>
<!-- v0&#45;&gt;c19 -->
<g id="edge20" class="edge">
<title>v0:e&#45;&gt;c19:w</title>
<path fill="none" stroke="black" stroke-width="3" d="M254.05,-356.14C282.85,-356.14 290.07,-339.63 313.99,-335.89"/>
<polygon fill="black" stroke="black" stroke-width="3" points="314.33,-339.37 324.05,-335.14 313.82,-332.39 314.33,-339.37"/>
<text text-anchor="middle" x="289.05" y="-356.94" font-family="Times,serif" font-size="14.00">&lt;8&gt;</text>
</g>
<!-- c19&#45;&gt;c30 -->
<g id="edge8" class="edge">
<title>c19:e&#45;&gt;c30:w</title>
<path fill="none" stroke="black" stroke-width="3" d="M433.05,-312.14C465.74,-312.14 473.85,-315.14 506.55,-315.14 506.55,-315.14 506.55,-315.14 768.55,-315.14 814.04,-315.14 827.06,-319.4 868.05,-339.14 872.9,-341.48 874.82,-345.28 877.07,-348.34"/>
<polygon fill="black" stroke="black" stroke-width="3" points="875.58,-351.51 886.05,-353.14 878.88,-345.34 875.58,-351.51"/>
<text text-anchor="middle" x="632.05" y="-318.94" font-family="Times,serif" font-size="14.00">&lt;8&gt;</text>
</g>
<!-- v1 -->
<g id="node10" class="node">
<title>v1</title>
<ellipse fill="none" stroke="black" cx="192.3" cy="-229.14" rx="29.8" ry="18"/>
<text text-anchor="middle" x="192.3" y="-225.44" font-family="Times,serif" font-size="14.00">2&#39;xx</text>
</g>
<!-- v1&#45;&gt;c20 -->
<g id="edge21" class="edge">
<title>v1:e&#45;&gt;c20:w</title>
<path fill="none" stroke="black" stroke-width="3" d="M223.3,-229.14C264.65,-229.14 277.03,-219.87 313.62,-218.35"/>
<polygon fill="black" stroke="black" stroke-width="3" points="314.12,-221.84 324.05,-218.14 313.98,-214.84 314.12,-221.84"/>
<text text-anchor="middle" x="289.05" y="-226.94" font-family="Times,serif" font-size="14.00">&lt;2&gt;</text>
</g>
<!-- c20&#45;&gt;c30 -->
<g id="edge4" class="edge">
<title>c20:e&#45;&gt;c30:w</title>
<path fill="none" stroke="black" stroke-width="3" d="M433.05,-195.14C562.12,-195.14 546.04,-322.24 667.05,-367.14 756.03,-400.15 785.6,-399.25 875.93,-399.15"/>
<polygon fill="black" stroke="black" stroke-width="3" points="876.05,-402.65 886.05,-399.14 876.05,-395.65 876.05,-402.65"/>
<text text-anchor="middle" x="632.05" y="-362.94" font-family="Times,serif" font-size="14.00">&lt;2&gt;</text>
</g>
<!-- v2 -->
<g id="node12" class="node">
<title>v2</title>
<ellipse fill="none" stroke="black" cx="192.3" cy="-108.14" rx="27" ry="18"/>
<text text-anchor="middle" x="192.3" y="-104.44" font-family="Times,serif" font-size="14.00">1&#39;0</text>
</g>
<!-- v2&#45;&gt;c21 -->
<g id="edge22" class="edge">
<title>v2:e&#45;&gt;c21:w</title>
<path fill="none" stroke="black" d="M220.3,-108.14C262.94,-108.14 275.83,-101.34 313.82,-100.28"/>
<polygon fill="black" stroke="black" points="314.1,-103.78 324.05,-100.14 314,-96.78 314.1,-103.78"/>
</g>
<!-- v3 -->
<g id="node13" class="node">
<title>v3</title>
<ellipse fill="none" stroke="black" cx="192.3" cy="-67.14" rx="27" ry="18"/>
<text text-anchor="middle" x="192.3" y="-63.44" font-family="Times,serif" font-size="14.00">1&#39;1</text>
</g>
<!-- v3&#45;&gt;c21 -->
<g id="edge23" class="edge">
<title>v3:e&#45;&gt;c21:w</title>
<path fill="none" stroke="black" d="M220.3,-67.14C263.01,-67.14 275.78,-75.64 313.8,-76.97"/>
<polygon fill="black" stroke="black" points="313.99,-80.47 324.05,-77.14 314.11,-73.47 313.99,-80.47"/>
</g>
<!-- x4 -->
<g id="node15" class="node">
<title>x4</title>
<path fill="none" stroke="black" d="M482.05,-94.14C482.05,-94.14 533.05,-94.14 533.05,-94.14 539.05,-94.14 545.05,-100.14 545.05,-106.14 545.05,-106.14 545.05,-118.14 545.05,-118.14 545.05,-124.14 539.05,-130.14 533.05,-130.14 533.05,-130.14 482.05,-130.14 482.05,-130.14 476.05,-130.14 470.05,-124.14 470.05,-118.14 470.05,-118.14 470.05,-106.14 470.05,-106.14 470.05,-100.14 476.05,-94.14 482.05,-94.14"/>
<text text-anchor="middle" x="507.55" y="-108.44" font-family="Times,serif" font-size="14.00">0:0 &#45; 7:7</text>
</g>
<!-- c21&#45;&gt;x4 -->
<g id="edge1" class="edge">
<title>c21:e&#45;&gt;x4:w</title>
<path fill="none" stroke="black" d="M444.39,-81.72C450.81,-88.39 452.23,-100.72 458.6,-107.45"/>
<polygon fill="none" stroke="black" points="444.18,-81.63 437.12,-83.09 433.05,-77.14 440.11,-75.67 444.18,-81.63"/>
<polygon fill="none" stroke="black" points="458.94,-107.59 466.01,-106.16 470.05,-112.14 462.98,-113.57 458.94,-107.59"/>
</g>
<!-- n3 -->
<g id="node22" class="node">
<title>n3</title>
<ellipse fill="black" stroke="black" cx="632.05" cy="-195.14" rx="1.8" ry="1.8"/>
</g>
<!-- x4&#45;&gt;n3 -->
<g id="edge9" class="edge">
<title>x4:e&#45;&gt;n3:w</title>
<path fill="none" stroke="black" stroke-width="3" d="M545.05,-112.14C593.84,-112.14 579.15,-183.88 619.02,-193.97"/>
<polygon fill="black" stroke="black" stroke-width="3" points="618.71,-197.45 629.05,-195.14 619.52,-190.5 618.71,-197.45"/>
<text text-anchor="middle" x="580.05" y="-177.94" font-family="Times,serif" font-size="14.00">&lt;7&gt;</text>
</g>
<!-- v5 -->
<g id="node16" class="node">
<title>v5</title>
<ellipse fill="none" stroke="black" cx="767.55" cy="-469.14" rx="27" ry="18"/>
<text text-anchor="middle" x="767.55" y="-465.44" font-family="Times,serif" font-size="14.00">1&#39;x</text>
</g>
<!-- v5&#45;&gt;c30 -->
<g id="edge24" class="edge">
<title>v5:e&#45;&gt;c30:w</title>
<path fill="none" stroke="black" d="M795.55,-469.14C833.58,-469.14 842.93,-449.09 876.04,-445.64"/>
<polygon fill="black" stroke="black" points="876.24,-449.14 886.05,-445.14 875.89,-442.14 876.24,-449.14"/>
</g>
<!-- v6 -->
<g id="node17" class="node">
<title>v6</title>
<ellipse fill="none" stroke="black" cx="767.55" cy="-428.14" rx="27" ry="18"/>
<text text-anchor="middle" x="767.55" y="-424.44" font-family="Times,serif" font-size="14.00">1&#39;x</text>
</g>
<!-- v6&#45;&gt;c30 -->
<g id="edge25" class="edge">
<title>v6:e&#45;&gt;c30:w</title>
<path fill="none" stroke="black" d="M795.55,-428.14C832.24,-428.14 843.72,-423.17 875.88,-422.28"/>
<polygon fill="black" stroke="black" points="876.1,-425.77 886.05,-422.14 876,-418.77 876.1,-425.77"/>
</g>
<!-- c30&#45;&gt;c14 -->
<g id="edge13" class="edge">
<title>c30:e&#45;&gt;c14:w</title>
<path fill="none" stroke="black" stroke-width="3" d="M1122.05,-399.14C1167.8,-399.14 1146.51,-473.08 1181.79,-484.63"/>
<polygon fill="black" stroke="black" stroke-width="3" points="1181.64,-488.15 1192.05,-486.14 1182.66,-481.22 1181.64,-488.15"/>
<text text-anchor="middle" x="1157.05" y="-483.94" font-family="Times,serif" font-size="14.00">&lt;8&gt;</text>
</g>
<!-- x7 -->
<g id="node19" class="node">
<title>x7</title>
<path fill="none" stroke="black" d="M731.05,-252.14C731.05,-252.14 804.05,-252.14 804.05,-252.14 810.05,-252.14 816.05,-258.14 816.05,-264.14 816.05,-264.14 816.05,-276.14 816.05,-276.14 816.05,-282.14 810.05,-288.14 804.05,-288.14 804.05,-288.14 731.05,-288.14 731.05,-288.14 725.05,-288.14 719.05,-282.14 719.05,-276.14 719.05,-276.14 719.05,-264.14 719.05,-264.14 719.05,-258.14 725.05,-252.14 731.05,-252.14"/>
<text text-anchor="middle" x="767.55" y="-266.44" font-family="Times,serif" font-size="14.00">8x 7:7 &#45; 7:0</text>
</g>
<!-- x7&#45;&gt;c30 -->
<g id="edge2" class="edge">
<title>x7:e&#45;&gt;c30:w</title>
<path fill="none" stroke="black" stroke-width="3" d="M828.3,-270.22C844.24,-270.61 853.55,-272.89 868.05,-286.14 879.01,-296.16 873.01,-313.84 875.83,-323.46"/>
<polygon fill="none" stroke="black" stroke-width="3" points="828.05,-270.22 822.02,-274.18 816.05,-270.14 822.07,-266.18 828.05,-270.22"/>
<polygon fill="none" stroke="black" stroke-width="3" points="876,-323.57 883.21,-323.51 886.05,-330.14 878.84,-330.2 876,-323.57"/>
<text text-anchor="middle" x="851.05" y="-289.94" font-family="Times,serif" font-size="14.00">&lt;8&gt;</text>
</g>
<!-- x8 -->
<g id="node20" class="node">
<title>x8</title>
<path fill="none" stroke="black" d="M731.05,-156.14C731.05,-156.14 804.05,-156.14 804.05,-156.14 810.05,-156.14 816.05,-162.14 816.05,-168.14 816.05,-168.14 816.05,-180.14 816.05,-180.14 816.05,-186.14 810.05,-192.14 804.05,-192.14 804.05,-192.14 731.05,-192.14 731.05,-192.14 725.05,-192.14 719.05,-186.14 719.05,-180.14 719.05,-180.14 719.05,-168.14 719.05,-168.14 719.05,-162.14 725.05,-156.14 731.05,-156.14"/>
<text text-anchor="middle" x="767.55" y="-170.44" font-family="Times,serif" font-size="14.00">7x 7:7 &#45; 6:0</text>
</g>
<!-- x9 -->
<g id="node21" class="node">
<title>x9</title>
<path fill="none" stroke="black" d="M978.55,-177.14C978.55,-177.14 1029.55,-177.14 1029.55,-177.14 1035.55,-177.14 1041.55,-183.14 1041.55,-189.14 1041.55,-189.14 1041.55,-201.14 1041.55,-201.14 1041.55,-207.14 1035.55,-213.14 1029.55,-213.14 1029.55,-213.14 978.55,-213.14 978.55,-213.14 972.55,-213.14 966.55,-207.14 966.55,-201.14 966.55,-201.14 966.55,-189.14 966.55,-189.14 966.55,-183.14 972.55,-177.14 978.55,-177.14"/>
<text text-anchor="middle" x="1004.05" y="-191.44" font-family="Times,serif" font-size="14.00">6:0 &#45; 6:0</text>
</g>
<!-- x8&#45;&gt;x9 -->
<g id="edge3" class="edge">
<title>x8:e&#45;&gt;x9:w</title>
<path fill="none" stroke="black" stroke-width="3" d="M828.36,-174.39C881.23,-176.6 899.92,-192.7 952.82,-194.89"/>
<polygon fill="none" stroke="black" stroke-width="3" points="828.05,-174.38 821.97,-178.26 816.05,-174.14 822.13,-170.26 828.05,-174.38"/>
<polygon fill="none" stroke="black" stroke-width="3" points="953.05,-194.9 959.13,-191.02 965.05,-195.14 958.97,-199.02 953.05,-194.9"/>
<text text-anchor="middle" x="851.05" y="-182.94" font-family="Times,serif" font-size="14.00">&lt;7&gt;</text>
</g>
<!-- x9&#45;&gt;n3 -->
<g id="edge10" class="edge">
<title>x9:e&#45;&gt;n3:w</title>
<path fill="none" stroke="black" stroke-width="3" d="M1043.05,-195.14C1051.28,-195.14 1048.03,-207.98 1042.05,-213.64 1017.69,-236.72 1000.1,-214.23 966.55,-213.64 833.38,-211.31 799.57,-216.51 667.05,-203.14 659.4,-202.37 647.61,-200.7 638.4,-199.08"/>
<polygon fill="black" stroke="black" stroke-width="3" points="639.62,-195.8 629.05,-195.14 636.9,-202.25 639.62,-195.8"/>
<text text-anchor="middle" x="767.55" y="-215.94" font-family="Times,serif" font-size="14.00">&lt;7&gt;</text>
</g>
<!-- n3&#45;&gt;x7 -->
<g id="edge11" class="edge">
<title>n3:e&#45;&gt;x7:w</title>
<path fill="none" stroke="black" stroke-width="3" d="M635.05,-195.14C656.46,-195.14 651.29,-216.64 667.05,-231.14 685.48,-248.1 689.32,-264.97 708.86,-269.16"/>
<polygon fill="black" stroke="black" stroke-width="3" points="708.76,-272.66 719.05,-270.14 709.43,-265.69 708.76,-272.66"/>
<text text-anchor="middle" x="684.05" y="-268.94" font-family="Times,serif" font-size="14.00">&lt;7&gt;</text>
</g>
<!-- n3&#45;&gt;x8 -->
<g id="edge12" class="edge">
<title>n3:e&#45;&gt;x8:w</title>
<path fill="none" stroke="black" stroke-width="3" d="M635.05,-195.14C651.43,-195.14 686.87,-179.91 708.91,-175.39"/>
<polygon fill="black" stroke="black" stroke-width="3" points="709.55,-178.84 719.05,-174.14 708.69,-171.89 709.55,-178.84"/>
<text text-anchor="middle" x="684.05" y="-190.94" font-family="Times,serif" font-size="14.00">&lt;7&gt;</text>
</g>
</g>
</svg>
