<?xml version="1.0" encoding="UTF-8" standalone="no"?>
<!DOCTYPE svg PUBLIC "-//W3C//DTD SVG 1.1//EN"
 "http://www.w3.org/Graphics/SVG/1.1/DTD/svg11.dtd">
<!-- Generated by graphviz version 2.43.0 (0)
 -->
<!-- Title: muxtree Pages: 1 -->
<svg width="534pt" height="197pt"
 viewBox="0.00 0.00 534.28 197.00" xmlns="http://www.w3.org/2000/svg" xmlns:xlink="http://www.w3.org/1999/xlink">
<g id="graph0" class="graph" transform="scale(1 1) rotate(0) translate(4 193)">
<title>muxtree</title>
<polygon fill="white" stroke="transparent" points="-4,4 -4,-193 530.28,-193 530.28,4 -4,4"/>
<text text-anchor="middle" x="263.14" y="-7.8" font-family="Times,serif" font-size="14.00">muxtree</text>
<!-- n3 -->
<g id="node1" class="node">
<title>n3</title>
<polygon fill="none" stroke="black" points="526.42,-92.54 526.42,-107.46 509.85,-118 486.43,-118 469.86,-107.46 469.86,-92.54 486.43,-82 509.85,-82 526.42,-92.54"/>
<text text-anchor="middle" x="498.14" y="-96.3" font-family="Times,serif" font-size="14.00">out</text>
</g>
<!-- n4 -->
<g id="node2" class="node">
<title>n4</title>
<polygon fill="none" stroke="black" points="54,-33.54 54,-48.46 38.18,-59 15.82,-59 0,-48.46 0,-33.54 15.82,-23 38.18,-23 54,-33.54"/>
<text text-anchor="middle" x="27" y="-37.3" font-family="Times,serif" font-size="14.00">s</text>
</g>
<!-- c11 -->
<g id="node6" class="node">
<title>c11</title>
<polygon fill="none" stroke="black" points="235,-65.5 235,-134.5 344,-134.5 344,-65.5 235,-65.5"/>
<text text-anchor="middle" x="248.5" y="-119.3" font-family="Times,serif" font-size="14.00">A</text>
<polyline fill="none" stroke="black" points="235,-111.5 262,-111.5 "/>
<text text-anchor="middle" x="248.5" y="-96.3" font-family="Times,serif" font-size="14.00">B</text>
<polyline fill="none" stroke="black" points="235,-88.5 262,-88.5 "/>
<text text-anchor="middle" x="248.5" y="-73.3" font-family="Times,serif" font-size="14.00">S</text>
<polyline fill="none" stroke="black" points="262,-65.5 262,-134.5 "/>
<text text-anchor="middle" x="290" y="-103.8" font-family="Times,serif" font-size="14.00">$2</text>
<text text-anchor="middle" x="290" y="-88.8" font-family="Times,serif" font-size="14.00">$mux</text>
<polyline fill="none" stroke="black" points="318,-65.5 318,-134.5 "/>
<text text-anchor="middle" x="331" y="-96.3" font-family="Times,serif" font-size="14.00">Y</text>
</g>
<!-- n4&#45;&gt;c11 -->
<g id="edge4" class="edge">
<title>n4:e&#45;&gt;c11:w</title>
<path fill="none" stroke="black" d="M54,-41C118.79,-41 137.41,-35.89 199,-56 212.76,-60.49 215.69,-70.78 225.14,-75.07"/>
<polygon fill="black" stroke="black" points="224.51,-78.51 235,-77 225.86,-71.64 224.51,-78.51"/>
</g>
<!-- c12 -->
<g id="node7" class="node">
<title>c12</title>
<polygon fill="none" stroke="black" points="90,-65.5 90,-134.5 199,-134.5 199,-65.5 90,-65.5"/>
<text text-anchor="middle" x="103.5" y="-119.3" font-family="Times,serif" font-size="14.00">A</text>
<polyline fill="none" stroke="black" points="90,-111.5 117,-111.5 "/>
<text text-anchor="middle" x="103.5" y="-96.3" font-family="Times,serif" font-size="14.00">B</text>
<polyline fill="none" stroke="black" points="90,-88.5 117,-88.5 "/>
<text text-anchor="middle" x="103.5" y="-73.3" font-family="Times,serif" font-size="14.00">S</text>
<polyline fill="none" stroke="black" points="117,-65.5 117,-134.5 "/>
<text text-anchor="middle" x="145" y="-103.8" font-family="Times,serif" font-size="14.00">$1</text>
<text text-anchor="middle" x="145" y="-88.8" font-family="Times,serif" font-size="14.00">$mux</text>
<polyline fill="none" stroke="black" points="173,-65.5 173,-134.5 "/>
<text text-anchor="middle" x="186" y="-96.3" font-family="Times,serif" font-size="14.00">Y</text>
</g>
<!-- n4&#45;&gt;c12 -->
<g id="edge5" class="edge">
<title>n4:e&#45;&gt;c12:w</title>
<path fill="none" stroke="black" d="M54,-41C72.38,-41 69.72,-64.77 80.21,-73.68"/>
<polygon fill="black" stroke="black" points="79.41,-77.1 90,-77 81.66,-70.47 79.41,-77.1"/>
</g>
<!-- n5 -->
<g id="node3" class="node">
<title>n5</title>
<polygon fill="none" stroke="black" points="54,-89.54 54,-104.46 38.18,-115 15.82,-115 0,-104.46 0,-89.54 15.82,-79 38.18,-79 54,-89.54"/>
<text text-anchor="middle" x="27" y="-93.3" font-family="Times,serif" font-size="14.00">b</text>
</g>
<!-- n5&#45;&gt;c12 -->
<g id="edge6" class="edge">
<title>n5:e&#45;&gt;c12:w</title>
<path fill="none" stroke="black" d="M54,-97C66.04,-97 71.24,-98.69 79.86,-99.53"/>
<polygon fill="black" stroke="black" points="79.85,-103.03 90,-100 80.17,-96.04 79.85,-103.03"/>
</g>
<!-- n6 -->
<g id="node4" class="node">
<title>n6</title>
<polygon fill="none" stroke="black" points="54,-143.54 54,-158.46 38.18,-169 15.82,-169 0,-158.46 0,-143.54 15.82,-133 38.18,-133 54,-143.54"/>
<text text-anchor="middle" x="27" y="-147.3" font-family="Times,serif" font-size="14.00">a</text>
</g>
<!-- n6&#45;&gt;c12 -->
<g id="edge7" class="edge">
<title>n6:e&#45;&gt;c12:w</title>
<path fill="none" stroke="black" d="M54,-151C70.15,-151 70.55,-133.22 80.3,-126"/>
<polygon fill="black" stroke="black" points="81.48,-129.3 90,-123 79.41,-122.61 81.48,-129.3"/>
</g>
<!-- v0 -->
<g id="node5" class="node">
<title>v0</title>
<ellipse fill="none" stroke="black" cx="144.5" cy="-171" rx="27" ry="18"/>
<text text-anchor="middle" x="144.5" y="-167.3" font-family="Times,serif" font-size="14.00">1&#39;0</text>
</g>
<!-- v0&#45;&gt;c11 -->
<g id="edge8" class="edge">
<title>v0:e&#45;&gt;c11:w</title>
<path fill="none" stroke="black" d="M172.5,-171C203.69,-171 201.12,-132.93 224.92,-124.6"/>
<polygon fill="black" stroke="black" points="225.67,-128.02 235,-123 224.58,-121.11 225.67,-128.02"/>
</g>
<!-- x1 -->
<g id="node8" class="node">
<title>x1</title>
<path fill="none" stroke="black" d="M422,-118C422,-118 392,-118 392,-118 386,-118 380,-112 380,-106 380,-106 380,-94 380,-94 380,-88 386,-82 392,-82 392,-82 422,-82 422,-82 428,-82 434,-88 434,-94 434,-94 434,-106 434,-106 434,-112 428,-118 422,-118"/>
<text text-anchor="middle" x="407" y="-96.3" font-family="Times,serif" font-size="14.00">BUF</text>
</g>
<!-- c11&#45;&gt;x1 -->
<g id="edge1" class="edge">
<title>c11:e&#45;&gt;x1:w</title>
<path fill="none" stroke="black" d="M344,-100C356,-100 361.25,-100 369.88,-100"/>
<polygon fill="black" stroke="black" points="370,-103.5 380,-100 370,-96.5 370,-103.5"/>
</g>
<!-- c12&#45;&gt;c11 -->
<g id="edge2" class="edge">
<title>c12:e&#45;&gt;c11:w</title>
<path fill="none" stroke="black" d="M199,-100C211,-100 216.25,-100 224.88,-100"/>
<polygon fill="black" stroke="black" points="225,-103.5 235,-100 225,-96.5 225,-103.5"/>
</g>
<!-- x1&#45;&gt;n3 -->
<g id="edge3" class="edge">
<title>x1:e&#45;&gt;n3:w</title>
<path fill="none" stroke="black" d="M434,-100C446,-100 451.25,-100 459.88,-100"/>
<polygon fill="black" stroke="black" points="460,-103.5 470,-100 460,-96.5 460,-103.5"/>
</g>
</g>
</svg>
