<?xml version="1.0" encoding="UTF-8" standalone="no"?>
<!DOCTYPE svg PUBLIC "-//W3C//DTD SVG 1.1//EN"
 "http://www.w3.org/Graphics/SVG/1.1/DTD/svg11.dtd">
<!-- Generated by graphviz version 2.43.0 (0)
 -->
<!-- Title: example Pages: 1 -->
<svg width="991pt" height="341pt"
 viewBox="0.00 0.00 990.57 341.00" xmlns="http://www.w3.org/2000/svg" xmlns:xlink="http://www.w3.org/1999/xlink">
<g id="graph0" class="graph" transform="scale(1 1) rotate(0) translate(4 337)">
<title>example</title>
<polygon fill="white" stroke="transparent" points="-4,4 -4,-337 986.57,-337 986.57,4 -4,4"/>
<text text-anchor="middle" x="491.28" y="-7.8" font-family="Times,serif" font-size="14.00">example</text>
<!-- n6 -->
<g id="node1" class="node">
<title>n6</title>
<polygon fill="none" stroke="black" points="137.64,-191 110.64,-173 137.64,-155 164.64,-173 137.64,-191"/>
<text text-anchor="middle" x="137.64" y="-169.3" font-family="Times,serif" font-size="14.00">s</text>
</g>
<!-- c15 -->
<g id="node6" class="node">
<title>c15</title>
<polygon fill="none" stroke="black" points="623.29,-184.5 623.29,-253.5 732.29,-253.5 732.29,-184.5 623.29,-184.5"/>
<text text-anchor="middle" x="636.79" y="-238.3" font-family="Times,serif" font-size="14.00">A</text>
<polyline fill="none" stroke="black" points="623.29,-230.5 650.29,-230.5 "/>
<text text-anchor="middle" x="636.79" y="-215.3" font-family="Times,serif" font-size="14.00">B</text>
<polyline fill="none" stroke="black" points="623.29,-207.5 650.29,-207.5 "/>
<text text-anchor="middle" x="636.79" y="-192.3" font-family="Times,serif" font-size="14.00">S</text>
<polyline fill="none" stroke="black" points="650.29,-184.5 650.29,-253.5 "/>
<text text-anchor="middle" x="678.29" y="-222.8" font-family="Times,serif" font-size="14.00">$5</text>
<text text-anchor="middle" x="678.29" y="-207.8" font-family="Times,serif" font-size="14.00">$mux</text>
<polyline fill="none" stroke="black" points="706.29,-184.5 706.29,-253.5 "/>
<text text-anchor="middle" x="719.29" y="-215.3" font-family="Times,serif" font-size="14.00">Y</text>
</g>
<!-- n6&#45;&gt;c15 -->
<g id="edge8" class="edge">
<title>n6:e&#45;&gt;c15:w</title>
<path fill="none" stroke="black" d="M165.64,-173C361.14,-173 415.76,-139.06 605.29,-187 609.35,-188.03 611.6,-190.07 613.75,-191.95"/>
<polygon fill="black" stroke="black" points="612.72,-195.31 623.29,-196 615.45,-188.87 612.72,-195.31"/>
</g>
<!-- n7 -->
<g id="node2" class="node">
<title>n7</title>
<polygon fill="none" stroke="black" points="982.71,-211.54 982.71,-226.46 966.14,-237 942.71,-237 926.15,-226.46 926.15,-211.54 942.71,-201 966.14,-201 982.71,-211.54"/>
<text text-anchor="middle" x="954.43" y="-215.3" font-family="Times,serif" font-size="14.00">out</text>
</g>
<!-- n8 -->
<g id="node3" class="node">
<title>n8</title>
<polygon fill="none" stroke="black" points="54,-211.54 54,-226.46 38.18,-237 15.82,-237 0,-226.46 0,-211.54 15.82,-201 38.18,-201 54,-211.54"/>
<text text-anchor="middle" x="27" y="-215.3" font-family="Times,serif" font-size="14.00">c</text>
</g>
<!-- c16 -->
<g id="node7" class="node">
<title>c16</title>
<polygon fill="none" stroke="black" points="448.29,-247 448.29,-293 553.29,-293 553.29,-247 448.29,-247"/>
<text text-anchor="middle" x="461.79" y="-277.8" font-family="Times,serif" font-size="14.00">A</text>
<polyline fill="none" stroke="black" points="448.29,-270 475.29,-270 "/>
<text text-anchor="middle" x="461.79" y="-254.8" font-family="Times,serif" font-size="14.00">B</text>
<polyline fill="none" stroke="black" points="475.29,-247 475.29,-293 "/>
<text text-anchor="middle" x="501.29" y="-273.8" font-family="Times,serif" font-size="14.00">$4</text>
<text text-anchor="middle" x="501.29" y="-258.8" font-family="Times,serif" font-size="14.00">$add</text>
<polyline fill="none" stroke="black" points="527.29,-247 527.29,-293 "/>
<text text-anchor="middle" x="540.29" y="-266.3" font-family="Times,serif" font-size="14.00">Y</text>
</g>
<!-- n8&#45;&gt;c16 -->
<g id="edge10" class="edge">
<title>n8:e&#45;&gt;c16:w</title>
<path fill="none" stroke="black" stroke-width="3" d="M54,-219C198.79,-219 234.29,-234.89 378.29,-250 405.78,-252.88 414.88,-256.91 438.18,-257.82"/>
<polygon fill="black" stroke="black" stroke-width="3" points="438.23,-261.32 448.29,-258 438.35,-254.32 438.23,-261.32"/>
<text text-anchor="middle" x="238.29" y="-237.8" font-family="Times,serif" font-size="14.00">&lt;8&gt;</text>
</g>
<!-- n9 -->
<g id="node4" class="node">
<title>n9</title>
<polygon fill="none" stroke="black" points="54,-33.54 54,-48.46 38.18,-59 15.82,-59 0,-48.46 0,-33.54 15.82,-23 38.18,-23 54,-33.54"/>
<text text-anchor="middle" x="27" y="-37.3" font-family="Times,serif" font-size="14.00">b</text>
</g>
<!-- c18 -->
<g id="node10" class="node">
<title>c18</title>
<polygon fill="none" stroke="black" points="448.29,-79 448.29,-125 553.29,-125 553.29,-79 448.29,-79"/>
<text text-anchor="middle" x="461.79" y="-109.8" font-family="Times,serif" font-size="14.00">A</text>
<polyline fill="none" stroke="black" points="448.29,-102 475.29,-102 "/>
<text text-anchor="middle" x="461.79" y="-86.8" font-family="Times,serif" font-size="14.00">B</text>
<polyline fill="none" stroke="black" points="475.29,-79 475.29,-125 "/>
<text text-anchor="middle" x="501.29" y="-105.8" font-family="Times,serif" font-size="14.00">$2</text>
<text text-anchor="middle" x="501.29" y="-90.8" font-family="Times,serif" font-size="14.00">$add</text>
<polyline fill="none" stroke="black" points="527.29,-79 527.29,-125 "/>
<text text-anchor="middle" x="540.29" y="-98.3" font-family="Times,serif" font-size="14.00">Y</text>
</g>
<!-- n9&#45;&gt;c18 -->
<g id="edge11" class="edge">
<title>n9:e&#45;&gt;c18:w</title>
<path fill="none" stroke="black" stroke-width="3" d="M54,-41C199.22,-41 234.21,-62.85 378.29,-81 405.76,-84.46 414.84,-88.83 438.17,-89.8"/>
<polygon fill="black" stroke="black" stroke-width="3" points="438.22,-93.3 448.29,-90 438.36,-86.3 438.22,-93.3"/>
<text text-anchor="middle" x="238.29" y="-64.8" font-family="Times,serif" font-size="14.00">&lt;8&gt;</text>
</g>
<!-- n10 -->
<g id="node5" class="node">
<title>n10</title>
<polygon fill="none" stroke="black" points="54,-142.54 54,-157.46 38.18,-168 15.82,-168 0,-157.46 0,-142.54 15.82,-132 38.18,-132 54,-142.54"/>
<text text-anchor="middle" x="27" y="-146.3" font-family="Times,serif" font-size="14.00">a</text>
</g>
<!-- c17 -->
<g id="node9" class="node">
<title>c17</title>
<polygon fill="none" stroke="black" points="273.29,-259 273.29,-305 378.29,-305 378.29,-259 273.29,-259"/>
<text text-anchor="middle" x="286.79" y="-289.8" font-family="Times,serif" font-size="14.00">A</text>
<polyline fill="none" stroke="black" points="273.29,-282 300.29,-282 "/>
<text text-anchor="middle" x="286.79" y="-266.8" font-family="Times,serif" font-size="14.00">B</text>
<polyline fill="none" stroke="black" points="300.29,-259 300.29,-305 "/>
<text text-anchor="middle" x="326.29" y="-285.8" font-family="Times,serif" font-size="14.00">$3</text>
<text text-anchor="middle" x="326.29" y="-270.8" font-family="Times,serif" font-size="14.00">$add</text>
<polyline fill="none" stroke="black" points="352.29,-259 352.29,-305 "/>
<text text-anchor="middle" x="365.29" y="-278.3" font-family="Times,serif" font-size="14.00">Y</text>
</g>
<!-- n10&#45;&gt;c17 -->
<g id="edge2" class="edge">
<title>n10:e&#45;&gt;c17:w</title>
<path fill="none" stroke="black" stroke-width="3" d="M54,-150C85.59,-150 48.45,-269.95 72,-291 136.17,-348.35 180.35,-298.14 263.25,-294.24"/>
<polygon fill="black" stroke="black" stroke-width="3" points="263.37,-297.74 273.29,-294 263.21,-290.74 263.37,-297.74"/>
<text text-anchor="middle" x="137.64" y="-321.8" font-family="Times,serif" font-size="14.00">&lt;8&gt;</text>
</g>
<!-- c19 -->
<g id="node12" class="node">
<title>c19</title>
<polygon fill="none" stroke="black" points="273.29,-91 273.29,-137 378.29,-137 378.29,-91 273.29,-91"/>
<text text-anchor="middle" x="286.79" y="-121.8" font-family="Times,serif" font-size="14.00">A</text>
<polyline fill="none" stroke="black" points="273.29,-114 300.29,-114 "/>
<text text-anchor="middle" x="286.79" y="-98.8" font-family="Times,serif" font-size="14.00">B</text>
<polyline fill="none" stroke="black" points="300.29,-91 300.29,-137 "/>
<text text-anchor="middle" x="326.29" y="-117.8" font-family="Times,serif" font-size="14.00">$1</text>
<text text-anchor="middle" x="326.29" y="-102.8" font-family="Times,serif" font-size="14.00">$add</text>
<polyline fill="none" stroke="black" points="352.29,-91 352.29,-137 "/>
<text text-anchor="middle" x="365.29" y="-110.3" font-family="Times,serif" font-size="14.00">Y</text>
</g>
<!-- n10&#45;&gt;c19 -->
<g id="edge3" class="edge">
<title>n10:e&#45;&gt;c19:w</title>
<path fill="none" stroke="black" stroke-width="3" d="M54,-150C65.63,-150 61.37,-135.73 72,-131 150.57,-96.04 181.37,-123.65 263.07,-125.86"/>
<polygon fill="black" stroke="black" stroke-width="3" points="263.24,-129.36 273.29,-126 263.34,-122.37 263.24,-129.36"/>
<text text-anchor="middle" x="137.64" y="-134.8" font-family="Times,serif" font-size="14.00">&lt;8&gt;</text>
</g>
<!-- x2 -->
<g id="node13" class="node">
<title>x2</title>
<path fill="none" stroke="black" d="M844.29,-237C844.29,-237 814.29,-237 814.29,-237 808.29,-237 802.29,-231 802.29,-225 802.29,-225 802.29,-213 802.29,-213 802.29,-207 808.29,-201 814.29,-201 814.29,-201 844.29,-201 844.29,-201 850.29,-201 856.29,-207 856.29,-213 856.29,-213 856.29,-225 856.29,-225 856.29,-231 850.29,-237 844.29,-237"/>
<text text-anchor="middle" x="829.29" y="-215.3" font-family="Times,serif" font-size="14.00">BUF</text>
</g>
<!-- c15&#45;&gt;x2 -->
<g id="edge1" class="edge">
<title>c15:e&#45;&gt;x2:w</title>
<path fill="none" stroke="black" stroke-width="3" d="M732.29,-219C759.75,-219 769.03,-219 792.24,-219"/>
<polygon fill="black" stroke="black" stroke-width="3" points="792.29,-222.5 802.29,-219 792.29,-215.5 792.29,-222.5"/>
<text text-anchor="middle" x="767.29" y="-223.8" font-family="Times,serif" font-size="14.00">&lt;8&gt;</text>
</g>
<!-- c16&#45;&gt;c15 -->
<g id="edge4" class="edge">
<title>c16:e&#45;&gt;c15:w</title>
<path fill="none" stroke="black" stroke-width="3" d="M553.29,-270C583.13,-270 588.76,-247.79 613.31,-242.93"/>
<polygon fill="black" stroke="black" stroke-width="3" points="613.66,-246.41 623.29,-242 613.01,-239.44 613.66,-246.41"/>
<text text-anchor="middle" x="588.29" y="-269.8" font-family="Times,serif" font-size="14.00">&lt;8&gt;</text>
</g>
<!-- v0 -->
<g id="node8" class="node">
<title>v0</title>
<ellipse fill="none" stroke="black" cx="137.64" cy="-270" rx="65.79" ry="18"/>
<text text-anchor="middle" x="137.64" y="-266.3" font-family="Times,serif" font-size="14.00">8&#39;00000101</text>
</g>
<!-- v0&#45;&gt;c17 -->
<g id="edge12" class="edge">
<title>v0:e&#45;&gt;c17:w</title>
<path fill="none" stroke="black" stroke-width="3" d="M203.29,-270C230.75,-270 240.03,-270 263.24,-270"/>
<polygon fill="black" stroke="black" stroke-width="3" points="263.29,-273.5 273.29,-270 263.29,-266.5 263.29,-273.5"/>
<text text-anchor="middle" x="238.29" y="-273.8" font-family="Times,serif" font-size="14.00">&lt;8&gt;</text>
</g>
<!-- c17&#45;&gt;c16 -->
<g id="edge5" class="edge">
<title>c17:e&#45;&gt;c16:w</title>
<path fill="none" stroke="black" stroke-width="3" d="M378.29,-282C405.75,-282 415.03,-282 438.24,-282"/>
<polygon fill="black" stroke="black" stroke-width="3" points="438.29,-285.5 448.29,-282 438.29,-278.5 438.29,-285.5"/>
<text text-anchor="middle" x="413.29" y="-285.8" font-family="Times,serif" font-size="14.00">&lt;8&gt;</text>
</g>
<!-- c18&#45;&gt;c15 -->
<g id="edge6" class="edge">
<title>c18:e&#45;&gt;c15:w</title>
<path fill="none" stroke="black" stroke-width="3" d="M553.29,-102C610.1,-102 568.65,-204.83 613.18,-217.69"/>
<polygon fill="black" stroke="black" stroke-width="3" points="612.92,-221.18 623.29,-219 613.82,-214.24 612.92,-221.18"/>
<text text-anchor="middle" x="588.29" y="-216.8" font-family="Times,serif" font-size="14.00">&lt;8&gt;</text>
</g>
<!-- v1 -->
<g id="node11" class="node">
<title>v1</title>
<ellipse fill="none" stroke="black" cx="137.64" cy="-92" rx="65.79" ry="18"/>
<text text-anchor="middle" x="137.64" y="-88.3" font-family="Times,serif" font-size="14.00">8&#39;00000101</text>
</g>
<!-- v1&#45;&gt;c19 -->
<g id="edge13" class="edge">
<title>v1:e&#45;&gt;c19:w</title>
<path fill="none" stroke="black" stroke-width="3" d="M203.29,-92C231.03,-92 239.85,-99.79 263.16,-101.62"/>
<polygon fill="black" stroke="black" stroke-width="3" points="263.16,-105.12 273.29,-102 263.43,-98.13 263.16,-105.12"/>
<text text-anchor="middle" x="238.29" y="-104.8" font-family="Times,serif" font-size="14.00">&lt;8&gt;</text>
</g>
<!-- c19&#45;&gt;c18 -->
<g id="edge7" class="edge">
<title>c19:e&#45;&gt;c18:w</title>
<path fill="none" stroke="black" stroke-width="3" d="M378.29,-114C405.75,-114 415.03,-114 438.24,-114"/>
<polygon fill="black" stroke="black" stroke-width="3" points="438.29,-117.5 448.29,-114 438.29,-110.5 438.29,-117.5"/>
<text text-anchor="middle" x="413.29" y="-117.8" font-family="Times,serif" font-size="14.00">&lt;8&gt;</text>
</g>
<!-- x2&#45;&gt;n7 -->
<g id="edge9" class="edge">
<title>x2:e&#45;&gt;n7:w</title>
<path fill="none" stroke="black" stroke-width="3" d="M856.29,-219C883.75,-219 893.03,-219 916.24,-219"/>
<polygon fill="black" stroke="black" stroke-width="3" points="916.29,-222.5 926.29,-219 916.29,-215.5 916.29,-222.5"/>
<text text-anchor="middle" x="891.29" y="-223.8" font-family="Times,serif" font-size="14.00">&lt;8&gt;</text>
</g>
</g>
</svg>
