<?xml version="1.0" encoding="UTF-8" standalone="no"?>
<!DOCTYPE svg PUBLIC "-//W3C//DTD SVG 1.1//EN"
 "http://www.w3.org/Graphics/SVG/1.1/DTD/svg11.dtd">
<!-- Generated by graphviz version 2.43.0 (0)
 -->
<!-- Title: example Pages: 1 -->
<svg width="940pt" height="221pt"
 viewBox="0.00 0.00 940.17 221.00" xmlns="http://www.w3.org/2000/svg" xmlns:xlink="http://www.w3.org/1999/xlink">
<g id="graph0" class="graph" transform="scale(1 1) rotate(0) translate(4 217)">
<title>example</title>
<polygon fill="white" stroke="transparent" points="-4,4 -4,-217 936.17,-217 936.17,4 -4,4"/>
<text text-anchor="middle" x="466.08" y="-7.8" font-family="Times,serif" font-size="14.00">example</text>
<!-- n4 -->
<g id="node1" class="node">
<title>n4</title>
<polygon fill="none" stroke="black" points="54,-133.54 54,-148.46 38.18,-159 15.82,-159 0,-148.46 0,-133.54 15.82,-123 38.18,-123 54,-133.54"/>
<text text-anchor="middle" x="27" y="-137.3" font-family="Times,serif" font-size="14.00">a</text>
</g>
<!-- c13 -->
<g id="node8" class="node">
<title>c13</title>
<polygon fill="none" stroke="black" points="273.29,-96 273.29,-142 378.29,-142 378.29,-96 273.29,-96"/>
<text text-anchor="middle" x="286.79" y="-126.8" font-family="Times,serif" font-size="14.00">A</text>
<polyline fill="none" stroke="black" points="273.29,-119 300.29,-119 "/>
<text text-anchor="middle" x="286.79" y="-103.8" font-family="Times,serif" font-size="14.00">B</text>
<polyline fill="none" stroke="black" points="300.29,-96 300.29,-142 "/>
<text text-anchor="middle" x="326.29" y="-122.8" font-family="Times,serif" font-size="14.00">$3</text>
<text text-anchor="middle" x="326.29" y="-107.8" font-family="Times,serif" font-size="14.00">$add</text>
<polyline fill="none" stroke="black" points="352.29,-96 352.29,-142 "/>
<text text-anchor="middle" x="365.29" y="-115.3" font-family="Times,serif" font-size="14.00">Y</text>
</g>
<!-- n4&#45;&gt;c13 -->
<g id="edge6" class="edge">
<title>n4:e&#45;&gt;c13:w</title>
<path fill="none" stroke="black" stroke-width="3" d="M54,-141C148.13,-141 173.94,-131.69 263.26,-131.04"/>
<polygon fill="black" stroke="black" stroke-width="3" points="263.3,-134.54 273.29,-131 263.28,-127.54 263.3,-134.54"/>
<text text-anchor="middle" x="137.64" y="-143.8" font-family="Times,serif" font-size="14.00">&lt;8&gt;</text>
</g>
<!-- n5 -->
<g id="node2" class="node">
<title>n5</title>
<polygon fill="none" stroke="black" points="54,-44.54 54,-59.46 38.18,-70 15.82,-70 0,-59.46 0,-44.54 15.82,-34 38.18,-34 54,-44.54"/>
<text text-anchor="middle" x="27" y="-48.3" font-family="Times,serif" font-size="14.00">b</text>
</g>
<!-- c12 -->
<g id="node6" class="node">
<title>c12</title>
<polygon fill="none" stroke="black" points="521.89,-65 521.89,-111 626.89,-111 626.89,-65 521.89,-65"/>
<text text-anchor="middle" x="535.39" y="-95.8" font-family="Times,serif" font-size="14.00">A</text>
<polyline fill="none" stroke="black" points="521.89,-88 548.89,-88 "/>
<text text-anchor="middle" x="535.39" y="-72.8" font-family="Times,serif" font-size="14.00">B</text>
<polyline fill="none" stroke="black" points="548.89,-65 548.89,-111 "/>
<text text-anchor="middle" x="574.89" y="-91.8" font-family="Times,serif" font-size="14.00">$2</text>
<text text-anchor="middle" x="574.89" y="-76.8" font-family="Times,serif" font-size="14.00">$add</text>
<polyline fill="none" stroke="black" points="600.89,-65 600.89,-111 "/>
<text text-anchor="middle" x="613.89" y="-84.3" font-family="Times,serif" font-size="14.00">Y</text>
</g>
<!-- n5&#45;&gt;c12 -->
<g id="edge7" class="edge">
<title>n5:e&#45;&gt;c12:w</title>
<path fill="none" stroke="black" stroke-width="3" d="M54,-52C135.46,-52 155.83,-52 237.29,-52 237.29,-52 237.29,-52 451.09,-52 480.55,-52 487.31,-70.87 511.62,-75.15"/>
<polygon fill="black" stroke="black" stroke-width="3" points="511.63,-78.66 521.89,-76 512.21,-71.68 511.63,-78.66"/>
<text text-anchor="middle" x="325.79" y="-55.8" font-family="Times,serif" font-size="14.00">&lt;8&gt;</text>
</g>
<!-- n6 -->
<g id="node3" class="node">
<title>n6</title>
<polygon fill="none" stroke="black" points="54,-187.54 54,-202.46 38.18,-213 15.82,-213 0,-202.46 0,-187.54 15.82,-177 38.18,-177 54,-187.54"/>
<text text-anchor="middle" x="27" y="-191.3" font-family="Times,serif" font-size="14.00">c</text>
</g>
<!-- c14 -->
<g id="node9" class="node">
<title>c14</title>
<polygon fill="none" stroke="black" points="521.89,-117 521.89,-163 626.89,-163 626.89,-117 521.89,-117"/>
<text text-anchor="middle" x="535.39" y="-147.8" font-family="Times,serif" font-size="14.00">A</text>
<polyline fill="none" stroke="black" points="521.89,-140 548.89,-140 "/>
<text text-anchor="middle" x="535.39" y="-124.8" font-family="Times,serif" font-size="14.00">B</text>
<polyline fill="none" stroke="black" points="548.89,-117 548.89,-163 "/>
<text text-anchor="middle" x="574.89" y="-143.8" font-family="Times,serif" font-size="14.00">$4</text>
<text text-anchor="middle" x="574.89" y="-128.8" font-family="Times,serif" font-size="14.00">$add</text>
<polyline fill="none" stroke="black" points="600.89,-117 600.89,-163 "/>
<text text-anchor="middle" x="613.89" y="-136.3" font-family="Times,serif" font-size="14.00">Y</text>
</g>
<!-- n6&#45;&gt;c14 -->
<g id="edge8" class="edge">
<title>n6:e&#45;&gt;c14:w</title>
<path fill="none" stroke="black" stroke-width="3" d="M54,-195C135.46,-195 155.83,-195 237.29,-195 237.29,-195 237.29,-195 451.09,-195 477.86,-195 485.53,-185.49 503.89,-166 513.3,-156.01 508.52,-140.2 512.71,-132.5"/>
<polygon fill="black" stroke="black" stroke-width="3" points="514.45,-135.55 521.89,-128 511.37,-129.27 514.45,-135.55"/>
<text text-anchor="middle" x="325.79" y="-198.8" font-family="Times,serif" font-size="14.00">&lt;8&gt;</text>
</g>
<!-- n7 -->
<g id="node4" class="node">
<title>n7</title>
<polygon fill="none" stroke="black" points="932.31,-80.54 932.31,-95.46 915.74,-106 892.31,-106 875.75,-95.46 875.75,-80.54 892.31,-70 915.74,-70 932.31,-80.54"/>
<text text-anchor="middle" x="904.03" y="-84.3" font-family="Times,serif" font-size="14.00">out</text>
</g>
<!-- n8 -->
<g id="node5" class="node">
<title>n8</title>
<polygon fill="none" stroke="black" points="574.39,-59 547.39,-41 574.39,-23 601.39,-41 574.39,-59"/>
<text text-anchor="middle" x="574.39" y="-37.3" font-family="Times,serif" font-size="14.00">s</text>
</g>
<!-- c16 -->
<g id="node10" class="node">
<title>c16</title>
<polygon fill="none" stroke="black" points="696.89,-53.5 696.89,-122.5 805.89,-122.5 805.89,-53.5 696.89,-53.5"/>
<text text-anchor="middle" x="710.39" y="-107.3" font-family="Times,serif" font-size="14.00">A</text>
<polyline fill="none" stroke="black" points="696.89,-99.5 723.89,-99.5 "/>
<text text-anchor="middle" x="710.39" y="-84.3" font-family="Times,serif" font-size="14.00">B</text>
<polyline fill="none" stroke="black" points="696.89,-76.5 723.89,-76.5 "/>
<text text-anchor="middle" x="710.39" y="-61.3" font-family="Times,serif" font-size="14.00">S</text>
<polyline fill="none" stroke="black" points="723.89,-53.5 723.89,-122.5 "/>
<text text-anchor="middle" x="751.89" y="-91.8" font-family="Times,serif" font-size="14.00">$5</text>
<text text-anchor="middle" x="751.89" y="-76.8" font-family="Times,serif" font-size="14.00">$mux</text>
<polyline fill="none" stroke="black" points="779.89,-53.5 779.89,-122.5 "/>
<text text-anchor="middle" x="792.89" y="-84.3" font-family="Times,serif" font-size="14.00">Y</text>
</g>
<!-- n8&#45;&gt;c16 -->
<g id="edge10" class="edge">
<title>n8:e&#45;&gt;c16:w</title>
<path fill="none" stroke="black" d="M602.39,-41C642,-41 651.95,-61.05 686.46,-64.5"/>
<polygon fill="black" stroke="black" points="686.73,-68.02 696.89,-65 687.07,-61.02 686.73,-68.02"/>
</g>
<!-- c12&#45;&gt;c16 -->
<g id="edge4" class="edge">
<title>c12:e&#45;&gt;c16:w</title>
<path fill="none" stroke="black" stroke-width="3" d="M626.89,-88C654.35,-88 663.63,-88 686.84,-88"/>
<polygon fill="black" stroke="black" stroke-width="3" points="686.89,-91.5 696.89,-88 686.89,-84.5 686.89,-91.5"/>
<text text-anchor="middle" x="661.89" y="-92.8" font-family="Times,serif" font-size="14.00">&lt;8&gt;</text>
</g>
<!-- v0 -->
<g id="node7" class="node">
<title>v0</title>
<ellipse fill="none" stroke="black" cx="137.64" cy="-98" rx="65.79" ry="18"/>
<text text-anchor="middle" x="137.64" y="-94.3" font-family="Times,serif" font-size="14.00">8&#39;00000101</text>
</g>
<!-- v0&#45;&gt;c13 -->
<g id="edge11" class="edge">
<title>v0:e&#45;&gt;c13:w</title>
<path fill="none" stroke="black" stroke-width="3" d="M203.29,-98C230.98,-98 239.89,-105.01 263.18,-106.66"/>
<polygon fill="black" stroke="black" stroke-width="3" points="263.18,-110.16 273.29,-107 263.41,-103.16 263.18,-110.16"/>
<text text-anchor="middle" x="238.29" y="-108.8" font-family="Times,serif" font-size="14.00">&lt;8&gt;</text>
</g>
<!-- n1 -->
<g id="node11" class="node">
<title>n1</title>
<ellipse fill="black" stroke="black" cx="450.09" cy="-119" rx="1.8" ry="1.8"/>
</g>
<!-- c13&#45;&gt;n1 -->
<g id="edge1" class="edge">
<title>c13:e&#45;&gt;n1:w</title>
<path fill="none" stroke="black" stroke-width="3" d="M378.29,-119C405.75,-119 415.03,-119 438.24,-119"/>
<polygon fill="black" stroke="black" stroke-width="3" points="438.29,-122.5 448.29,-119 438.29,-115.5 438.29,-122.5"/>
<text text-anchor="middle" x="413.29" y="-122.8" font-family="Times,serif" font-size="14.00">&lt;8&gt;</text>
</g>
<!-- c14&#45;&gt;c16 -->
<g id="edge5" class="edge">
<title>c14:e&#45;&gt;c16:w</title>
<path fill="none" stroke="black" stroke-width="3" d="M626.89,-140C656.88,-140 662.26,-117 686.87,-111.96"/>
<polygon fill="black" stroke="black" stroke-width="3" points="687.27,-115.44 696.89,-111 686.6,-108.47 687.27,-115.44"/>
<text text-anchor="middle" x="661.89" y="-139.8" font-family="Times,serif" font-size="14.00">&lt;8&gt;</text>
</g>
<!-- c16&#45;&gt;n7 -->
<g id="edge9" class="edge">
<title>c16:e&#45;&gt;n7:w</title>
<path fill="none" stroke="black" stroke-width="3" d="M805.89,-88C833.35,-88 842.63,-88 865.84,-88"/>
<polygon fill="black" stroke="black" stroke-width="3" points="865.89,-91.5 875.89,-88 865.89,-84.5 865.89,-91.5"/>
<text text-anchor="middle" x="840.89" y="-92.8" font-family="Times,serif" font-size="14.00">&lt;8&gt;</text>
</g>
<!-- n1&#45;&gt;c12 -->
<g id="edge2" class="edge">
<title>n1:e&#45;&gt;c12:w</title>
<path fill="none" stroke="black" stroke-width="3" d="M451.89,-119C462.3,-119 460.24,-107.92 469.89,-104 487.84,-96.71 495.92,-98.81 511.63,-99.7"/>
<polygon fill="black" stroke="black" stroke-width="3" points="511.79,-103.21 521.89,-100 512,-96.21 511.79,-103.21"/>
<text text-anchor="middle" x="486.89" y="-107.8" font-family="Times,serif" font-size="14.00">&lt;8&gt;</text>
</g>
<!-- n1&#45;&gt;c14 -->
<g id="edge3" class="edge">
<title>n1:e&#45;&gt;c14:w</title>
<path fill="none" stroke="black" stroke-width="3" d="M451.89,-119C482.52,-119 486.83,-145.18 511.71,-150.9"/>
<polygon fill="black" stroke="black" stroke-width="3" points="511.57,-154.41 521.89,-152 512.32,-147.45 511.57,-154.41"/>
<text text-anchor="middle" x="486.89" y="-150.8" font-family="Times,serif" font-size="14.00">&lt;8&gt;</text>
</g>
</g>
</svg>
