<?xml version="1.0" encoding="UTF-8" standalone="no"?>
<!DOCTYPE svg PUBLIC "-//W3C//DTD SVG 1.1//EN"
 "http://www.w3.org/Graphics/SVG/1.1/DTD/svg11.dtd">
<!-- Generated by graphviz version 2.43.0 (0)
 -->
<!-- Title: example Pages: 1 -->
<svg width="744pt" height="265pt"
 viewBox="0.00 0.00 743.57 265.00" xmlns="http://www.w3.org/2000/svg" xmlns:xlink="http://www.w3.org/1999/xlink">
<g id="graph0" class="graph" transform="scale(1 1) rotate(0) translate(4 261)">
<title>example</title>
<polygon fill="white" stroke="transparent" points="-4,4 -4,-261 739.57,-261 739.57,4 -4,4"/>
<text text-anchor="middle" x="367.78" y="-7.8" font-family="Times,serif" font-size="14.00">example</text>
<!-- n5 -->
<g id="node1" class="node">
<title>n5</title>
<polygon fill="none" stroke="black" points="54,-226.54 54,-241.46 38.18,-252 15.82,-252 0,-241.46 0,-226.54 15.82,-216 38.18,-216 54,-226.54"/>
<text text-anchor="middle" x="27" y="-230.3" font-family="Times,serif" font-size="14.00">a</text>
</g>
<!-- c13 -->
<g id="node6" class="node">
<title>c13</title>
<polygon fill="none" stroke="black" points="137.14,-90 137.14,-136 242.14,-136 242.14,-90 137.14,-90"/>
<text text-anchor="middle" x="150.64" y="-120.8" font-family="Times,serif" font-size="14.00">A</text>
<polyline fill="none" stroke="black" points="137.14,-113 164.14,-113 "/>
<text text-anchor="middle" x="150.64" y="-97.8" font-family="Times,serif" font-size="14.00">B</text>
<polyline fill="none" stroke="black" points="164.14,-90 164.14,-136 "/>
<text text-anchor="middle" x="190.14" y="-116.8" font-family="Times,serif" font-size="14.00">$1</text>
<text text-anchor="middle" x="190.14" y="-101.8" font-family="Times,serif" font-size="14.00">$add</text>
<polyline fill="none" stroke="black" points="216.14,-90 216.14,-136 "/>
<text text-anchor="middle" x="229.14" y="-109.3" font-family="Times,serif" font-size="14.00">Y</text>
</g>
<!-- n5&#45;&gt;c13 -->
<g id="edge5" class="edge">
<title>n5:e&#45;&gt;c13:w</title>
<path fill="none" stroke="black" stroke-width="3" d="M54,-234C65.31,-234 63.82,-223.81 72,-216 86.79,-201.88 93.92,-201.5 106,-185 121.1,-164.38 110.17,-134.89 125.68,-127"/>
<polygon fill="black" stroke="black" stroke-width="3" points="126.53,-130.4 135.64,-125 125.15,-123.54 126.53,-130.4"/>
<text text-anchor="middle" x="89" y="-219.8" font-family="Times,serif" font-size="14.00">&lt;8&gt;</text>
</g>
<!-- c15 -->
<g id="node9" class="node">
<title>c15</title>
<polygon fill="none" stroke="black" points="137.14,-210 137.14,-256 242.14,-256 242.14,-210 137.14,-210"/>
<text text-anchor="middle" x="150.64" y="-240.8" font-family="Times,serif" font-size="14.00">A</text>
<polyline fill="none" stroke="black" points="137.14,-233 164.14,-233 "/>
<text text-anchor="middle" x="150.64" y="-217.8" font-family="Times,serif" font-size="14.00">B</text>
<polyline fill="none" stroke="black" points="164.14,-210 164.14,-256 "/>
<text text-anchor="middle" x="190.14" y="-236.8" font-family="Times,serif" font-size="14.00">$3</text>
<text text-anchor="middle" x="190.14" y="-221.8" font-family="Times,serif" font-size="14.00">$add</text>
<polyline fill="none" stroke="black" points="216.14,-210 216.14,-256 "/>
<text text-anchor="middle" x="229.14" y="-229.3" font-family="Times,serif" font-size="14.00">Y</text>
</g>
<!-- n5&#45;&gt;c15 -->
<g id="edge6" class="edge">
<title>n5:e&#45;&gt;c15:w</title>
<path fill="none" stroke="black" stroke-width="3" d="M54,-234C86.9,-234 97.03,-242.88 125.3,-244.68"/>
<polygon fill="black" stroke="black" stroke-width="3" points="125.54,-248.19 135.64,-245 125.76,-241.19 125.54,-248.19"/>
<text text-anchor="middle" x="89" y="-245.8" font-family="Times,serif" font-size="14.00">&lt;8&gt;</text>
</g>
<!-- n6 -->
<g id="node2" class="node">
<title>n6</title>
<polygon fill="none" stroke="black" points="54,-93.54 54,-108.46 38.18,-119 15.82,-119 0,-108.46 0,-93.54 15.82,-83 38.18,-83 54,-93.54"/>
<text text-anchor="middle" x="27" y="-97.3" font-family="Times,serif" font-size="14.00">b</text>
</g>
<!-- n6&#45;&gt;c13 -->
<g id="edge7" class="edge">
<title>n6:e&#45;&gt;c13:w</title>
<path fill="none" stroke="black" stroke-width="3" d="M54,-101C86.6,-101 97.23,-101 125.37,-101"/>
<polygon fill="black" stroke="black" stroke-width="3" points="125.64,-104.5 135.64,-101 125.64,-97.5 125.64,-104.5"/>
<text text-anchor="middle" x="89" y="-105.8" font-family="Times,serif" font-size="14.00">&lt;8&gt;</text>
</g>
<!-- n7 -->
<g id="node3" class="node">
<title>n7</title>
<polygon fill="none" stroke="black" points="54,-161.54 54,-176.46 38.18,-187 15.82,-187 0,-176.46 0,-161.54 15.82,-151 38.18,-151 54,-161.54"/>
<text text-anchor="middle" x="27" y="-165.3" font-family="Times,serif" font-size="14.00">c</text>
</g>
<!-- n7&#45;&gt;c15 -->
<g id="edge8" class="edge">
<title>n7:e&#45;&gt;c15:w</title>
<path fill="none" stroke="black" stroke-width="3" d="M54,-169C77.12,-169 86.08,-158.28 106,-170 124.89,-181.11 114.59,-209.28 126.02,-218.23"/>
<polygon fill="black" stroke="black" stroke-width="3" points="125.07,-221.6 135.64,-221 127,-214.87 125.07,-221.6"/>
<text text-anchor="middle" x="89" y="-173.8" font-family="Times,serif" font-size="14.00">&lt;8&gt;</text>
</g>
<!-- n8 -->
<g id="node4" class="node">
<title>n8</title>
<polygon fill="none" stroke="black" points="735.71,-93.54 735.71,-108.46 719.14,-119 695.71,-119 679.15,-108.46 679.15,-93.54 695.71,-83 719.14,-83 735.71,-93.54"/>
<text text-anchor="middle" x="707.43" y="-97.3" font-family="Times,serif" font-size="14.00">out</text>
</g>
<!-- n9 -->
<g id="node5" class="node">
<title>n9</title>
<polygon fill="none" stroke="black" points="377.79,-59 350.79,-41 377.79,-23 404.79,-41 377.79,-59"/>
<text text-anchor="middle" x="377.79" y="-37.3" font-family="Times,serif" font-size="14.00">s</text>
</g>
<!-- c18 -->
<g id="node12" class="node">
<title>c18</title>
<polygon fill="none" stroke="black" points="500.29,-66.5 500.29,-135.5 609.29,-135.5 609.29,-66.5 500.29,-66.5"/>
<text text-anchor="middle" x="513.79" y="-120.3" font-family="Times,serif" font-size="14.00">A</text>
<polyline fill="none" stroke="black" points="500.29,-112.5 527.29,-112.5 "/>
<text text-anchor="middle" x="513.79" y="-97.3" font-family="Times,serif" font-size="14.00">B</text>
<polyline fill="none" stroke="black" points="500.29,-89.5 527.29,-89.5 "/>
<text text-anchor="middle" x="513.79" y="-74.3" font-family="Times,serif" font-size="14.00">S</text>
<polyline fill="none" stroke="black" points="527.29,-66.5 527.29,-135.5 "/>
<text text-anchor="middle" x="555.29" y="-104.8" font-family="Times,serif" font-size="14.00">$5</text>
<text text-anchor="middle" x="555.29" y="-89.8" font-family="Times,serif" font-size="14.00">$mux</text>
<polyline fill="none" stroke="black" points="583.29,-66.5 583.29,-135.5 "/>
<text text-anchor="middle" x="596.29" y="-97.3" font-family="Times,serif" font-size="14.00">Y</text>
</g>
<!-- n9&#45;&gt;c18 -->
<g id="edge10" class="edge">
<title>n9:e&#45;&gt;c18:w</title>
<path fill="none" stroke="black" d="M405.79,-41C447.19,-41 454.21,-72.18 489.97,-77.29"/>
<polygon fill="black" stroke="black" points="490.07,-80.81 500.29,-78 490.55,-73.83 490.07,-80.81"/>
</g>
<!-- c14 -->
<g id="node8" class="node">
<title>c14</title>
<polygon fill="none" stroke="black" points="325.29,-78 325.29,-124 430.29,-124 430.29,-78 325.29,-78"/>
<text text-anchor="middle" x="338.79" y="-108.8" font-family="Times,serif" font-size="14.00">A</text>
<polyline fill="none" stroke="black" points="325.29,-101 352.29,-101 "/>
<text text-anchor="middle" x="338.79" y="-85.8" font-family="Times,serif" font-size="14.00">B</text>
<polyline fill="none" stroke="black" points="352.29,-78 352.29,-124 "/>
<text text-anchor="middle" x="378.29" y="-104.8" font-family="Times,serif" font-size="14.00">$2</text>
<text text-anchor="middle" x="378.29" y="-89.8" font-family="Times,serif" font-size="14.00">$add</text>
<polyline fill="none" stroke="black" points="404.29,-78 404.29,-124 "/>
<text text-anchor="middle" x="417.29" y="-97.3" font-family="Times,serif" font-size="14.00">Y</text>
</g>
<!-- c13&#45;&gt;c14 -->
<g id="edge1" class="edge">
<title>c13:e&#45;&gt;c14:w</title>
<path fill="none" stroke="black" stroke-width="3" d="M243.64,-113C276.25,-113 286.88,-113 315.02,-113"/>
<polygon fill="black" stroke="black" stroke-width="3" points="315.29,-116.5 325.29,-113 315.29,-109.5 315.29,-116.5"/>
<text text-anchor="middle" x="290.29" y="-116.8" font-family="Times,serif" font-size="14.00">&lt;8&gt;</text>
</g>
<!-- v0 -->
<g id="node7" class="node">
<title>v0</title>
<ellipse fill="none" stroke="black" cx="189.64" cy="-53" rx="65.79" ry="18"/>
<text text-anchor="middle" x="189.64" y="-49.3" font-family="Times,serif" font-size="14.00">8&#39;00000101</text>
</g>
<!-- v0&#45;&gt;c14 -->
<g id="edge11" class="edge">
<title>v0:e&#45;&gt;c14:w</title>
<path fill="none" stroke="black" stroke-width="3" d="M255.29,-53C286.58,-53 289.91,-81.81 315.3,-87.88"/>
<polygon fill="black" stroke="black" stroke-width="3" points="314.96,-91.37 325.29,-89 315.74,-84.41 314.96,-91.37"/>
<text text-anchor="middle" x="290.29" y="-88.8" font-family="Times,serif" font-size="14.00">&lt;8&gt;</text>
</g>
<!-- c14&#45;&gt;c18 -->
<g id="edge2" class="edge">
<title>c14:e&#45;&gt;c18:w</title>
<path fill="none" stroke="black" stroke-width="3" d="M430.29,-101C457.75,-101 467.03,-101 490.24,-101"/>
<polygon fill="black" stroke="black" stroke-width="3" points="490.29,-104.5 500.29,-101 490.29,-97.5 490.29,-104.5"/>
<text text-anchor="middle" x="465.29" y="-105.8" font-family="Times,serif" font-size="14.00">&lt;8&gt;</text>
</g>
<!-- c16 -->
<g id="node11" class="node">
<title>c16</title>
<polygon fill="none" stroke="black" points="325.29,-162 325.29,-208 430.29,-208 430.29,-162 325.29,-162"/>
<text text-anchor="middle" x="338.79" y="-192.8" font-family="Times,serif" font-size="14.00">A</text>
<polyline fill="none" stroke="black" points="325.29,-185 352.29,-185 "/>
<text text-anchor="middle" x="338.79" y="-169.8" font-family="Times,serif" font-size="14.00">B</text>
<polyline fill="none" stroke="black" points="352.29,-162 352.29,-208 "/>
<text text-anchor="middle" x="378.29" y="-188.8" font-family="Times,serif" font-size="14.00">$4</text>
<text text-anchor="middle" x="378.29" y="-173.8" font-family="Times,serif" font-size="14.00">$add</text>
<polyline fill="none" stroke="black" points="404.29,-162 404.29,-208 "/>
<text text-anchor="middle" x="417.29" y="-181.3" font-family="Times,serif" font-size="14.00">Y</text>
</g>
<!-- c15&#45;&gt;c16 -->
<g id="edge3" class="edge">
<title>c15:e&#45;&gt;c16:w</title>
<path fill="none" stroke="black" stroke-width="3" d="M243.64,-233C279.58,-233 284.87,-203.43 315.06,-197.89"/>
<polygon fill="black" stroke="black" stroke-width="3" points="315.63,-201.35 325.29,-197 315.02,-194.38 315.63,-201.35"/>
<text text-anchor="middle" x="290.29" y="-226.8" font-family="Times,serif" font-size="14.00">&lt;8&gt;</text>
</g>
<!-- v1 -->
<g id="node10" class="node">
<title>v1</title>
<ellipse fill="none" stroke="black" cx="189.64" cy="-173" rx="65.79" ry="18"/>
<text text-anchor="middle" x="189.64" y="-169.3" font-family="Times,serif" font-size="14.00">8&#39;00000101</text>
</g>
<!-- v1&#45;&gt;c16 -->
<g id="edge12" class="edge">
<title>v1:e&#45;&gt;c16:w</title>
<path fill="none" stroke="black" stroke-width="3" d="M255.29,-173C282.75,-173 292.03,-173 315.24,-173"/>
<polygon fill="black" stroke="black" stroke-width="3" points="315.29,-176.5 325.29,-173 315.29,-169.5 315.29,-176.5"/>
<text text-anchor="middle" x="290.29" y="-176.8" font-family="Times,serif" font-size="14.00">&lt;8&gt;</text>
</g>
<!-- c16&#45;&gt;c18 -->
<g id="edge4" class="edge">
<title>c16:e&#45;&gt;c18:w</title>
<path fill="none" stroke="black" stroke-width="3" d="M430.29,-185C467.69,-185 460.9,-134.9 490.01,-125.51"/>
<polygon fill="black" stroke="black" stroke-width="3" points="490.9,-128.91 500.29,-124 489.89,-121.99 490.9,-128.91"/>
<text text-anchor="middle" x="465.29" y="-181.8" font-family="Times,serif" font-size="14.00">&lt;8&gt;</text>
</g>
<!-- c18&#45;&gt;n8 -->
<g id="edge9" class="edge">
<title>c18:e&#45;&gt;n8:w</title>
<path fill="none" stroke="black" stroke-width="3" d="M609.29,-101C636.75,-101 646.03,-101 669.24,-101"/>
<polygon fill="black" stroke="black" stroke-width="3" points="669.29,-104.5 679.29,-101 669.29,-97.5 669.29,-104.5"/>
<text text-anchor="middle" x="644.29" y="-105.8" font-family="Times,serif" font-size="14.00">&lt;8&gt;</text>
</g>
</g>
</svg>
