<?xml version="1.0" encoding="UTF-8" standalone="no"?>
<!DOCTYPE svg PUBLIC "-//W3C//DTD SVG 1.1//EN"
 "http://www.w3.org/Graphics/SVG/1.1/DTD/svg11.dtd">
<!-- Generated by graphviz version 2.43.0 (0)
 -->
<!-- Title: muxtree Pages: 1 -->
<svg width="389pt" height="221pt"
 viewBox="0.00 0.00 389.28 221.00" xmlns="http://www.w3.org/2000/svg" xmlns:xlink="http://www.w3.org/1999/xlink">
<g id="graph0" class="graph" transform="scale(1 1) rotate(0) translate(4 217)">
<title>muxtree</title>
<polygon fill="white" stroke="transparent" points="-4,4 -4,-217 385.28,-217 385.28,4 -4,4"/>
<text text-anchor="middle" x="190.64" y="-7.8" font-family="Times,serif" font-size="14.00">muxtree</text>
<!-- n1 -->
<g id="node1" class="node">
<title>n1</title>
<polygon fill="none" stroke="black" points="54,-33.54 54,-48.46 38.18,-59 15.82,-59 0,-48.46 0,-33.54 15.82,-23 38.18,-23 54,-33.54"/>
<text text-anchor="middle" x="27" y="-37.3" font-family="Times,serif" font-size="14.00">a</text>
</g>
<!-- n2 -->
<g id="node2" class="node">
<title>n2</title>
<polygon fill="none" stroke="black" points="54,-141.54 54,-156.46 38.18,-167 15.82,-167 0,-156.46 0,-141.54 15.82,-131 38.18,-131 54,-141.54"/>
<text text-anchor="middle" x="27" y="-145.3" font-family="Times,serif" font-size="14.00">b</text>
</g>
<!-- c9 -->
<g id="node6" class="node">
<title>c9</title>
<polygon fill="none" stroke="black" points="180,-114.5 180,-183.5 289,-183.5 289,-114.5 180,-114.5"/>
<text text-anchor="middle" x="193.5" y="-168.3" font-family="Times,serif" font-size="14.00">A</text>
<polyline fill="none" stroke="black" points="180,-160.5 207,-160.5 "/>
<text text-anchor="middle" x="193.5" y="-145.3" font-family="Times,serif" font-size="14.00">B</text>
<polyline fill="none" stroke="black" points="180,-137.5 207,-137.5 "/>
<text text-anchor="middle" x="193.5" y="-122.3" font-family="Times,serif" font-size="14.00">S</text>
<polyline fill="none" stroke="black" points="207,-114.5 207,-183.5 "/>
<text text-anchor="middle" x="235" y="-152.8" font-family="Times,serif" font-size="14.00">$2</text>
<text text-anchor="middle" x="235" y="-137.8" font-family="Times,serif" font-size="14.00">$mux</text>
<polyline fill="none" stroke="black" points="263,-114.5 263,-183.5 "/>
<text text-anchor="middle" x="276" y="-145.3" font-family="Times,serif" font-size="14.00">Y</text>
</g>
<!-- n2&#45;&gt;c9 -->
<g id="edge1" class="edge">
<title>n2:e&#45;&gt;c9:w</title>
<path fill="none" stroke="black" d="M54,-149C106.5,-149 122.09,-149 169.97,-149"/>
<polygon fill="black" stroke="black" points="170,-152.5 180,-149 170,-145.5 170,-152.5"/>
</g>
<!-- n3 -->
<g id="node3" class="node">
<title>n3</title>
<polygon fill="none" stroke="black" points="381.42,-141.54 381.42,-156.46 364.85,-167 341.43,-167 324.86,-156.46 324.86,-141.54 341.43,-131 364.85,-131 381.42,-141.54"/>
<text text-anchor="middle" x="353.14" y="-145.3" font-family="Times,serif" font-size="14.00">out</text>
</g>
<!-- n4 -->
<g id="node4" class="node">
<title>n4</title>
<polygon fill="none" stroke="black" points="54,-87.54 54,-102.46 38.18,-113 15.82,-113 0,-102.46 0,-87.54 15.82,-77 38.18,-77 54,-87.54"/>
<text text-anchor="middle" x="27" y="-91.3" font-family="Times,serif" font-size="14.00">s</text>
</g>
<!-- n4&#45;&gt;c9 -->
<g id="edge3" class="edge">
<title>n4:e&#45;&gt;c9:w</title>
<path fill="none" stroke="black" d="M54,-95C108.07,-95 120.81,-122.25 169.71,-125.65"/>
<polygon fill="black" stroke="black" points="169.89,-129.16 180,-126 170.12,-122.16 169.89,-129.16"/>
</g>
<!-- v0 -->
<g id="node5" class="node">
<title>v0</title>
<ellipse fill="none" stroke="black" cx="117" cy="-195" rx="27" ry="18"/>
<text text-anchor="middle" x="117" y="-191.3" font-family="Times,serif" font-size="14.00">1&#39;0</text>
</g>
<!-- v0&#45;&gt;c9 -->
<g id="edge4" class="edge">
<title>v0:e&#45;&gt;c9:w</title>
<path fill="none" stroke="black" d="M144,-195C158.83,-195 160.87,-180.96 170.11,-174.82"/>
<polygon fill="black" stroke="black" points="171.34,-178.11 180,-172 169.42,-171.38 171.34,-178.11"/>
</g>
<!-- c9&#45;&gt;n3 -->
<g id="edge2" class="edge">
<title>c9:e&#45;&gt;n3:w</title>
<path fill="none" stroke="black" d="M289,-149C301,-149 306.25,-149 314.88,-149"/>
<polygon fill="black" stroke="black" points="315,-152.5 325,-149 315,-145.5 315,-152.5"/>
</g>
</g>
</svg>
