<?xml version="1.0" encoding="UTF-8" standalone="no"?>
<!DOCTYPE svg PUBLIC "-//W3C//DTD SVG 1.1//EN"
 "http://www.w3.org/Graphics/SVG/1.1/DTD/svg11.dtd">
<!-- Generated by graphviz version 2.43.0 (0)
 -->
<!-- Title: example Pages: 1 -->
<svg width="536pt" height="175pt"
 viewBox="0.00 0.00 536.00 175.00" xmlns="http://www.w3.org/2000/svg" xmlns:xlink="http://www.w3.org/1999/xlink">
<g id="graph0" class="graph" transform="scale(1 1) rotate(0) translate(4 171)">
<title>example</title>
<polygon fill="white" stroke="transparent" points="-4,4 -4,-171 532,-171 532,4 -4,4"/>
<text text-anchor="middle" x="264" y="-7.8" font-family="Times,serif" font-size="14.00">example</text>
<!-- n2 -->
<g id="node1" class="node">
<title>n2</title>
<polygon fill="none" stroke="black" points="54,-141.54 54,-156.46 38.18,-167 15.82,-167 0,-156.46 0,-141.54 15.82,-131 38.18,-131 54,-141.54"/>
<text text-anchor="middle" x="27" y="-145.3" font-family="Times,serif" font-size="14.00">a</text>
</g>
<!-- c9 -->
<g id="node5" class="node">
<title>c9</title>
<polygon fill="none" stroke="black" points="124,-84 124,-130 229,-130 229,-84 124,-84"/>
<text text-anchor="middle" x="137.5" y="-114.8" font-family="Times,serif" font-size="14.00">A</text>
<polyline fill="none" stroke="black" points="124,-107 151,-107 "/>
<text text-anchor="middle" x="137.5" y="-91.8" font-family="Times,serif" font-size="14.00">B</text>
<polyline fill="none" stroke="black" points="151,-84 151,-130 "/>
<text text-anchor="middle" x="177" y="-110.8" font-family="Times,serif" font-size="14.00">$1</text>
<text text-anchor="middle" x="177" y="-95.8" font-family="Times,serif" font-size="14.00">$add</text>
<polyline fill="none" stroke="black" points="203,-84 203,-130 "/>
<text text-anchor="middle" x="216" y="-103.3" font-family="Times,serif" font-size="14.00">Y</text>
</g>
<!-- n2&#45;&gt;c9 -->
<g id="edge2" class="edge">
<title>n2:e&#45;&gt;c9:w</title>
<path fill="none" stroke="black" stroke-width="3" d="M54,-149C84.15,-149 89.27,-125.2 113.94,-120"/>
<polygon fill="black" stroke="black" stroke-width="3" points="114.39,-123.47 124,-119 113.7,-116.5 114.39,-123.47"/>
<text text-anchor="middle" x="89" y="-148.8" font-family="Times,serif" font-size="14.00">&lt;2&gt;</text>
</g>
<!-- n3 -->
<g id="node2" class="node">
<title>n3</title>
<polygon fill="none" stroke="black" points="54,-87.54 54,-102.46 38.18,-113 15.82,-113 0,-102.46 0,-87.54 15.82,-77 38.18,-77 54,-87.54"/>
<text text-anchor="middle" x="27" y="-91.3" font-family="Times,serif" font-size="14.00">b</text>
</g>
<!-- n3&#45;&gt;c9 -->
<g id="edge3" class="edge">
<title>n3:e&#45;&gt;c9:w</title>
<path fill="none" stroke="black" stroke-width="3" d="M54,-95C81.47,-95 90.75,-95 113.95,-95"/>
<polygon fill="black" stroke="black" stroke-width="3" points="114,-98.5 124,-95 114,-91.5 114,-98.5"/>
<text text-anchor="middle" x="89" y="-98.8" font-family="Times,serif" font-size="14.00">&lt;2&gt;</text>
</g>
<!-- n4 -->
<g id="node3" class="node">
<title>n4</title>
<polygon fill="none" stroke="black" points="54,-33.54 54,-48.46 38.18,-59 15.82,-59 0,-48.46 0,-33.54 15.82,-23 38.18,-23 54,-33.54"/>
<text text-anchor="middle" x="27" y="-37.3" font-family="Times,serif" font-size="14.00">c</text>
</g>
<!-- c10 -->
<g id="node6" class="node">
<title>c10</title>
<polygon fill="none" stroke="black" points="299,-34 299,-80 404,-80 404,-34 299,-34"/>
<text text-anchor="middle" x="312.5" y="-64.8" font-family="Times,serif" font-size="14.00">A</text>
<polyline fill="none" stroke="black" points="299,-57 326,-57 "/>
<text text-anchor="middle" x="312.5" y="-41.8" font-family="Times,serif" font-size="14.00">B</text>
<polyline fill="none" stroke="black" points="326,-34 326,-80 "/>
<text text-anchor="middle" x="352" y="-60.8" font-family="Times,serif" font-size="14.00">$2</text>
<text text-anchor="middle" x="352" y="-45.8" font-family="Times,serif" font-size="14.00">$add</text>
<polyline fill="none" stroke="black" points="378,-34 378,-80 "/>
<text text-anchor="middle" x="391" y="-53.3" font-family="Times,serif" font-size="14.00">Y</text>
</g>
<!-- n4&#45;&gt;c10 -->
<g id="edge4" class="edge">
<title>n4:e&#45;&gt;c10:w</title>
<path fill="none" stroke="black" d="M54,-41C159.39,-41 188.26,-44.75 288.72,-44.99"/>
<polygon fill="black" stroke="black" points="289,-48.49 299,-45 289,-41.49 289,-48.49"/>
</g>
<!-- n5 -->
<g id="node4" class="node">
<title>n5</title>
<polygon fill="none" stroke="black" points="528,-49.54 528,-64.46 512.18,-75 489.82,-75 474,-64.46 474,-49.54 489.82,-39 512.18,-39 528,-49.54"/>
<text text-anchor="middle" x="501" y="-53.3" font-family="Times,serif" font-size="14.00">o</text>
</g>
<!-- c9&#45;&gt;c10 -->
<g id="edge1" class="edge">
<title>c9:e&#45;&gt;c10:w</title>
<path fill="none" stroke="black" stroke-width="3" d="M229,-107C260.67,-107 263.37,-76.59 288.92,-70.18"/>
<polygon fill="black" stroke="black" stroke-width="3" points="289.47,-73.64 299,-69 288.66,-66.69 289.47,-73.64"/>
<text text-anchor="middle" x="264" y="-105.8" font-family="Times,serif" font-size="14.00">&lt;2&gt;</text>
</g>
<!-- c10&#45;&gt;n5 -->
<g id="edge5" class="edge">
<title>c10:e&#45;&gt;n5:w</title>
<path fill="none" stroke="black" stroke-width="3" d="M404,-57C431.47,-57 440.75,-57 463.95,-57"/>
<polygon fill="black" stroke="black" stroke-width="3" points="464,-60.5 474,-57 464,-53.5 464,-60.5"/>
<text text-anchor="middle" x="439" y="-60.8" font-family="Times,serif" font-size="14.00">&lt;2&gt;</text>
</g>
</g>
</svg>
