<?xml version="1.0" encoding="UTF-8" standalone="no"?>
<!DOCTYPE svg PUBLIC "-//W3C//DTD SVG 1.1//EN"
 "http://www.w3.org/Graphics/SVG/1.1/DTD/svg11.dtd">
<!-- Generated by graphviz version 2.43.0 (0)
 -->
<!-- Title: example Pages: 1 -->
<svg width="1722pt" height="469pt"
 viewBox="0.00 0.00 1721.60 468.52" xmlns="http://www.w3.org/2000/svg" xmlns:xlink="http://www.w3.org/1999/xlink">
<g id="graph0" class="graph" transform="scale(1 1) rotate(0) translate(4 464.52)">
<title>example</title>
<polygon fill="white" stroke="transparent" points="-4,4 -4,-464.52 1717.6,-464.52 1717.6,4 -4,4"/>
<text text-anchor="middle" x="856.8" y="-7.8" font-family="Times,serif" font-size="14.00">example</text>
<!-- n5 -->
<g id="node1" class="node">
<title>n5</title>
<polygon fill="none" stroke="black" points="54,-379.56 54,-394.47 38.18,-405.02 15.82,-405.02 0,-394.47 0,-379.56 15.82,-369.02 38.18,-369.02 54,-379.56"/>
<text text-anchor="middle" x="27" y="-383.32" font-family="Times,serif" font-size="14.00">a</text>
</g>
<!-- x0 -->
<g id="node6" class="node">
<title>x0</title>
<path fill="none" stroke="black" d="M102,-369.02C102,-369.02 153,-369.02 153,-369.02 159,-369.02 165,-375.02 165,-381.02 165,-381.02 165,-393.02 165,-393.02 165,-399.02 159,-405.02 153,-405.02 153,-405.02 102,-405.02 102,-405.02 96,-405.02 90,-399.02 90,-393.02 90,-393.02 90,-381.02 90,-381.02 90,-375.02 96,-369.02 102,-369.02"/>
<text text-anchor="middle" x="127.5" y="-383.32" font-family="Times,serif" font-size="14.00">0:0 &#45; 0:0</text>
</g>
<!-- n5&#45;&gt;x0 -->
<g id="edge32" class="edge">
<title>n5:e&#45;&gt;x0:w</title>
<path fill="none" stroke="black" d="M54,-387.02C66,-387.02 71.25,-387.02 79.88,-387.02"/>
<polygon fill="black" stroke="black" points="80,-390.52 90,-387.02 80,-383.52 80,-390.52"/>
</g>
<!-- x6 -->
<g id="node14" class="node">
<title>x6</title>
<path fill="none" stroke="black" d="M102,-259.02C102,-259.02 153,-259.02 153,-259.02 159,-259.02 165,-265.02 165,-271.02 165,-271.02 165,-283.02 165,-283.02 165,-289.02 159,-295.02 153,-295.02 153,-295.02 102,-295.02 102,-295.02 96,-295.02 90,-289.02 90,-283.02 90,-283.02 90,-271.02 90,-271.02 90,-265.02 96,-259.02 102,-259.02"/>
<text text-anchor="middle" x="127.5" y="-273.32" font-family="Times,serif" font-size="14.00">0:0 &#45; 0:0</text>
</g>
<!-- n5&#45;&gt;x6 -->
<g id="edge33" class="edge">
<title>n5:e&#45;&gt;x6:w</title>
<path fill="none" stroke="black" d="M54,-387.02C101.42,-387.02 48.29,-293.53 80,-278.92"/>
<polygon fill="black" stroke="black" points="80.83,-282.33 90,-277.02 79.52,-275.45 80.83,-282.33"/>
</g>
<!-- x9 -->
<g id="node18" class="node">
<title>x9</title>
<path fill="none" stroke="black" d="M102,-424.02C102,-424.02 153,-424.02 153,-424.02 159,-424.02 165,-430.02 165,-436.02 165,-436.02 165,-448.02 165,-448.02 165,-454.02 159,-460.02 153,-460.02 153,-460.02 102,-460.02 102,-460.02 96,-460.02 90,-454.02 90,-448.02 90,-448.02 90,-436.02 90,-436.02 90,-430.02 96,-424.02 102,-424.02"/>
<text text-anchor="middle" x="127.5" y="-438.32" font-family="Times,serif" font-size="14.00">1:1 &#45; 0:0</text>
</g>
<!-- n5&#45;&gt;x9 -->
<g id="edge34" class="edge">
<title>n5:e&#45;&gt;x9:w</title>
<path fill="none" stroke="black" d="M54,-387.02C78.88,-387.02 66.31,-426.9 80.07,-438.74"/>
<polygon fill="black" stroke="black" points="79.41,-442.21 90,-442.02 81.6,-435.56 79.41,-442.21"/>
</g>
<!-- n6 -->
<g id="node2" class="node">
<title>n6</title>
<polygon fill="none" stroke="black" points="54,-214.56 54,-229.47 38.18,-240.02 15.82,-240.02 0,-229.47 0,-214.56 15.82,-204.02 38.18,-204.02 54,-214.56"/>
<text text-anchor="middle" x="27" y="-218.32" font-family="Times,serif" font-size="14.00">b</text>
</g>
<!-- x1 -->
<g id="node7" class="node">
<title>x1</title>
<path fill="none" stroke="black" d="M102,-204.02C102,-204.02 153,-204.02 153,-204.02 159,-204.02 165,-210.02 165,-216.02 165,-216.02 165,-228.02 165,-228.02 165,-234.02 159,-240.02 153,-240.02 153,-240.02 102,-240.02 102,-240.02 96,-240.02 90,-234.02 90,-228.02 90,-228.02 90,-216.02 90,-216.02 90,-210.02 96,-204.02 102,-204.02"/>
<text text-anchor="middle" x="127.5" y="-218.32" font-family="Times,serif" font-size="14.00">0:0 &#45; 0:0</text>
</g>
<!-- n6&#45;&gt;x1 -->
<g id="edge36" class="edge">
<title>n6:e&#45;&gt;x1:w</title>
<path fill="none" stroke="black" d="M54,-222.02C66,-222.02 71.25,-222.02 79.88,-222.02"/>
<polygon fill="black" stroke="black" points="80,-225.52 90,-222.02 80,-218.52 80,-225.52"/>
</g>
<!-- x7 -->
<g id="node15" class="node">
<title>x7</title>
<path fill="none" stroke="black" d="M102,-149.02C102,-149.02 153,-149.02 153,-149.02 159,-149.02 165,-155.02 165,-161.02 165,-161.02 165,-173.02 165,-173.02 165,-179.02 159,-185.02 153,-185.02 153,-185.02 102,-185.02 102,-185.02 96,-185.02 90,-179.02 90,-173.02 90,-173.02 90,-161.02 90,-161.02 90,-155.02 96,-149.02 102,-149.02"/>
<text text-anchor="middle" x="127.5" y="-163.32" font-family="Times,serif" font-size="14.00">0:0 &#45; 0:0</text>
</g>
<!-- n6&#45;&gt;x7 -->
<g id="edge37" class="edge">
<title>n6:e&#45;&gt;x7:w</title>
<path fill="none" stroke="black" d="M54,-222.02C78.88,-222.02 66.31,-182.13 80.07,-170.29"/>
<polygon fill="black" stroke="black" points="81.6,-173.47 90,-167.02 79.41,-166.82 81.6,-173.47"/>
</g>
<!-- x10 -->
<g id="node19" class="node">
<title>x10</title>
<path fill="none" stroke="black" d="M102,-314.02C102,-314.02 153,-314.02 153,-314.02 159,-314.02 165,-320.02 165,-326.02 165,-326.02 165,-338.02 165,-338.02 165,-344.02 159,-350.02 153,-350.02 153,-350.02 102,-350.02 102,-350.02 96,-350.02 90,-344.02 90,-338.02 90,-338.02 90,-326.02 90,-326.02 90,-320.02 96,-314.02 102,-314.02"/>
<text text-anchor="middle" x="127.5" y="-328.32" font-family="Times,serif" font-size="14.00">1:1 &#45; 0:0</text>
</g>
<!-- n6&#45;&gt;x10 -->
<g id="edge35" class="edge">
<title>n6:e&#45;&gt;x10:w</title>
<path fill="none" stroke="black" d="M54,-222.02C101.42,-222.02 48.29,-315.5 80,-330.11"/>
<polygon fill="black" stroke="black" points="79.52,-333.58 90,-332.02 80.83,-326.7 79.52,-333.58"/>
</g>
<!-- n7 -->
<g id="node3" class="node">
<title>n7</title>
<polygon fill="none" stroke="black" points="54,-64.56 54,-79.47 38.18,-90.02 15.82,-90.02 0,-79.47 0,-64.56 15.82,-54.02 38.18,-54.02 54,-64.56"/>
<text text-anchor="middle" x="27" y="-68.32" font-family="Times,serif" font-size="14.00">c</text>
</g>
<!-- c16 -->
<g id="node21" class="node">
<title>c16</title>
<polygon fill="none" stroke="black" points="1005.6,-130.02 1005.6,-176.02 1130.6,-176.02 1130.6,-130.02 1005.6,-130.02"/>
<text text-anchor="middle" x="1019.1" y="-160.82" font-family="Times,serif" font-size="14.00">A</text>
<polyline fill="none" stroke="black" points="1005.6,-153.02 1032.6,-153.02 "/>
<text text-anchor="middle" x="1019.1" y="-137.82" font-family="Times,serif" font-size="14.00">B</text>
<polyline fill="none" stroke="black" points="1032.6,-130.02 1032.6,-176.02 "/>
<text text-anchor="middle" x="1068.6" y="-156.82" font-family="Times,serif" font-size="14.00">$83</text>
<text text-anchor="middle" x="1068.6" y="-141.82" font-family="Times,serif" font-size="14.00">$_AND_</text>
<polyline fill="none" stroke="black" points="1104.6,-130.02 1104.6,-176.02 "/>
<text text-anchor="middle" x="1117.6" y="-149.32" font-family="Times,serif" font-size="14.00">Y</text>
</g>
<!-- n7&#45;&gt;c16 -->
<g id="edge38" class="edge">
<title>n7:e&#45;&gt;c16:w</title>
<path fill="none" stroke="black" d="M54,-72.02C148.99,-72.02 167.51,-119.02 262.5,-119.02 262.5,-119.02 262.5,-119.02 857.8,-119.02 908.2,-119.02 923.29,-118.11 969.6,-138.02 984.24,-144.31 985.71,-157.72 995.82,-162.9"/>
<polygon fill="black" stroke="black" points="995.09,-166.33 1005.6,-165.02 996.56,-159.48 995.09,-166.33"/>
</g>
<!-- c18 -->
<g id="node28" class="node">
<title>c18</title>
<polygon fill="none" stroke="black" points="1006.1,-61.02 1006.1,-107.02 1130.1,-107.02 1130.1,-61.02 1006.1,-61.02"/>
<text text-anchor="middle" x="1019.6" y="-91.82" font-family="Times,serif" font-size="14.00">A</text>
<polyline fill="none" stroke="black" points="1006.1,-84.02 1033.1,-84.02 "/>
<text text-anchor="middle" x="1019.6" y="-68.82" font-family="Times,serif" font-size="14.00">B</text>
<polyline fill="none" stroke="black" points="1033.1,-61.02 1033.1,-107.02 "/>
<text text-anchor="middle" x="1068.6" y="-87.82" font-family="Times,serif" font-size="14.00">$88</text>
<text text-anchor="middle" x="1068.6" y="-72.82" font-family="Times,serif" font-size="14.00">$_XOR_</text>
<polyline fill="none" stroke="black" points="1104.1,-61.02 1104.1,-107.02 "/>
<text text-anchor="middle" x="1117.1" y="-80.32" font-family="Times,serif" font-size="14.00">Y</text>
</g>
<!-- n7&#45;&gt;c18 -->
<g id="edge39" class="edge">
<title>n7:e&#45;&gt;c18:w</title>
<path fill="none" stroke="black" d="M54,-72.02C148.99,-72.02 167.51,-25.02 262.5,-25.02 262.5,-25.02 262.5,-25.02 857.8,-25.02 908.2,-25.02 927.08,-16.95 969.6,-44.02 989.79,-56.87 981.32,-85.54 995.71,-93.77"/>
<polygon fill="black" stroke="black" points="995.07,-97.21 1005.6,-96.02 996.62,-90.39 995.07,-97.21"/>
</g>
<!-- n8 -->
<g id="node4" class="node">
<title>n8</title>
<polygon fill="none" stroke="black" points="1713.6,-120.56 1713.6,-135.47 1697.78,-146.02 1675.42,-146.02 1659.6,-135.47 1659.6,-120.56 1675.42,-110.02 1697.78,-110.02 1713.6,-120.56"/>
<text text-anchor="middle" x="1686.6" y="-124.32" font-family="Times,serif" font-size="14.00">o</text>
</g>
<!-- c12 -->
<g id="node5" class="node">
<title>c12</title>
<polygon fill="none" stroke="black" points="201,-256.02 201,-302.02 326,-302.02 326,-256.02 201,-256.02"/>
<text text-anchor="middle" x="214.5" y="-286.82" font-family="Times,serif" font-size="14.00">A</text>
<polyline fill="none" stroke="black" points="201,-279.02 228,-279.02 "/>
<text text-anchor="middle" x="214.5" y="-263.82" font-family="Times,serif" font-size="14.00">B</text>
<polyline fill="none" stroke="black" points="228,-256.02 228,-302.02 "/>
<text text-anchor="middle" x="264" y="-282.82" font-family="Times,serif" font-size="14.00">$63</text>
<text text-anchor="middle" x="264" y="-267.82" font-family="Times,serif" font-size="14.00">$_AND_</text>
<polyline fill="none" stroke="black" points="300,-256.02 300,-302.02 "/>
<text text-anchor="middle" x="313" y="-275.32" font-family="Times,serif" font-size="14.00">Y</text>
</g>
<!-- x2 -->
<g id="node8" class="node">
<title>x2</title>
<path fill="none" stroke="black" d="M374,-261.02C374,-261.02 425,-261.02 425,-261.02 431,-261.02 437,-267.02 437,-273.02 437,-273.02 437,-285.02 437,-285.02 437,-291.02 431,-297.02 425,-297.02 425,-297.02 374,-297.02 374,-297.02 368,-297.02 362,-291.02 362,-285.02 362,-285.02 362,-273.02 362,-273.02 362,-267.02 368,-261.02 374,-261.02"/>
<text text-anchor="middle" x="399.5" y="-275.32" font-family="Times,serif" font-size="14.00">0:0 &#45; 0:0</text>
</g>
<!-- c12&#45;&gt;x2 -->
<g id="edge3" class="edge">
<title>c12:e&#45;&gt;x2:w</title>
<path fill="none" stroke="black" d="M338.22,-279.02C342.29,-279.02 345.73,-279.02 349.81,-279.02"/>
<polygon fill="none" stroke="black" points="338,-279.02 332,-283.02 326,-279.02 332,-275.02 338,-279.02"/>
<polygon fill="none" stroke="black" points="350,-279.02 356,-275.02 362,-279.02 356,-283.02 350,-279.02"/>
</g>
<!-- x0&#45;&gt;c12 -->
<g id="edge1" class="edge">
<title>x0:e&#45;&gt;c12:w</title>
<path fill="none" stroke="black" d="M176.6,-383.82C196.82,-369.25 169.26,-309.12 189.25,-294.32"/>
<polygon fill="none" stroke="black" points="176.57,-383.83 171.85,-389.28 165,-387.02 169.72,-381.57 176.57,-383.83"/>
<polygon fill="none" stroke="black" points="189.45,-294.26 194.14,-288.79 201,-291.02 196.31,-296.49 189.45,-294.26"/>
</g>
<!-- x1&#45;&gt;c12 -->
<g id="edge2" class="edge">
<title>x1:e&#45;&gt;c12:w</title>
<path fill="none" stroke="black" d="M176.24,-226.83C183.64,-235.54 182.39,-253.79 189.91,-262.37"/>
<polygon fill="none" stroke="black" points="176.03,-226.74 168.94,-228.06 165,-222.02 172.09,-220.7 176.03,-226.74"/>
<polygon fill="none" stroke="black" points="189.93,-262.38 197.01,-261.01 201,-267.02 193.92,-268.39 189.93,-262.38"/>
</g>
<!-- x4 -->
<g id="node11" class="node">
<title>x4</title>
<path fill="none" stroke="black" d="M485,-261.02C485,-261.02 536,-261.02 536,-261.02 542,-261.02 548,-267.02 548,-273.02 548,-273.02 548,-285.02 548,-285.02 548,-291.02 542,-297.02 536,-297.02 536,-297.02 485,-297.02 485,-297.02 479,-297.02 473,-291.02 473,-285.02 473,-285.02 473,-273.02 473,-273.02 473,-267.02 479,-261.02 485,-261.02"/>
<text text-anchor="middle" x="510.5" y="-275.32" font-family="Times,serif" font-size="14.00">0:0 &#45; 0:0</text>
</g>
<!-- x2&#45;&gt;x4 -->
<g id="edge27" class="edge">
<title>x2:e&#45;&gt;x4:w</title>
<path fill="none" stroke="black" d="M437,-279.02C449,-279.02 454.25,-279.02 462.88,-279.02"/>
<polygon fill="black" stroke="black" points="463,-282.52 473,-279.02 463,-275.52 463,-282.52"/>
</g>
<!-- c13 -->
<g id="node9" class="node">
<title>c13</title>
<polygon fill="none" stroke="black" points="584,-268.02 584,-314.02 708,-314.02 708,-268.02 584,-268.02"/>
<text text-anchor="middle" x="597.5" y="-298.82" font-family="Times,serif" font-size="14.00">A</text>
<polyline fill="none" stroke="black" points="584,-291.02 611,-291.02 "/>
<text text-anchor="middle" x="597.5" y="-275.82" font-family="Times,serif" font-size="14.00">B</text>
<polyline fill="none" stroke="black" points="611,-268.02 611,-314.02 "/>
<text text-anchor="middle" x="646.5" y="-294.82" font-family="Times,serif" font-size="14.00">$66</text>
<text text-anchor="middle" x="646.5" y="-279.82" font-family="Times,serif" font-size="14.00">$_XOR_</text>
<polyline fill="none" stroke="black" points="682,-268.02 682,-314.02 "/>
<text text-anchor="middle" x="695" y="-287.32" font-family="Times,serif" font-size="14.00">Y</text>
</g>
<!-- x5 -->
<g id="node12" class="node">
<title>x5</title>
<path fill="none" stroke="black" d="M756,-242.02C756,-242.02 807,-242.02 807,-242.02 813,-242.02 819,-248.02 819,-254.02 819,-254.02 819,-266.02 819,-266.02 819,-272.02 813,-278.02 807,-278.02 807,-278.02 756,-278.02 756,-278.02 750,-278.02 744,-272.02 744,-266.02 744,-266.02 744,-254.02 744,-254.02 744,-248.02 750,-242.02 756,-242.02"/>
<text text-anchor="middle" x="781.5" y="-256.32" font-family="Times,serif" font-size="14.00">0:0 &#45; 1:1</text>
</g>
<!-- c13&#45;&gt;x5 -->
<g id="edge6" class="edge">
<title>c13:e&#45;&gt;x5:w</title>
<path fill="none" stroke="black" d="M719.31,-286.44C724.95,-280.65 726.93,-270.71 732.48,-264.81"/>
<polygon fill="none" stroke="black" points="719.12,-286.52 715.06,-292.47 708,-291.02 712.06,-285.06 719.12,-286.52"/>
<polygon fill="none" stroke="black" points="732.92,-264.63 736.92,-258.63 744,-260.02 740,-266.01 732.92,-264.63"/>
</g>
<!-- x3 -->
<g id="node10" class="node">
<title>x3</title>
<path fill="none" stroke="black" d="M1289.6,-304.02C1289.6,-304.02 1340.6,-304.02 1340.6,-304.02 1346.6,-304.02 1352.6,-310.02 1352.6,-316.02 1352.6,-316.02 1352.6,-328.02 1352.6,-328.02 1352.6,-334.02 1346.6,-340.02 1340.6,-340.02 1340.6,-340.02 1289.6,-340.02 1289.6,-340.02 1283.6,-340.02 1277.6,-334.02 1277.6,-328.02 1277.6,-328.02 1277.6,-316.02 1277.6,-316.02 1277.6,-310.02 1283.6,-304.02 1289.6,-304.02"/>
<text text-anchor="middle" x="1315.1" y="-318.32" font-family="Times,serif" font-size="14.00">1:1 &#45; 0:0</text>
</g>
<!-- x3&#45;&gt;c13 -->
<g id="edge4" class="edge">
<title>x3:e&#45;&gt;c13:w</title>
<path fill="none" stroke="black" d="M1357.64,-333.72C1356.57,-336.28 1354.97,-338.75 1353.1,-340.52 1328.74,-363.59 1310.54,-346.9 1277.6,-340.52 1260.67,-337.23 1258.33,-330.22 1241.6,-326.02 1166.8,-307.21 1146.23,-307.02 1069.1,-307.02 855.8,-307.02 855.8,-307.02 855.8,-307.02 790.03,-307.02 773.75,-312.85 708,-314.52 656.78,-315.81 628.73,-346.89 591.6,-312.08"/>
<polygon fill="none" stroke="black" points="1357.57,-333.5 1352.01,-328.92 1354.1,-322.02 1359.67,-326.6 1357.57,-333.5"/>
<polygon fill="none" stroke="black" points="591.26,-311.72 584.22,-310.12 583,-303.02 590.03,-304.62 591.26,-311.72"/>
</g>
<!-- x4&#45;&gt;c13 -->
<g id="edge5" class="edge">
<title>x4:e&#45;&gt;c13:w</title>
<path fill="none" stroke="black" d="M560.22,-279.02C564.29,-279.02 567.73,-279.02 571.81,-279.02"/>
<polygon fill="none" stroke="black" points="560,-279.02 554,-283.02 548,-279.02 554,-275.02 560,-279.02"/>
<polygon fill="none" stroke="black" points="572,-279.02 578,-275.02 584,-279.02 578,-283.02 572,-279.02"/>
</g>
<!-- n1 -->
<g id="node33" class="node">
<title>n1</title>
<ellipse fill="black" stroke="black" cx="856.8" cy="-213.02" rx="1.8" ry="1.8"/>
</g>
<!-- x5&#45;&gt;n1 -->
<g id="edge21" class="edge">
<title>x5:e&#45;&gt;n1:w</title>
<path fill="none" stroke="black" d="M819,-260.02C841.2,-260.02 832.83,-226.56 845.48,-216.1"/>
<polygon fill="black" stroke="black" points="846.57,-219.43 855,-213.02 844.41,-212.77 846.57,-219.43"/>
</g>
<!-- c14 -->
<g id="node13" class="node">
<title>c14</title>
<polygon fill="none" stroke="black" points="201.5,-190.02 201.5,-236.02 325.5,-236.02 325.5,-190.02 201.5,-190.02"/>
<text text-anchor="middle" x="215" y="-220.82" font-family="Times,serif" font-size="14.00">A</text>
<polyline fill="none" stroke="black" points="201.5,-213.02 228.5,-213.02 "/>
<text text-anchor="middle" x="215" y="-197.82" font-family="Times,serif" font-size="14.00">B</text>
<polyline fill="none" stroke="black" points="228.5,-190.02 228.5,-236.02 "/>
<text text-anchor="middle" x="264" y="-216.82" font-family="Times,serif" font-size="14.00">$68</text>
<text text-anchor="middle" x="264" y="-201.82" font-family="Times,serif" font-size="14.00">$_XOR_</text>
<polyline fill="none" stroke="black" points="299.5,-190.02 299.5,-236.02 "/>
<text text-anchor="middle" x="312.5" y="-209.32" font-family="Times,serif" font-size="14.00">Y</text>
</g>
<!-- x8 -->
<g id="node16" class="node">
<title>x8</title>
<path fill="none" stroke="black" d="M620.5,-195.02C620.5,-195.02 671.5,-195.02 671.5,-195.02 677.5,-195.02 683.5,-201.02 683.5,-207.02 683.5,-207.02 683.5,-219.02 683.5,-219.02 683.5,-225.02 677.5,-231.02 671.5,-231.02 671.5,-231.02 620.5,-231.02 620.5,-231.02 614.5,-231.02 608.5,-225.02 608.5,-219.02 608.5,-219.02 608.5,-207.02 608.5,-207.02 608.5,-201.02 614.5,-195.02 620.5,-195.02"/>
<text text-anchor="middle" x="646" y="-209.32" font-family="Times,serif" font-size="14.00">0:0 &#45; 0:0</text>
</g>
<!-- c14&#45;&gt;x8 -->
<g id="edge9" class="edge">
<title>c14:e&#45;&gt;x8:w</title>
<path fill="none" stroke="black" d="M338.14,-213.02C449.14,-213.02 483.89,-213.02 594.92,-213.02"/>
<polygon fill="none" stroke="black" points="338,-213.02 332,-217.02 326,-213.02 332,-209.02 338,-213.02"/>
<polygon fill="none" stroke="black" points="595,-213.02 601,-209.02 607,-213.02 601,-217.02 595,-213.02"/>
</g>
<!-- x6&#45;&gt;c14 -->
<g id="edge7" class="edge">
<title>x6:e&#45;&gt;c14:w</title>
<path fill="none" stroke="black" d="M176.35,-272.22C184.76,-262.26 181.25,-239.47 189.79,-229.65"/>
<polygon fill="none" stroke="black" points="176.05,-272.34 172.08,-278.36 165,-277.02 168.97,-270.99 176.05,-272.34"/>
<polygon fill="none" stroke="black" points="189.91,-229.6 193.93,-223.61 201,-225.02 196.98,-231 189.91,-229.6"/>
</g>
<!-- x7&#45;&gt;c14 -->
<g id="edge8" class="edge">
<title>x7:e&#45;&gt;c14:w</title>
<path fill="none" stroke="black" d="M176.3,-171.74C182.21,-178.17 183.71,-189.59 189.54,-196.11"/>
<polygon fill="none" stroke="black" points="176.07,-171.65 168.99,-173.02 165,-167.02 172.08,-165.64 176.07,-171.65"/>
<polygon fill="none" stroke="black" points="189.97,-196.29 197.06,-194.98 201,-201.02 193.91,-202.33 189.97,-196.29"/>
</g>
<!-- x8&#45;&gt;n1 -->
<g id="edge22" class="edge">
<title>x8:e&#45;&gt;n1:w</title>
<path fill="none" stroke="black" d="M685,-213.02C757.01,-213.02 777.55,-213.02 844.74,-213.02"/>
<polygon fill="black" stroke="black" points="845,-216.52 855,-213.02 845,-209.52 845,-216.52"/>
</g>
<!-- c15 -->
<g id="node17" class="node">
<title>c15</title>
<polygon fill="none" stroke="black" points="201.5,-322.02 201.5,-368.02 325.5,-368.02 325.5,-322.02 201.5,-322.02"/>
<text text-anchor="middle" x="215" y="-352.82" font-family="Times,serif" font-size="14.00">A</text>
<polyline fill="none" stroke="black" points="201.5,-345.02 228.5,-345.02 "/>
<text text-anchor="middle" x="215" y="-329.82" font-family="Times,serif" font-size="14.00">B</text>
<polyline fill="none" stroke="black" points="228.5,-322.02 228.5,-368.02 "/>
<text text-anchor="middle" x="264" y="-348.82" font-family="Times,serif" font-size="14.00">$69</text>
<text text-anchor="middle" x="264" y="-333.82" font-family="Times,serif" font-size="14.00">$_XOR_</text>
<polyline fill="none" stroke="black" points="299.5,-322.02 299.5,-368.02 "/>
<text text-anchor="middle" x="312.5" y="-341.32" font-family="Times,serif" font-size="14.00">Y</text>
</g>
<!-- x11 -->
<g id="node20" class="node">
<title>x11</title>
<path fill="none" stroke="black" d="M485,-327.02C485,-327.02 536,-327.02 536,-327.02 542,-327.02 548,-333.02 548,-339.02 548,-339.02 548,-351.02 548,-351.02 548,-357.02 542,-363.02 536,-363.02 536,-363.02 485,-363.02 485,-363.02 479,-363.02 473,-357.02 473,-351.02 473,-351.02 473,-339.02 473,-339.02 473,-333.02 479,-327.02 485,-327.02"/>
<text text-anchor="middle" x="510.5" y="-341.32" font-family="Times,serif" font-size="14.00">0:0 &#45; 1:1</text>
</g>
<!-- c15&#45;&gt;x11 -->
<g id="edge12" class="edge">
<title>c15:e&#45;&gt;x11:w</title>
<path fill="none" stroke="black" d="M338.05,-345.02C389.73,-345.02 409.13,-345.02 460.72,-345.02"/>
<polygon fill="none" stroke="black" points="338,-345.02 332,-349.02 326,-345.02 332,-341.02 338,-345.02"/>
<polygon fill="none" stroke="black" points="461,-345.02 467,-341.02 473,-345.02 467,-349.02 461,-345.02"/>
</g>
<!-- x9&#45;&gt;c15 -->
<g id="edge10" class="edge">
<title>x9:e&#45;&gt;c15:w</title>
<path fill="none" stroke="black" d="M176.64,-438.36C193.17,-424.38 172.77,-374.35 189.49,-360.56"/>
<polygon fill="none" stroke="black" points="176.45,-438.42 171.92,-444.04 165,-442.02 169.53,-436.4 176.45,-438.42"/>
<polygon fill="none" stroke="black" points="189.53,-360.55 194.09,-354.96 201,-357.02 196.44,-362.6 189.53,-360.55"/>
</g>
<!-- x10&#45;&gt;c15 -->
<g id="edge11" class="edge">
<title>x10:e&#45;&gt;c15:w</title>
<path fill="none" stroke="black" d="M177.22,-332.25C181.29,-332.41 184.73,-332.62 188.81,-332.78"/>
<polygon fill="none" stroke="black" points="177,-332.24 170.92,-336.13 165,-332.02 171.07,-328.13 177,-332.24"/>
<polygon fill="none" stroke="black" points="189,-332.79 195.08,-328.9 201,-333.02 194.93,-336.9 189,-332.79"/>
</g>
<!-- n3 -->
<g id="node34" class="node">
<title>n3</title>
<ellipse fill="black" stroke="black" cx="1204.1" cy="-337.02" rx="1.8" ry="1.8"/>
</g>
<!-- x11&#45;&gt;n3 -->
<g id="edge28" class="edge">
<title>x11:e&#45;&gt;n3:w</title>
<path fill="none" stroke="black" d="M548,-345.02C651.33,-345.02 677.17,-345.02 780.5,-345.02 780.5,-345.02 780.5,-345.02 933.1,-345.02 1048.77,-345.02 1080.12,-337.48 1190.85,-337.04"/>
<polygon fill="black" stroke="black" points="1191.11,-340.54 1201.1,-337.02 1191.09,-333.54 1191.11,-340.54"/>
</g>
<!-- x13 -->
<g id="node23" class="node">
<title>x13</title>
<path fill="none" stroke="black" d="M1178.6,-135.02C1178.6,-135.02 1229.6,-135.02 1229.6,-135.02 1235.6,-135.02 1241.6,-141.02 1241.6,-147.02 1241.6,-147.02 1241.6,-159.02 1241.6,-159.02 1241.6,-165.02 1235.6,-171.02 1229.6,-171.02 1229.6,-171.02 1178.6,-171.02 1178.6,-171.02 1172.6,-171.02 1166.6,-165.02 1166.6,-159.02 1166.6,-159.02 1166.6,-147.02 1166.6,-147.02 1166.6,-141.02 1172.6,-135.02 1178.6,-135.02"/>
<text text-anchor="middle" x="1204.1" y="-149.32" font-family="Times,serif" font-size="14.00">0:0 &#45; 0:0</text>
</g>
<!-- c16&#45;&gt;x13 -->
<g id="edge14" class="edge">
<title>c16:e&#45;&gt;x13:w</title>
<path fill="none" stroke="black" d="M1142.82,-153.02C1146.89,-153.02 1150.33,-153.02 1154.41,-153.02"/>
<polygon fill="none" stroke="black" points="1142.6,-153.02 1136.6,-157.02 1130.6,-153.02 1136.6,-149.02 1142.6,-153.02"/>
<polygon fill="none" stroke="black" points="1154.6,-153.02 1160.6,-149.02 1166.6,-153.02 1160.6,-157.02 1154.6,-153.02"/>
</g>
<!-- x12 -->
<g id="node22" class="node">
<title>x12</title>
<path fill="none" stroke="black" d="M906.6,-148.02C906.6,-148.02 957.6,-148.02 957.6,-148.02 963.6,-148.02 969.6,-154.02 969.6,-160.02 969.6,-160.02 969.6,-172.02 969.6,-172.02 969.6,-178.02 963.6,-184.02 957.6,-184.02 957.6,-184.02 906.6,-184.02 906.6,-184.02 900.6,-184.02 894.6,-178.02 894.6,-172.02 894.6,-172.02 894.6,-160.02 894.6,-160.02 894.6,-154.02 900.6,-148.02 906.6,-148.02"/>
<text text-anchor="middle" x="932.1" y="-162.32" font-family="Times,serif" font-size="14.00">0:0 &#45; 0:0</text>
</g>
<!-- x12&#45;&gt;c16 -->
<g id="edge13" class="edge">
<title>x12:e&#45;&gt;c16:w</title>
<path fill="none" stroke="black" d="M981.21,-161.66C986.26,-157.07 988.98,-149.89 994.04,-145.32"/>
<polygon fill="none" stroke="black" points="980.84,-161.8 976.62,-167.65 969.6,-166.02 973.81,-160.16 980.84,-161.8"/>
<polygon fill="none" stroke="black" points="994.35,-145.2 998.58,-139.36 1005.6,-141.02 1001.37,-146.86 994.35,-145.2"/>
</g>
<!-- x15 -->
<g id="node26" class="node">
<title>x15</title>
<path fill="none" stroke="black" d="M1289.6,-135.02C1289.6,-135.02 1340.6,-135.02 1340.6,-135.02 1346.6,-135.02 1352.6,-141.02 1352.6,-147.02 1352.6,-147.02 1352.6,-159.02 1352.6,-159.02 1352.6,-165.02 1346.6,-171.02 1340.6,-171.02 1340.6,-171.02 1289.6,-171.02 1289.6,-171.02 1283.6,-171.02 1277.6,-165.02 1277.6,-159.02 1277.6,-159.02 1277.6,-147.02 1277.6,-147.02 1277.6,-141.02 1283.6,-135.02 1289.6,-135.02"/>
<text text-anchor="middle" x="1315.1" y="-149.32" font-family="Times,serif" font-size="14.00">0:0 &#45; 0:0</text>
</g>
<!-- x13&#45;&gt;x15 -->
<g id="edge31" class="edge">
<title>x13:e&#45;&gt;x15:w</title>
<path fill="none" stroke="black" d="M1241.6,-153.02C1253.6,-153.02 1258.85,-153.02 1267.47,-153.02"/>
<polygon fill="black" stroke="black" points="1267.6,-156.52 1277.6,-153.02 1267.6,-149.52 1267.6,-156.52"/>
</g>
<!-- c17 -->
<g id="node24" class="node">
<title>c17</title>
<polygon fill="none" stroke="black" points="1388.6,-142.02 1388.6,-188.02 1512.6,-188.02 1512.6,-142.02 1388.6,-142.02"/>
<text text-anchor="middle" x="1402.1" y="-172.82" font-family="Times,serif" font-size="14.00">A</text>
<polyline fill="none" stroke="black" points="1388.6,-165.02 1415.6,-165.02 "/>
<text text-anchor="middle" x="1402.1" y="-149.82" font-family="Times,serif" font-size="14.00">B</text>
<polyline fill="none" stroke="black" points="1415.6,-142.02 1415.6,-188.02 "/>
<text text-anchor="middle" x="1451.1" y="-168.82" font-family="Times,serif" font-size="14.00">$86</text>
<text text-anchor="middle" x="1451.1" y="-153.82" font-family="Times,serif" font-size="14.00">$_XOR_</text>
<polyline fill="none" stroke="black" points="1486.6,-142.02 1486.6,-188.02 "/>
<text text-anchor="middle" x="1499.6" y="-161.32" font-family="Times,serif" font-size="14.00">Y</text>
</g>
<!-- x16 -->
<g id="node27" class="node">
<title>x16</title>
<path fill="none" stroke="black" d="M1560.6,-137.02C1560.6,-137.02 1611.6,-137.02 1611.6,-137.02 1617.6,-137.02 1623.6,-143.02 1623.6,-149.02 1623.6,-149.02 1623.6,-161.02 1623.6,-161.02 1623.6,-167.02 1617.6,-173.02 1611.6,-173.02 1611.6,-173.02 1560.6,-173.02 1560.6,-173.02 1554.6,-173.02 1548.6,-167.02 1548.6,-161.02 1548.6,-161.02 1548.6,-149.02 1548.6,-149.02 1548.6,-143.02 1554.6,-137.02 1560.6,-137.02"/>
<text text-anchor="middle" x="1586.1" y="-151.32" font-family="Times,serif" font-size="14.00">0:0 &#45; 1:1</text>
</g>
<!-- c17&#45;&gt;x16 -->
<g id="edge17" class="edge">
<title>c17:e&#45;&gt;x16:w</title>
<path fill="none" stroke="black" d="M1524.46,-162.89C1528.86,-161.2 1532.34,-158.83 1536.75,-157.13"/>
<polygon fill="none" stroke="black" points="1524.41,-162.9 1519.21,-167.9 1512.6,-165.02 1517.8,-160.02 1524.41,-162.9"/>
<polygon fill="none" stroke="black" points="1536.79,-157.13 1541.99,-152.13 1548.6,-155.02 1543.4,-160.01 1536.79,-157.13"/>
</g>
<!-- x14 -->
<g id="node25" class="node">
<title>x14</title>
<path fill="none" stroke="black" d="M1289.6,-193.02C1289.6,-193.02 1340.6,-193.02 1340.6,-193.02 1346.6,-193.02 1352.6,-199.02 1352.6,-205.02 1352.6,-205.02 1352.6,-217.02 1352.6,-217.02 1352.6,-223.02 1346.6,-229.02 1340.6,-229.02 1340.6,-229.02 1289.6,-229.02 1289.6,-229.02 1283.6,-229.02 1277.6,-223.02 1277.6,-217.02 1277.6,-217.02 1277.6,-205.02 1277.6,-205.02 1277.6,-199.02 1283.6,-193.02 1289.6,-193.02"/>
<text text-anchor="middle" x="1315.1" y="-207.32" font-family="Times,serif" font-size="14.00">1:1 &#45; 0:0</text>
</g>
<!-- x14&#45;&gt;c17 -->
<g id="edge15" class="edge">
<title>x14:e&#45;&gt;c17:w</title>
<path fill="none" stroke="black" d="M1363.9,-206.29C1369.81,-199.87 1371.31,-188.44 1377.14,-181.92"/>
<polygon fill="none" stroke="black" points="1363.67,-206.38 1359.68,-212.39 1352.6,-211.02 1356.59,-205.01 1363.67,-206.38"/>
<polygon fill="none" stroke="black" points="1377.57,-181.74 1381.51,-175.7 1388.6,-177.02 1384.66,-183.05 1377.57,-181.74"/>
</g>
<!-- x15&#45;&gt;c17 -->
<g id="edge16" class="edge">
<title>x15:e&#45;&gt;c17:w</title>
<path fill="none" stroke="black" d="M1364.82,-153.02C1368.89,-153.02 1372.33,-153.02 1376.41,-153.02"/>
<polygon fill="none" stroke="black" points="1364.6,-153.02 1358.6,-157.02 1352.6,-153.02 1358.6,-149.02 1364.6,-153.02"/>
<polygon fill="none" stroke="black" points="1376.6,-153.02 1382.6,-149.02 1388.6,-153.02 1382.6,-157.02 1376.6,-153.02"/>
</g>
<!-- x16&#45;&gt;n8 -->
<g id="edge40" class="edge">
<title>x16:e&#45;&gt;n8:w</title>
<path fill="none" stroke="black" d="M1623.6,-155.02C1639.54,-155.02 1640.23,-137.87 1649.98,-130.9"/>
<polygon fill="black" stroke="black" points="1651.03,-134.24 1659.6,-128.02 1649.02,-127.54 1651.03,-134.24"/>
</g>
<!-- x18 -->
<g id="node30" class="node">
<title>x18</title>
<path fill="none" stroke="black" d="M1425.1,-81.02C1425.1,-81.02 1476.1,-81.02 1476.1,-81.02 1482.1,-81.02 1488.1,-87.02 1488.1,-93.02 1488.1,-93.02 1488.1,-105.02 1488.1,-105.02 1488.1,-111.02 1482.1,-117.02 1476.1,-117.02 1476.1,-117.02 1425.1,-117.02 1425.1,-117.02 1419.1,-117.02 1413.1,-111.02 1413.1,-105.02 1413.1,-105.02 1413.1,-93.02 1413.1,-93.02 1413.1,-87.02 1419.1,-81.02 1425.1,-81.02"/>
<text text-anchor="middle" x="1450.6" y="-95.32" font-family="Times,serif" font-size="14.00">0:0 &#45; 0:0</text>
</g>
<!-- c18&#45;&gt;x18 -->
<g id="edge19" class="edge">
<title>c18:e&#45;&gt;x18:w</title>
<path fill="none" stroke="black" d="M1142.75,-84.06C1253.89,-84.96 1288.34,-98.07 1399.5,-98.97"/>
<polygon fill="none" stroke="black" points="1142.6,-84.06 1136.58,-88.04 1130.6,-84.02 1136.62,-80.04 1142.6,-84.06"/>
<polygon fill="none" stroke="black" points="1399.6,-98.97 1405.62,-94.99 1411.6,-99.02 1405.58,-102.99 1399.6,-98.97"/>
</g>
<!-- x17 -->
<g id="node29" class="node">
<title>x17</title>
<path fill="none" stroke="black" d="M906.6,-54.02C906.6,-54.02 957.6,-54.02 957.6,-54.02 963.6,-54.02 969.6,-60.02 969.6,-66.02 969.6,-66.02 969.6,-78.02 969.6,-78.02 969.6,-84.02 963.6,-90.02 957.6,-90.02 957.6,-90.02 906.6,-90.02 906.6,-90.02 900.6,-90.02 894.6,-84.02 894.6,-78.02 894.6,-78.02 894.6,-66.02 894.6,-66.02 894.6,-60.02 900.6,-54.02 906.6,-54.02"/>
<text text-anchor="middle" x="932.1" y="-68.32" font-family="Times,serif" font-size="14.00">0:0 &#45; 0:0</text>
</g>
<!-- x17&#45;&gt;c18 -->
<g id="edge18" class="edge">
<title>x17:e&#45;&gt;c18:w</title>
<path fill="none" stroke="black" d="M981.82,-72.02C985.89,-72.02 989.33,-72.02 993.41,-72.02"/>
<polygon fill="none" stroke="black" points="981.6,-72.02 975.6,-76.02 969.6,-72.02 975.6,-68.02 981.6,-72.02"/>
<polygon fill="none" stroke="black" points="993.6,-72.02 999.6,-68.02 1005.6,-72.02 999.6,-76.02 993.6,-72.02"/>
</g>
<!-- x18&#45;&gt;n8 -->
<g id="edge41" class="edge">
<title>x18:e&#45;&gt;n8:w</title>
<path fill="none" stroke="black" d="M1489.6,-99.02C1562.65,-99.02 1581.26,-125.36 1649.2,-127.83"/>
<polygon fill="black" stroke="black" points="1649.54,-131.34 1659.6,-128.02 1649.66,-124.34 1649.54,-131.34"/>
</g>
<!-- x19 -->
<g id="node31" class="node">
<title>x19</title>
<path fill="none" stroke="black" d="M906.6,-242.02C906.6,-242.02 957.6,-242.02 957.6,-242.02 963.6,-242.02 969.6,-248.02 969.6,-254.02 969.6,-254.02 969.6,-266.02 969.6,-266.02 969.6,-272.02 963.6,-278.02 957.6,-278.02 957.6,-278.02 906.6,-278.02 906.6,-278.02 900.6,-278.02 894.6,-272.02 894.6,-266.02 894.6,-266.02 894.6,-254.02 894.6,-254.02 894.6,-248.02 900.6,-242.02 906.6,-242.02"/>
<text text-anchor="middle" x="932.1" y="-256.32" font-family="Times,serif" font-size="14.00">0:0 &#45; 0:0</text>
</g>
<!-- x20 -->
<g id="node32" class="node">
<title>x20</title>
<path fill="none" stroke="black" d="M1042.6,-242.02C1042.6,-242.02 1093.6,-242.02 1093.6,-242.02 1099.6,-242.02 1105.6,-248.02 1105.6,-254.02 1105.6,-254.02 1105.6,-266.02 1105.6,-266.02 1105.6,-272.02 1099.6,-278.02 1093.6,-278.02 1093.6,-278.02 1042.6,-278.02 1042.6,-278.02 1036.6,-278.02 1030.6,-272.02 1030.6,-266.02 1030.6,-266.02 1030.6,-254.02 1030.6,-254.02 1030.6,-248.02 1036.6,-242.02 1042.6,-242.02"/>
<text text-anchor="middle" x="1068.1" y="-256.32" font-family="Times,serif" font-size="14.00">0:0 &#45; 0:0</text>
</g>
<!-- x19&#45;&gt;x20 -->
<g id="edge20" class="edge">
<title>x19:e&#45;&gt;x20:w</title>
<path fill="none" stroke="black" d="M981.68,-260.02C995.27,-260.02 1003.3,-260.02 1016.85,-260.02"/>
<polygon fill="none" stroke="black" points="981.6,-260.02 975.6,-264.02 969.6,-260.02 975.6,-256.02 981.6,-260.02"/>
<polygon fill="none" stroke="black" points="1017.1,-260.02 1023.1,-256.02 1029.1,-260.02 1023.1,-264.02 1017.1,-260.02"/>
</g>
<!-- x20&#45;&gt;n3 -->
<g id="edge29" class="edge">
<title>x20:e&#45;&gt;n3:w</title>
<path fill="none" stroke="black" d="M1107.1,-260.02C1157.41,-260.02 1148.69,-326.85 1190.93,-335.99"/>
<polygon fill="black" stroke="black" points="1190.8,-339.49 1201.1,-337.02 1191.5,-332.52 1190.8,-339.49"/>
</g>
<!-- n1&#45;&gt;x12 -->
<g id="edge23" class="edge">
<title>n1:e&#45;&gt;x12:w</title>
<path fill="none" stroke="black" d="M858.6,-213.02C880.8,-213.02 872.43,-179.56 885.08,-169.1"/>
<polygon fill="black" stroke="black" points="886.17,-172.43 894.6,-166.02 884.01,-165.77 886.17,-172.43"/>
</g>
<!-- n1&#45;&gt;x14 -->
<g id="edge24" class="edge">
<title>n1:e&#45;&gt;x14:w</title>
<path fill="none" stroke="black" d="M858.6,-213.02C1041.37,-213.02 1089.6,-211.09 1267.38,-211.02"/>
<polygon fill="black" stroke="black" points="1267.6,-214.52 1277.6,-211.02 1267.6,-207.52 1267.6,-214.52"/>
</g>
<!-- n1&#45;&gt;x17 -->
<g id="edge25" class="edge">
<title>n1:e&#45;&gt;x17:w</title>
<path fill="none" stroke="black" d="M858.6,-213.02C919.36,-213.02 840.65,-88.57 884.52,-73.5"/>
<polygon fill="black" stroke="black" points="885.22,-76.94 894.6,-72.02 884.2,-70.01 885.22,-76.94"/>
</g>
<!-- n1&#45;&gt;x19 -->
<g id="edge26" class="edge">
<title>n1:e&#45;&gt;x19:w</title>
<path fill="none" stroke="black" d="M858.6,-213.02C880.8,-213.02 872.43,-246.48 885.08,-256.93"/>
<polygon fill="black" stroke="black" points="884.01,-260.26 894.6,-260.02 886.17,-253.6 884.01,-260.26"/>
</g>
<!-- n3&#45;&gt;x3 -->
<g id="edge30" class="edge">
<title>n3:e&#45;&gt;x3:w</title>
<path fill="none" stroke="black" d="M1207.1,-337.02C1235.38,-337.02 1243.71,-325.33 1267.31,-322.59"/>
<polygon fill="black" stroke="black" points="1267.81,-326.06 1277.6,-322.02 1267.42,-319.07 1267.81,-326.06"/>
</g>
</g>
</svg>
