<?xml version="1.0" encoding="UTF-8" standalone="no"?>
<!DOCTYPE svg PUBLIC "-//W3C//DTD SVG 1.1//EN"
 "http://www.w3.org/Graphics/SVG/1.1/DTD/svg11.dtd">
<!-- Generated by graphviz version 2.43.0 (0)
 -->
<!-- Title: example Pages: 1 -->
<svg width="552pt" height="235pt"
 viewBox="0.00 0.00 552.00 235.00" xmlns="http://www.w3.org/2000/svg" xmlns:xlink="http://www.w3.org/1999/xlink">
<g id="graph0" class="graph" transform="scale(1 1) rotate(0) translate(4 231)">
<title>example</title>
<polygon fill="white" stroke="transparent" points="-4,4 -4,-231 548,-231 548,4 -4,4"/>
<text text-anchor="middle" x="272" y="-7.8" font-family="Times,serif" font-size="14.00">example</text>
<!-- n1 -->
<g id="node1" class="node">
<title>n1</title>
<polygon fill="none" stroke="black" points="54,-155.54 54,-170.46 38.18,-181 15.82,-181 0,-170.46 0,-155.54 15.82,-145 38.18,-145 54,-155.54"/>
<text text-anchor="middle" x="27" y="-159.3" font-family="Times,serif" font-size="14.00">a</text>
</g>
<!-- x0 -->
<g id="node6" class="node">
<title>x0</title>
<path fill="none" stroke="black" d="M103,-23.5C103,-23.5 154,-23.5 154,-23.5 160,-23.5 166,-29.5 166,-35.5 166,-35.5 166,-126.5 166,-126.5 166,-132.5 160,-138.5 154,-138.5 154,-138.5 103,-138.5 103,-138.5 97,-138.5 91,-132.5 91,-126.5 91,-126.5 91,-35.5 91,-35.5 91,-29.5 97,-23.5 103,-23.5"/>
<text text-anchor="middle" x="128.5" y="-123.3" font-family="Times,serif" font-size="14.00">1:1 &#45; 4:4</text>
<polyline fill="none" stroke="black" points="91,-115.5 166,-115.5 "/>
<text text-anchor="middle" x="128.5" y="-100.3" font-family="Times,serif" font-size="14.00">1:1 &#45; 3:3</text>
<polyline fill="none" stroke="black" points="91,-92.5 166,-92.5 "/>
<text text-anchor="middle" x="128.5" y="-77.3" font-family="Times,serif" font-size="14.00">0:0 &#45; 2:2</text>
<polyline fill="none" stroke="black" points="91,-69.5 166,-69.5 "/>
<text text-anchor="middle" x="128.5" y="-54.3" font-family="Times,serif" font-size="14.00">0:0 &#45; 1:1</text>
<polyline fill="none" stroke="black" points="91,-46.5 166,-46.5 "/>
<text text-anchor="middle" x="128.5" y="-31.3" font-family="Times,serif" font-size="14.00">0:0 &#45; 0:0</text>
</g>
<!-- n1&#45;&gt;x0 -->
<g id="edge5" class="edge">
<title>n1:e&#45;&gt;x0:w</title>
<path fill="none" stroke="black" d="M54,-163C79.02,-163 65.85,-133.98 73,-110 76.9,-96.91 75.13,-57.06 82.92,-41.41"/>
<polygon fill="black" stroke="black" points="85.34,-43.96 91,-35 80.99,-38.47 85.34,-43.96"/>
</g>
<!-- n1&#45;&gt;x0 -->
<g id="edge6" class="edge">
<title>n1:e&#45;&gt;x0:w</title>
<path fill="none" stroke="black" d="M54,-163C80.84,-163 65.68,-118.63 81.36,-106.85"/>
<polygon fill="black" stroke="black" points="82.4,-110.19 91,-104 80.42,-103.47 82.4,-110.19"/>
</g>
<!-- x2 -->
<g id="node9" class="node">
<title>x2</title>
<path fill="none" stroke="black" d="M103,-157.5C103,-157.5 154,-157.5 154,-157.5 160,-157.5 166,-163.5 166,-169.5 166,-169.5 166,-214.5 166,-214.5 166,-220.5 160,-226.5 154,-226.5 154,-226.5 103,-226.5 103,-226.5 97,-226.5 91,-220.5 91,-214.5 91,-214.5 91,-169.5 91,-169.5 91,-163.5 97,-157.5 103,-157.5"/>
<text text-anchor="middle" x="128.5" y="-211.3" font-family="Times,serif" font-size="14.00">0:0 &#45; 2:2</text>
<polyline fill="none" stroke="black" points="91,-203.5 166,-203.5 "/>
<text text-anchor="middle" x="128.5" y="-188.3" font-family="Times,serif" font-size="14.00">0:0 &#45; 1:1</text>
<polyline fill="none" stroke="black" points="91,-180.5 166,-180.5 "/>
<text text-anchor="middle" x="128.5" y="-165.3" font-family="Times,serif" font-size="14.00">0:0 &#45; 0:0</text>
</g>
<!-- n1&#45;&gt;x2 -->
<g id="edge7" class="edge">
<title>n1:e&#45;&gt;x2:w</title>
<path fill="none" stroke="black" d="M54,-163C62.58,-163 63.56,-168.42 72,-170 75.9,-170.73 78.46,-170.56 80.95,-170.17"/>
<polygon fill="black" stroke="black" points="81.47,-173.63 91,-169 80.66,-166.68 81.47,-173.63"/>
</g>
<!-- n2 -->
<g id="node2" class="node">
<title>n2</title>
<polygon fill="none" stroke="black" points="54,-47.54 54,-62.46 38.18,-73 15.82,-73 0,-62.46 0,-47.54 15.82,-37 38.18,-37 54,-47.54"/>
<text text-anchor="middle" x="27" y="-51.3" font-family="Times,serif" font-size="14.00">b</text>
</g>
<!-- n2&#45;&gt;x0 -->
<g id="edge8" class="edge">
<title>n2:e&#45;&gt;x0:w</title>
<path fill="none" stroke="black" d="M54,-55C63,-55 64.29,-45.74 73,-48 77.43,-49.15 79.64,-51.65 81.89,-53.86"/>
<polygon fill="black" stroke="black" points="80.45,-57.05 91,-58 83.34,-50.68 80.45,-57.05"/>
</g>
<!-- n2&#45;&gt;x0 -->
<g id="edge9" class="edge">
<title>n2:e&#45;&gt;x0:w</title>
<path fill="none" stroke="black" d="M54,-55C65.63,-55 66.75,-63.19 73,-73 84.15,-90.5 72.1,-115.63 81.37,-124.09"/>
<polygon fill="black" stroke="black" points="80.42,-127.46 91,-127 82.44,-120.76 80.42,-127.46"/>
</g>
<!-- n2&#45;&gt;x2 -->
<g id="edge10" class="edge">
<title>n2:e&#45;&gt;x2:w</title>
<path fill="none" stroke="black" d="M54,-55C81.84,-55 64.78,-161.77 82.1,-186.8"/>
<polygon fill="black" stroke="black" points="80.6,-189.97 91,-192 84.13,-183.93 80.6,-189.97"/>
</g>
<!-- n3 -->
<g id="node3" class="node">
<title>n3</title>
<polygon fill="none" stroke="black" points="54,-101.54 54,-116.46 38.18,-127 15.82,-127 0,-116.46 0,-101.54 15.82,-91 38.18,-91 54,-101.54"/>
<text text-anchor="middle" x="27" y="-105.3" font-family="Times,serif" font-size="14.00">c</text>
</g>
<!-- n3&#45;&gt;x0 -->
<g id="edge11" class="edge">
<title>n3:e&#45;&gt;x0:w</title>
<path fill="none" stroke="black" d="M54,-109C70.59,-109 71.09,-90.87 81.39,-83.79"/>
<polygon fill="black" stroke="black" points="82.37,-87.15 91,-81 80.42,-80.42 82.37,-87.15"/>
</g>
<!-- n3&#45;&gt;x2 -->
<g id="edge12" class="edge">
<title>n3:e&#45;&gt;x2:w</title>
<path fill="none" stroke="black" d="M54,-109C75.44,-109 68.93,-187.28 82.51,-209.3"/>
<polygon fill="black" stroke="black" points="80.75,-212.33 91,-215 84.65,-206.52 80.75,-212.33"/>
</g>
<!-- n4 -->
<g id="node4" class="node">
<title>n4</title>
<polygon fill="none" stroke="black" points="544,-141.54 544,-156.46 528.18,-167 505.82,-167 490,-156.46 490,-141.54 505.82,-131 528.18,-131 544,-141.54"/>
<text text-anchor="middle" x="517" y="-145.3" font-family="Times,serif" font-size="14.00">o</text>
</g>
<!-- c7 -->
<g id="node5" class="node">
<title>c7</title>
<polygon fill="none" stroke="black" points="236,-102 236,-140 341,-140 341,-102 236,-102"/>
<text text-anchor="middle" x="249" y="-117.3" font-family="Times,serif" font-size="14.00">A</text>
<polyline fill="none" stroke="black" points="262,-102 262,-140 "/>
<text text-anchor="middle" x="288.5" y="-124.8" font-family="Times,serif" font-size="14.00">$103</text>
<text text-anchor="middle" x="288.5" y="-109.8" font-family="Times,serif" font-size="14.00">$lut</text>
<polyline fill="none" stroke="black" points="315,-102 315,-140 "/>
<text text-anchor="middle" x="328" y="-117.3" font-family="Times,serif" font-size="14.00">Y</text>
</g>
<!-- x1 -->
<g id="node7" class="node">
<title>x1</title>
<path fill="none" stroke="black" d="M390,-104C390,-104 441,-104 441,-104 447,-104 453,-110 453,-116 453,-116 453,-128 453,-128 453,-134 447,-140 441,-140 441,-140 390,-140 390,-140 384,-140 378,-134 378,-128 378,-128 378,-116 378,-116 378,-110 384,-104 390,-104"/>
<text text-anchor="middle" x="415.5" y="-118.3" font-family="Times,serif" font-size="14.00">0:0 &#45; 1:1</text>
</g>
<!-- c7&#45;&gt;x1 -->
<g id="edge2" class="edge">
<title>c7:e&#45;&gt;x1:w</title>
<path fill="none" stroke="black" d="M353.03,-121.21C357.62,-121.38 361.38,-121.62 365.98,-121.79"/>
<polygon fill="none" stroke="black" points="353,-121.21 346.93,-125.11 341,-121 347.07,-117.11 353,-121.21"/>
<polygon fill="none" stroke="black" points="366,-121.79 372.07,-117.89 378,-122 371.93,-125.89 366,-121.79"/>
</g>
<!-- x0&#45;&gt;c7 -->
<g id="edge1" class="edge">
<title>x0:e&#45;&gt;c7:w</title>
<path fill="none" stroke="black" stroke-width="3" d="M178.15,-82.82C198.58,-89.52 203.55,-112.7 224.1,-119.26"/>
<polygon fill="none" stroke="black" stroke-width="3" points="177.87,-82.78 171.34,-85.85 166,-81 172.53,-77.93 177.87,-82.78"/>
<polygon fill="none" stroke="black" stroke-width="3" points="224.13,-119.26 230.64,-116.17 236,-121 229.48,-124.09 224.13,-119.26"/>
<text text-anchor="middle" x="201" y="-119.8" font-family="Times,serif" font-size="14.00">&lt;5&gt;</text>
</g>
<!-- x1&#45;&gt;n4 -->
<g id="edge13" class="edge">
<title>x1:e&#45;&gt;n4:w</title>
<path fill="none" stroke="black" d="M453,-122C469.22,-122 470.16,-139.15 480.17,-146.11"/>
<polygon fill="black" stroke="black" points="479.42,-149.54 490,-149 481.39,-142.82 479.42,-149.54"/>
</g>
<!-- c8 -->
<g id="node8" class="node">
<title>c8</title>
<polygon fill="none" stroke="black" points="236,-166 236,-204 341,-204 341,-166 236,-166"/>
<text text-anchor="middle" x="249" y="-181.3" font-family="Times,serif" font-size="14.00">A</text>
<polyline fill="none" stroke="black" points="262,-166 262,-204 "/>
<text text-anchor="middle" x="288.5" y="-188.8" font-family="Times,serif" font-size="14.00">$104</text>
<text text-anchor="middle" x="288.5" y="-173.8" font-family="Times,serif" font-size="14.00">$lut</text>
<polyline fill="none" stroke="black" points="315,-166 315,-204 "/>
<text text-anchor="middle" x="328" y="-181.3" font-family="Times,serif" font-size="14.00">Y</text>
</g>
<!-- x3 -->
<g id="node10" class="node">
<title>x3</title>
<path fill="none" stroke="black" d="M390,-159C390,-159 441,-159 441,-159 447,-159 453,-165 453,-171 453,-171 453,-183 453,-183 453,-189 447,-195 441,-195 441,-195 390,-195 390,-195 384,-195 378,-189 378,-183 378,-183 378,-171 378,-171 378,-165 384,-159 390,-159"/>
<text text-anchor="middle" x="415.5" y="-173.3" font-family="Times,serif" font-size="14.00">0:0 &#45; 0:0</text>
</g>
<!-- c8&#45;&gt;x3 -->
<g id="edge4" class="edge">
<title>c8:e&#45;&gt;x3:w</title>
<path fill="none" stroke="black" d="M353.13,-183.3C357.68,-181.95 361.33,-180.05 365.88,-178.69"/>
<polygon fill="none" stroke="black" points="352.88,-183.34 347.5,-188.13 341,-185 346.39,-180.21 352.88,-183.34"/>
<polygon fill="none" stroke="black" points="366.12,-178.66 371.5,-173.87 378,-177 372.61,-181.79 366.12,-178.66"/>
</g>
<!-- x2&#45;&gt;c8 -->
<g id="edge3" class="edge">
<title>x2:e&#45;&gt;c8:w</title>
<path fill="none" stroke="black" stroke-width="3" d="M178.21,-191.6C196.27,-190.37 205.77,-186.62 223.85,-185.39"/>
<polygon fill="none" stroke="black" stroke-width="3" points="177.99,-191.61 172.13,-195.8 166,-192 171.87,-187.81 177.99,-191.61"/>
<polygon fill="none" stroke="black" stroke-width="3" points="224.01,-185.39 229.87,-181.2 236,-185 230.13,-189.19 224.01,-185.39"/>
<text text-anchor="middle" x="201" y="-193.8" font-family="Times,serif" font-size="14.00">&lt;3&gt;</text>
</g>
<!-- x3&#45;&gt;n4 -->
<g id="edge14" class="edge">
<title>x3:e&#45;&gt;n4:w</title>
<path fill="none" stroke="black" d="M453,-177C469.59,-177 470.09,-158.87 480.39,-151.79"/>
<polygon fill="black" stroke="black" points="481.37,-155.15 490,-149 479.42,-148.42 481.37,-155.15"/>
</g>
</g>
</svg>
